G04*
G04 #@! TF.GenerationSoftware,Altium Limited,Altium Designer,18.1.9 (240)*
G04*
G04 Layer_Physical_Order=2*
G04 Layer_Color=32768*
%FSLAX25Y25*%
%MOIN*%
G70*
G01*
G75*
%ADD37C,0.07874*%
%ADD45C,0.07087*%
%ADD84C,0.03937*%
%ADD85C,0.20079*%
%ADD86C,0.16535*%
%ADD87C,0.16535*%
%ADD88C,0.08268*%
%ADD89C,0.07953*%
%ADD90C,0.09449*%
%ADD91C,0.10236*%
%ADD92C,0.07937*%
%ADD93C,0.07480*%
%ADD94C,0.05118*%
D37*
X229500Y95831D02*
D03*
Y117642D02*
D03*
Y128547D02*
D03*
Y139453D02*
D03*
Y150358D02*
D03*
Y172169D02*
D03*
X218319Y112189D02*
D03*
Y134000D02*
D03*
Y144905D02*
D03*
Y155811D02*
D03*
Y166717D02*
D03*
X74090Y95831D02*
D03*
Y117642D02*
D03*
Y128547D02*
D03*
Y139453D02*
D03*
Y150358D02*
D03*
Y172169D02*
D03*
X62910Y112189D02*
D03*
Y134000D02*
D03*
Y144905D02*
D03*
Y155811D02*
D03*
Y166717D02*
D03*
X-81319Y95831D02*
D03*
Y117642D02*
D03*
Y128547D02*
D03*
Y139453D02*
D03*
Y150358D02*
D03*
Y172169D02*
D03*
X-92500Y112189D02*
D03*
Y134000D02*
D03*
Y144905D02*
D03*
Y155811D02*
D03*
Y166717D02*
D03*
X-256819Y87047D02*
D03*
Y97952D02*
D03*
Y108858D02*
D03*
Y119763D02*
D03*
Y130669D02*
D03*
X-268000Y92500D02*
D03*
Y103405D02*
D03*
Y114311D02*
D03*
Y125216D02*
D03*
X-5000Y95000D02*
D03*
Y105000D02*
D03*
X193500Y166500D02*
D03*
X-5354Y115000D02*
D03*
Y125000D02*
D03*
X193500Y155667D02*
D03*
X311500Y112500D02*
D03*
Y53000D02*
D03*
X193500Y144833D02*
D03*
X301667Y112500D02*
D03*
Y53000D02*
D03*
X291833Y112500D02*
D03*
Y53000D02*
D03*
X193500Y134000D02*
D03*
X282000Y112500D02*
D03*
Y53000D02*
D03*
X-4500Y155000D02*
D03*
X336300Y5000D02*
D03*
X326300D02*
D03*
X316225D02*
D03*
X306150D02*
D03*
X296075D02*
D03*
X286000D02*
D03*
X38000Y137000D02*
D03*
Y126250D02*
D03*
X226300Y36000D02*
D03*
X38000Y115500D02*
D03*
Y104750D02*
D03*
Y94000D02*
D03*
X146300Y5000D02*
D03*
X136300D02*
D03*
X126300D02*
D03*
X116300D02*
D03*
X56300Y35000D02*
D03*
X46300D02*
D03*
X36300D02*
D03*
X26500D02*
D03*
X-118000Y166500D02*
D03*
Y155811D02*
D03*
Y145500D02*
D03*
Y134000D02*
D03*
Y112000D02*
D03*
X-108500Y9500D02*
D03*
X-69000D02*
D03*
X-214335Y209000D02*
D03*
X-204335D02*
D03*
X-214335Y189000D02*
D03*
X-204335D02*
D03*
X-194335Y209000D02*
D03*
Y189000D02*
D03*
X-174335D02*
D03*
Y209000D02*
D03*
D45*
X183874Y32000D02*
D03*
D84*
X362500Y0D02*
Y130000D01*
X-300000Y0D02*
X362500D01*
X-300000D02*
Y275000D01*
X362500D01*
Y204000D02*
Y275000D01*
X270000Y204000D02*
X362500D01*
X270000Y130000D02*
Y204000D01*
Y130000D02*
X362500D01*
D85*
X-280000Y25000D02*
D03*
Y255000D02*
D03*
X20000Y55000D02*
D03*
Y255000D02*
D03*
X342500D02*
D03*
Y55000D02*
D03*
D86*
X223909Y199591D02*
D03*
Y68410D02*
D03*
X68500Y199591D02*
D03*
Y68410D02*
D03*
X-86910Y199591D02*
D03*
Y68410D02*
D03*
D87*
X-262409Y158070D02*
D03*
Y59645D02*
D03*
D88*
X-174000Y143000D02*
D03*
X-184000D02*
D03*
X-194000D02*
D03*
X-174000Y59500D02*
D03*
X-184000D02*
D03*
X-194000D02*
D03*
X-174000Y126300D02*
D03*
X-184000D02*
D03*
X-194000D02*
D03*
X-174000Y109600D02*
D03*
X-184000D02*
D03*
X-194000D02*
D03*
X-174000Y92900D02*
D03*
X-184000D02*
D03*
X-194000D02*
D03*
X-174000Y76200D02*
D03*
X-184000D02*
D03*
X-194000D02*
D03*
D89*
X336300Y25000D02*
D03*
X326300Y15000D02*
D03*
X266300D02*
D03*
X336300D02*
D03*
X316300D02*
D03*
X276300D02*
D03*
X286300D02*
D03*
X256300D02*
D03*
X306300D02*
D03*
X296300D02*
D03*
X246300Y25000D02*
D03*
X226300D02*
D03*
X236300D02*
D03*
X216300D02*
D03*
X246300Y15000D02*
D03*
X216300D02*
D03*
X236300D02*
D03*
X226300D02*
D03*
X146300Y25000D02*
D03*
X136300Y15000D02*
D03*
X76300D02*
D03*
X146300D02*
D03*
X126300D02*
D03*
X86300D02*
D03*
X96300D02*
D03*
X66300D02*
D03*
X116300D02*
D03*
X106300D02*
D03*
X56300Y25000D02*
D03*
X36300D02*
D03*
X46300D02*
D03*
X26300D02*
D03*
X56300Y15000D02*
D03*
X26300D02*
D03*
X46300D02*
D03*
X36300D02*
D03*
X25000Y95000D02*
D03*
Y185000D02*
D03*
Y195000D02*
D03*
Y205000D02*
D03*
Y215000D02*
D03*
X15000Y95000D02*
D03*
Y105000D02*
D03*
Y115000D02*
D03*
Y125000D02*
D03*
Y135000D02*
D03*
Y145000D02*
D03*
Y155000D02*
D03*
Y165000D02*
D03*
Y175000D02*
D03*
Y185000D02*
D03*
Y195000D02*
D03*
Y205000D02*
D03*
Y215000D02*
D03*
D90*
X284957Y243000D02*
D03*
X271177D02*
D03*
X257398D02*
D03*
X216059D02*
D03*
X229839D02*
D03*
X202279D02*
D03*
X243618D02*
D03*
X174721Y243000D02*
D03*
X188500Y243000D02*
D03*
X-116559Y242500D02*
D03*
X-102779D02*
D03*
X-75221D02*
D03*
X-47661D02*
D03*
X-20102D02*
D03*
X-33882D02*
D03*
X-61441D02*
D03*
X-89000D02*
D03*
X-239728D02*
D03*
X-225949D02*
D03*
X-198390D02*
D03*
X-170831D02*
D03*
X-143272D02*
D03*
X-157051D02*
D03*
X-184610D02*
D03*
X-212169D02*
D03*
X-268000Y194220D02*
D03*
Y221779D02*
D03*
D91*
X109500Y235252D02*
D03*
D92*
X-63500Y31500D02*
D03*
X-103000Y31000D02*
D03*
D93*
X142720Y194000D02*
D03*
D94*
X40007Y223425D02*
D03*
X-81595Y43110D02*
D03*
X33465Y213354D02*
D03*
X36614Y216240D02*
D03*
X39370Y219882D02*
D03*
X43406Y223228D02*
D03*
X47146Y225197D02*
D03*
X52000Y226500D02*
D03*
X-243500Y39959D02*
D03*
X-125500Y69459D02*
D03*
X263000Y73541D02*
D03*
X32500Y75460D02*
D03*
X101500Y54500D02*
D03*
X197300Y93300D02*
D03*
X195000Y99500D02*
D03*
X187500Y120500D02*
D03*
X186750Y115000D02*
D03*
X188500Y109000D02*
D03*
X185455Y103500D02*
D03*
X177000Y98000D02*
D03*
X178000Y66500D02*
D03*
X173736Y45264D02*
D03*
X168000Y43000D02*
D03*
X111000Y53500D02*
D03*
X162000Y57500D02*
D03*
X101000Y42500D02*
D03*
X71000Y54500D02*
D03*
X158791Y62000D02*
D03*
X-181941Y36921D02*
D03*
X0Y29000D02*
D03*
X314000Y91646D02*
D03*
X139500Y129500D02*
D03*
X-25146Y213000D02*
D03*
X-189500Y23000D02*
D03*
X6000Y83000D02*
D03*
X3500Y86500D02*
D03*
X8500Y155000D02*
D03*
X98500Y78000D02*
D03*
X96268Y89768D02*
D03*
X118000Y86000D02*
D03*
Y62500D02*
D03*
X115500Y83500D02*
D03*
Y59000D02*
D03*
X174500Y71000D02*
D03*
Y93300D02*
D03*
X-163000Y101284D02*
D03*
X-173500Y154500D02*
D03*
X261500Y49000D02*
D03*
X269000Y51500D02*
D03*
X65000Y231000D02*
D03*
X69000Y230000D02*
D03*
X130500Y102963D02*
D03*
X128000Y108358D02*
D03*
X125000Y119500D02*
D03*
X121500Y119000D02*
D03*
X63000Y234000D02*
D03*
X66500Y236500D02*
D03*
X111000Y144500D02*
D03*
X171000Y171500D02*
D03*
X178000Y144500D02*
D03*
X91000Y46500D02*
D03*
X165500Y82000D02*
D03*
Y36500D02*
D03*
X81000Y36000D02*
D03*
X102500Y164500D02*
D03*
X106000Y32500D02*
D03*
X-165500Y67500D02*
D03*
X4000Y181000D02*
D03*
X1925Y176000D02*
D03*
X-163000Y135000D02*
D03*
X-44500Y13000D02*
D03*
X-44957Y144457D02*
D03*
X-44500Y166000D02*
D03*
X-27000Y9500D02*
D03*
X1000Y7000D02*
D03*
Y170500D02*
D03*
X6000Y186000D02*
D03*
X3500Y210500D02*
D03*
Y191000D02*
D03*
X-34500Y186000D02*
D03*
Y211500D02*
D03*
X-38500Y191000D02*
D03*
Y208000D02*
D03*
X-42500Y196000D02*
D03*
Y205000D02*
D03*
X-236047Y144047D02*
D03*
Y87047D02*
D03*
X-229000Y119763D02*
D03*
X-229300Y93300D02*
D03*
X-242000Y77000D02*
D03*
X-248900Y127100D02*
D03*
M02*
