G04*
G04 #@! TF.GenerationSoftware,Altium Limited,Altium Designer,18.1.9 (240)*
G04*
G04 Layer_Color=8421504*
%FSLAX25Y25*%
%MOIN*%
G70*
G01*
G75*
%ADD21R,0.00787X0.00787*%
%ADD22R,0.05118X0.05906*%
%ADD23R,0.04724X0.05512*%
%ADD24R,0.05118X0.13386*%
%ADD25R,0.05906X0.05118*%
%ADD26O,0.02756X0.09843*%
%ADD27O,0.09843X0.02756*%
G36*
X-251590Y36853D02*
X-251875Y36874D01*
X-252426Y37026D01*
X-252937Y37283D01*
X-253388Y37634D01*
X-253761Y38067D01*
X-254043Y38564D01*
X-254223Y39107D01*
X-254293Y39674D01*
X-254272Y39959D01*
X-254297Y40249D01*
X-254234Y40826D01*
X-254059Y41380D01*
X-253779Y41889D01*
X-253406Y42333D01*
X-252953Y42697D01*
X-252437Y42965D01*
X-251880Y43127D01*
X-251590Y43152D01*
X-251590Y43152D01*
X-251590Y36853D01*
D02*
G37*
G36*
X-250120Y43127D02*
X-249563Y42965D01*
X-249047Y42697D01*
X-248594Y42333D01*
X-248221Y41889D01*
X-247941Y41380D01*
X-247766Y40826D01*
X-247703Y40249D01*
X-247728Y39959D01*
X-247707Y39674D01*
X-247777Y39107D01*
X-247957Y38564D01*
X-248239Y38067D01*
X-248612Y37634D01*
X-249063Y37283D01*
X-249574Y37026D01*
X-250125Y36874D01*
X-250410Y36853D01*
Y43152D01*
X-250120Y43127D01*
D02*
G37*
G36*
X-119590Y66353D02*
X-119875Y66374D01*
X-120426Y66526D01*
X-120937Y66783D01*
X-121388Y67134D01*
X-121761Y67567D01*
X-122043Y68064D01*
X-122223Y68607D01*
X-122293Y69174D01*
X-122272Y69459D01*
X-122297Y69749D01*
X-122234Y70326D01*
X-122059Y70880D01*
X-121779Y71389D01*
X-121406Y71833D01*
X-120952Y72197D01*
X-120437Y72465D01*
X-119880Y72627D01*
X-119590Y72652D01*
X-119590Y72652D01*
X-119590Y66353D01*
D02*
G37*
G36*
X-118120Y72627D02*
X-117563Y72465D01*
X-117048Y72197D01*
X-116594Y71833D01*
X-116221Y71389D01*
X-115941Y70880D01*
X-115766Y70326D01*
X-115703Y69749D01*
X-115728Y69459D01*
X-115707Y69174D01*
X-115777Y68607D01*
X-115957Y68064D01*
X-116239Y67567D01*
X-116612Y67134D01*
X-117063Y66783D01*
X-117574Y66526D01*
X-118125Y66374D01*
X-118410Y66353D01*
Y72652D01*
X-118120Y72627D01*
D02*
G37*
G36*
X37410Y69798D02*
X37125Y69819D01*
X36574Y69971D01*
X36063Y70228D01*
X35612Y70579D01*
X35239Y71012D01*
X34957Y71509D01*
X34777Y72052D01*
X34707Y72619D01*
X34728Y72904D01*
X34703Y73194D01*
X34766Y73771D01*
X34941Y74325D01*
X35221Y74834D01*
X35594Y75278D01*
X36048Y75642D01*
X36563Y75910D01*
X37120Y76072D01*
X37410Y76097D01*
X37410Y76097D01*
X37410Y69798D01*
D02*
G37*
G36*
X38880Y76072D02*
X39437Y75910D01*
X39952Y75642D01*
X40406Y75278D01*
X40779Y74834D01*
X41059Y74325D01*
X41234Y73771D01*
X41297Y73194D01*
X41272Y72904D01*
X41293Y72619D01*
X41223Y72052D01*
X41043Y71509D01*
X40761Y71012D01*
X40388Y70579D01*
X39937Y70228D01*
X39426Y69971D01*
X38875Y69819D01*
X38590Y69798D01*
Y76097D01*
X38880Y76072D01*
D02*
G37*
G36*
X256410Y70348D02*
X256410D01*
X256120Y70373D01*
X255563Y70535D01*
X255047Y70803D01*
X254594Y71166D01*
X254221Y71611D01*
X253941Y72120D01*
X253766Y72674D01*
X253703Y73251D01*
X253728Y73541D01*
X253728Y73541D01*
X253707Y73826D01*
X253777Y74393D01*
X253957Y74936D01*
X254239Y75433D01*
X254612Y75866D01*
X255063Y76217D01*
X255574Y76474D01*
X256125Y76626D01*
X256410Y76647D01*
X256410Y70348D01*
D02*
G37*
G36*
X257875Y76626D02*
X258426Y76474D01*
X258937Y76217D01*
X259388Y75866D01*
X259761Y75433D01*
X260043Y74936D01*
X260223Y74393D01*
X260293Y73826D01*
X260272Y73541D01*
X260272Y73541D01*
X260297Y73251D01*
X260234Y72674D01*
X260059Y72120D01*
X259779Y71611D01*
X259406Y71166D01*
X258952Y70803D01*
X258437Y70535D01*
X257880Y70373D01*
X257590Y70348D01*
Y76647D01*
X257875Y76626D01*
D02*
G37*
D21*
X-253165Y40000D02*
D03*
X-248835D02*
D03*
X259165Y73500D02*
D03*
X254835D02*
D03*
X35835Y72945D02*
D03*
X40165D02*
D03*
X-121165Y69500D02*
D03*
X-116835D02*
D03*
D22*
X-170787Y41921D02*
D03*
X-164094D02*
D03*
X-12154Y216000D02*
D03*
X-18846D02*
D03*
X152347Y135047D02*
D03*
X145653D02*
D03*
D23*
X-163898Y32921D02*
D03*
X-170984D02*
D03*
X-216957Y59500D02*
D03*
X-224043D02*
D03*
X-216957Y76400D02*
D03*
X-224043D02*
D03*
X-216957Y93300D02*
D03*
X-224043D02*
D03*
X-216957Y110200D02*
D03*
X-224043D02*
D03*
X-216957Y127100D02*
D03*
X-224043D02*
D03*
X-216957Y144000D02*
D03*
X-224043D02*
D03*
X-64457Y43000D02*
D03*
X-71543D02*
D03*
X-103957Y42500D02*
D03*
X-111043D02*
D03*
X-44957Y152000D02*
D03*
X-52043D02*
D03*
X-44957Y173228D02*
D03*
X-52043D02*
D03*
X111043Y150358D02*
D03*
X103957D02*
D03*
X111043Y172169D02*
D03*
X103957D02*
D03*
X175957Y151500D02*
D03*
X183043D02*
D03*
X176457Y171500D02*
D03*
X183543D02*
D03*
D24*
X-225114Y32000D02*
D03*
X-201886D02*
D03*
D25*
X317500Y86500D02*
D03*
Y79807D02*
D03*
D26*
X274000Y72354D02*
D03*
X279000D02*
D03*
X284000D02*
D03*
X289000D02*
D03*
X294000D02*
D03*
X299000D02*
D03*
X304000D02*
D03*
X309000D02*
D03*
X274000Y91646D02*
D03*
X279000D02*
D03*
X284000D02*
D03*
X289000D02*
D03*
X294000D02*
D03*
X299000D02*
D03*
X304000D02*
D03*
X309000D02*
D03*
D27*
X158791Y88000D02*
D03*
Y93000D02*
D03*
Y98000D02*
D03*
Y103000D02*
D03*
Y108000D02*
D03*
Y113000D02*
D03*
Y118000D02*
D03*
Y123000D02*
D03*
X139500Y88000D02*
D03*
Y93000D02*
D03*
Y98000D02*
D03*
Y103000D02*
D03*
Y108000D02*
D03*
Y113000D02*
D03*
Y118000D02*
D03*
Y123000D02*
D03*
X-5854Y171000D02*
D03*
Y176000D02*
D03*
Y181000D02*
D03*
Y186000D02*
D03*
Y191000D02*
D03*
Y196000D02*
D03*
Y201000D02*
D03*
Y206000D02*
D03*
X-25146Y171000D02*
D03*
Y176000D02*
D03*
Y181000D02*
D03*
Y186000D02*
D03*
Y191000D02*
D03*
Y196000D02*
D03*
Y201000D02*
D03*
Y206000D02*
D03*
M02*
