G04*
G04 #@! TF.GenerationSoftware,Altium Limited,Altium Designer,18.1.9 (240)*
G04*
G04 Layer_Color=8388736*
%FSLAX25Y25*%
%MOIN*%
G70*
G01*
G75*
%ADD28R,0.01157X0.07087*%
%ADD29R,0.01575X0.01575*%
%ADD30R,0.05906X0.06693*%
%ADD31R,0.05512X0.06299*%
%ADD32R,0.05906X0.14173*%
%ADD33R,0.06693X0.05906*%
%ADD34O,0.03543X0.10630*%
%ADD35O,0.10630X0.03543*%
%ADD36C,0.24410*%
%ADD37C,0.07874*%
%ADD38R,0.06102X0.06102*%
%ADD39C,0.06102*%
%ADD40C,0.06693*%
%ADD41R,0.06693X0.06693*%
%ADD42O,0.20276X0.19685*%
%ADD43C,0.19685*%
%ADD44C,0.15354*%
%ADD45C,0.07087*%
%ADD46R,0.07087X0.07087*%
%ADD47C,0.06890*%
%ADD48R,0.06890X0.06890*%
%ADD49R,0.09055X0.09055*%
%ADD50C,0.09055*%
%ADD51R,0.10236X0.10236*%
%ADD52C,0.10236*%
%ADD53R,0.09055X0.09055*%
%ADD54C,0.07287*%
%ADD55C,0.06724*%
%ADD56R,0.06724X0.06724*%
%ADD57R,0.06693X0.06693*%
%ADD58R,0.06890X0.06890*%
%ADD59C,0.03150*%
G36*
X-251582Y43546D02*
X-251573Y43546D01*
X-251556Y43544D01*
X-251539Y43543D01*
X-251530Y43541D01*
X-251522Y43540D01*
X-251505Y43536D01*
X-251488Y43533D01*
X-251480Y43530D01*
X-251471Y43528D01*
X-251456Y43522D01*
X-251439Y43516D01*
X-251431Y43513D01*
X-251424Y43510D01*
X-251409Y43501D01*
X-251393Y43494D01*
X-251386Y43489D01*
X-251378Y43485D01*
X-251365Y43475D01*
X-251350Y43465D01*
X-251343Y43459D01*
X-251337Y43454D01*
X-251325Y43442D01*
X-251311Y43431D01*
X-251306Y43424D01*
X-251299Y43418D01*
X-251289Y43405D01*
X-251277Y43392D01*
X-251272Y43385D01*
X-251267Y43378D01*
X-251258Y43364D01*
X-251249Y43349D01*
X-251245Y43341D01*
X-251240Y43334D01*
X-251234Y43319D01*
X-251226Y43303D01*
X-251223Y43295D01*
X-251220Y43287D01*
X-251215Y43271D01*
X-251209Y43254D01*
X-251207Y43245D01*
X-251205Y43237D01*
X-251203Y43221D01*
X-251199Y43203D01*
X-251199Y43195D01*
X-251197Y43186D01*
X-251197Y43169D01*
X-251196Y43152D01*
X-251196Y36853D01*
X-251197Y36838D01*
X-251197Y36824D01*
X-251199Y36813D01*
X-251199Y36801D01*
X-251202Y36787D01*
X-251204Y36773D01*
X-251207Y36762D01*
X-251209Y36751D01*
X-251214Y36737D01*
X-251218Y36723D01*
X-251222Y36713D01*
X-251226Y36702D01*
X-251232Y36689D01*
X-251238Y36676D01*
X-251244Y36666D01*
X-251249Y36656D01*
X-251257Y36643D01*
X-251264Y36631D01*
X-251271Y36622D01*
X-251277Y36613D01*
X-251287Y36602D01*
X-251296Y36590D01*
X-251304Y36582D01*
X-251311Y36574D01*
X-251322Y36564D01*
X-251333Y36554D01*
X-251342Y36547D01*
X-251350Y36540D01*
X-251362Y36532D01*
X-251374Y36523D01*
X-251384Y36517D01*
X-251393Y36511D01*
X-251406Y36505D01*
X-251419Y36498D01*
X-251429Y36493D01*
X-251439Y36488D01*
X-251453Y36484D01*
X-251466Y36478D01*
X-251478Y36475D01*
X-251488Y36472D01*
X-251502Y36469D01*
X-251517Y36465D01*
X-251528Y36464D01*
X-251539Y36462D01*
X-251553Y36461D01*
X-251568Y36459D01*
X-251579Y36459D01*
X-251590Y36458D01*
X-251605Y36459D01*
X-251619Y36459D01*
X-251904Y36480D01*
X-251917Y36482D01*
X-251930Y36483D01*
X-251943Y36486D01*
X-251956Y36487D01*
X-251968Y36491D01*
X-251980Y36494D01*
X-252532Y36646D01*
X-252544Y36650D01*
X-252556Y36653D01*
X-252568Y36658D01*
X-252580Y36663D01*
X-252592Y36669D01*
X-252604Y36674D01*
X-253114Y36930D01*
X-253126Y36937D01*
X-253137Y36943D01*
X-253148Y36950D01*
X-253159Y36957D01*
X-253169Y36964D01*
X-253180Y36972D01*
X-253630Y37323D01*
X-253640Y37332D01*
X-253650Y37340D01*
X-253659Y37349D01*
X-253669Y37358D01*
X-253678Y37367D01*
X-253686Y37377D01*
X-254060Y37809D01*
X-254068Y37820D01*
X-254076Y37829D01*
X-254083Y37840D01*
X-254091Y37850D01*
X-254097Y37862D01*
X-254105Y37873D01*
X-254386Y38370D01*
X-254392Y38381D01*
X-254398Y38393D01*
X-254403Y38405D01*
X-254409Y38416D01*
X-254413Y38429D01*
X-254418Y38440D01*
X-254597Y38983D01*
X-254601Y38996D01*
X-254605Y39008D01*
X-254607Y39021D01*
X-254610Y39033D01*
X-254612Y39046D01*
X-254614Y39059D01*
X-254684Y39626D01*
X-254685Y39639D01*
X-254687Y39652D01*
X-254687Y39665D01*
X-254688Y39678D01*
X-254686Y39690D01*
X-254686Y39703D01*
X-254668Y39957D01*
X-254690Y40215D01*
X-254691Y40227D01*
X-254692Y40240D01*
X-254691Y40253D01*
X-254691Y40266D01*
X-254690Y40279D01*
X-254689Y40292D01*
X-254626Y40869D01*
X-254624Y40882D01*
X-254622Y40895D01*
X-254619Y40907D01*
X-254617Y40920D01*
X-254613Y40932D01*
X-254610Y40945D01*
X-254435Y41499D01*
X-254430Y41511D01*
X-254426Y41523D01*
X-254421Y41535D01*
X-254416Y41547D01*
X-254410Y41558D01*
X-254405Y41570D01*
X-254125Y42079D01*
X-254118Y42090D01*
X-254112Y42101D01*
X-254104Y42111D01*
X-254097Y42122D01*
X-254089Y42132D01*
X-254081Y42143D01*
X-253708Y42587D01*
X-253699Y42597D01*
X-253691Y42606D01*
X-253681Y42615D01*
X-253672Y42625D01*
X-253662Y42632D01*
X-253652Y42641D01*
X-253199Y43005D01*
X-253189Y43012D01*
X-253179Y43020D01*
X-253168Y43027D01*
X-253157Y43034D01*
X-253146Y43040D01*
X-253134Y43047D01*
X-252619Y43315D01*
X-252607Y43320D01*
X-252596Y43326D01*
X-252584Y43330D01*
X-252572Y43335D01*
X-252560Y43339D01*
X-252548Y43343D01*
X-251990Y43506D01*
X-251977Y43508D01*
X-251965Y43512D01*
X-251952Y43514D01*
X-251940Y43517D01*
X-251927Y43518D01*
X-251914Y43520D01*
X-251625Y43545D01*
X-251608Y43545D01*
X-251590Y43547D01*
X-251582Y43546D01*
D02*
G37*
G36*
X-250392Y43545D02*
X-250375Y43545D01*
X-250086Y43520D01*
X-250073Y43518D01*
X-250061Y43517D01*
X-250048Y43514D01*
X-250035Y43512D01*
X-250023Y43508D01*
X-250010Y43506D01*
X-249452Y43343D01*
X-249440Y43339D01*
X-249428Y43335D01*
X-249416Y43330D01*
X-249404Y43326D01*
X-249393Y43320D01*
X-249381Y43315D01*
X-248866Y43047D01*
X-248854Y43040D01*
X-248843Y43034D01*
X-248832Y43027D01*
X-248821Y43020D01*
X-248811Y43012D01*
X-248801Y43005D01*
X-248348Y42641D01*
X-248338Y42632D01*
X-248328Y42625D01*
X-248319Y42615D01*
X-248309Y42606D01*
X-248301Y42597D01*
X-248292Y42587D01*
X-247919Y42143D01*
X-247911Y42132D01*
X-247903Y42122D01*
X-247896Y42111D01*
X-247888Y42101D01*
X-247882Y42090D01*
X-247875Y42079D01*
X-247596Y41570D01*
X-247590Y41558D01*
X-247584Y41547D01*
X-247579Y41535D01*
X-247574Y41523D01*
X-247570Y41511D01*
X-247565Y41499D01*
X-247390Y40945D01*
X-247387Y40932D01*
X-247383Y40920D01*
X-247381Y40907D01*
X-247378Y40895D01*
X-247376Y40882D01*
X-247374Y40869D01*
X-247311Y40292D01*
X-247310Y40279D01*
X-247309Y40266D01*
X-247309Y40253D01*
X-247308Y40240D01*
X-247309Y40227D01*
X-247310Y40215D01*
X-247332Y39957D01*
X-247314Y39703D01*
X-247313Y39690D01*
X-247312Y39678D01*
X-247313Y39665D01*
X-247313Y39652D01*
X-247315Y39639D01*
X-247316Y39626D01*
X-247386Y39059D01*
X-247388Y39046D01*
X-247390Y39033D01*
X-247393Y39021D01*
X-247395Y39008D01*
X-247399Y38996D01*
X-247403Y38983D01*
X-247582Y38440D01*
X-247587Y38429D01*
X-247591Y38416D01*
X-247597Y38405D01*
X-247602Y38393D01*
X-247608Y38381D01*
X-247614Y38370D01*
X-247895Y37873D01*
X-247903Y37862D01*
X-247909Y37850D01*
X-247917Y37840D01*
X-247924Y37829D01*
X-247932Y37820D01*
X-247940Y37809D01*
X-248313Y37377D01*
X-248323Y37367D01*
X-248331Y37358D01*
X-248341Y37349D01*
X-248350Y37340D01*
X-248360Y37332D01*
X-248370Y37323D01*
X-248820Y36972D01*
X-248831Y36964D01*
X-248841Y36957D01*
X-248852Y36950D01*
X-248863Y36943D01*
X-248874Y36937D01*
X-248886Y36930D01*
X-249396Y36674D01*
X-249408Y36669D01*
X-249420Y36663D01*
X-249432Y36658D01*
X-249444Y36653D01*
X-249456Y36650D01*
X-249468Y36646D01*
X-250020Y36494D01*
X-250032Y36491D01*
X-250044Y36487D01*
X-250057Y36486D01*
X-250070Y36483D01*
X-250083Y36482D01*
X-250096Y36480D01*
X-250381Y36459D01*
X-250395Y36459D01*
X-250410Y36458D01*
X-250421Y36459D01*
X-250432Y36459D01*
X-250447Y36461D01*
X-250461Y36462D01*
X-250472Y36464D01*
X-250483Y36465D01*
X-250498Y36469D01*
X-250512Y36472D01*
X-250522Y36475D01*
X-250534Y36478D01*
X-250547Y36484D01*
X-250561Y36488D01*
X-250571Y36493D01*
X-250581Y36498D01*
X-250594Y36505D01*
X-250607Y36511D01*
X-250616Y36517D01*
X-250626Y36523D01*
X-250638Y36532D01*
X-250650Y36540D01*
X-250658Y36547D01*
X-250667Y36554D01*
X-250678Y36564D01*
X-250689Y36574D01*
X-250696Y36582D01*
X-250704Y36590D01*
X-250713Y36602D01*
X-250723Y36613D01*
X-250729Y36622D01*
X-250736Y36631D01*
X-250743Y36643D01*
X-250751Y36656D01*
X-250756Y36666D01*
X-250762Y36676D01*
X-250768Y36689D01*
X-250774Y36702D01*
X-250778Y36713D01*
X-250782Y36723D01*
X-250786Y36737D01*
X-250791Y36751D01*
X-250793Y36762D01*
X-250796Y36773D01*
X-250798Y36787D01*
X-250801Y36801D01*
X-250801Y36813D01*
X-250803Y36824D01*
X-250803Y36838D01*
X-250804Y36853D01*
Y43152D01*
Y43152D01*
X-250803Y43169D01*
X-250803Y43186D01*
X-250801Y43195D01*
X-250801Y43203D01*
X-250797Y43220D01*
X-250795Y43237D01*
X-250793Y43245D01*
X-250791Y43254D01*
X-250785Y43270D01*
X-250781Y43287D01*
X-250777Y43295D01*
X-250774Y43303D01*
X-250766Y43318D01*
X-250760Y43334D01*
X-250755Y43341D01*
X-250751Y43349D01*
X-250742Y43364D01*
X-250733Y43378D01*
X-250728Y43385D01*
X-250723Y43392D01*
X-250711Y43405D01*
X-250701Y43418D01*
X-250694Y43424D01*
X-250689Y43431D01*
X-250676Y43442D01*
X-250663Y43454D01*
X-250657Y43459D01*
X-250650Y43465D01*
X-250635Y43475D01*
X-250622Y43485D01*
X-250614Y43489D01*
X-250607Y43494D01*
X-250591Y43501D01*
X-250576Y43510D01*
X-250569Y43513D01*
X-250561Y43516D01*
X-250544Y43522D01*
X-250529Y43528D01*
X-250520Y43530D01*
X-250512Y43533D01*
X-250495Y43536D01*
X-250478Y43540D01*
X-250470Y43541D01*
X-250461Y43543D01*
X-250444Y43544D01*
X-250427Y43546D01*
X-250418Y43546D01*
X-250410Y43547D01*
X-250392Y43545D01*
D02*
G37*
G36*
X-119581Y73046D02*
X-119573Y73046D01*
X-119556Y73044D01*
X-119539Y73043D01*
X-119530Y73041D01*
X-119522Y73040D01*
X-119505Y73036D01*
X-119488Y73033D01*
X-119480Y73030D01*
X-119472Y73028D01*
X-119456Y73022D01*
X-119439Y73017D01*
X-119431Y73013D01*
X-119423Y73010D01*
X-119409Y73001D01*
X-119393Y72994D01*
X-119386Y72989D01*
X-119378Y72985D01*
X-119365Y72975D01*
X-119350Y72965D01*
X-119343Y72959D01*
X-119337Y72954D01*
X-119325Y72943D01*
X-119311Y72931D01*
X-119306Y72924D01*
X-119299Y72918D01*
X-119289Y72905D01*
X-119277Y72892D01*
X-119272Y72885D01*
X-119267Y72878D01*
X-119258Y72864D01*
X-119249Y72849D01*
X-119245Y72841D01*
X-119240Y72834D01*
X-119234Y72819D01*
X-119226Y72803D01*
X-119223Y72795D01*
X-119220Y72787D01*
X-119215Y72771D01*
X-119209Y72754D01*
X-119208Y72745D01*
X-119205Y72737D01*
X-119203Y72721D01*
X-119199Y72703D01*
X-119199Y72695D01*
X-119197Y72686D01*
X-119197Y72669D01*
X-119196Y72652D01*
X-119196Y66353D01*
X-119197Y66338D01*
X-119197Y66324D01*
X-119199Y66313D01*
X-119199Y66301D01*
X-119202Y66287D01*
X-119204Y66273D01*
X-119207Y66262D01*
X-119209Y66251D01*
X-119214Y66237D01*
X-119218Y66223D01*
X-119222Y66213D01*
X-119226Y66202D01*
X-119232Y66189D01*
X-119238Y66176D01*
X-119244Y66166D01*
X-119249Y66155D01*
X-119257Y66143D01*
X-119264Y66131D01*
X-119271Y66122D01*
X-119277Y66113D01*
X-119287Y66102D01*
X-119296Y66090D01*
X-119304Y66082D01*
X-119311Y66074D01*
X-119322Y66064D01*
X-119333Y66054D01*
X-119342Y66047D01*
X-119350Y66040D01*
X-119362Y66032D01*
X-119374Y66023D01*
X-119384Y66017D01*
X-119393Y66011D01*
X-119406Y66005D01*
X-119419Y65998D01*
X-119429Y65993D01*
X-119439Y65988D01*
X-119453Y65984D01*
X-119466Y65978D01*
X-119478Y65975D01*
X-119488Y65972D01*
X-119502Y65969D01*
X-119517Y65965D01*
X-119528Y65964D01*
X-119539Y65962D01*
X-119553Y65961D01*
X-119568Y65959D01*
X-119579Y65959D01*
X-119590Y65958D01*
X-119605Y65959D01*
X-119619Y65959D01*
X-119904Y65980D01*
X-119917Y65982D01*
X-119930Y65983D01*
X-119943Y65986D01*
X-119956Y65987D01*
X-119968Y65991D01*
X-119981Y65993D01*
X-120531Y66146D01*
X-120544Y66150D01*
X-120556Y66153D01*
X-120568Y66158D01*
X-120580Y66163D01*
X-120592Y66168D01*
X-120604Y66174D01*
X-121114Y66430D01*
X-121125Y66437D01*
X-121137Y66443D01*
X-121148Y66450D01*
X-121159Y66457D01*
X-121169Y66465D01*
X-121180Y66472D01*
X-121631Y66823D01*
X-121640Y66832D01*
X-121650Y66840D01*
X-121659Y66849D01*
X-121669Y66858D01*
X-121677Y66868D01*
X-121686Y66877D01*
X-122060Y67309D01*
X-122068Y67320D01*
X-122076Y67329D01*
X-122083Y67340D01*
X-122091Y67351D01*
X-122097Y67362D01*
X-122105Y67373D01*
X-122387Y67870D01*
X-122392Y67882D01*
X-122398Y67893D01*
X-122403Y67905D01*
X-122409Y67916D01*
X-122413Y67929D01*
X-122418Y67940D01*
X-122597Y68483D01*
X-122601Y68496D01*
X-122605Y68508D01*
X-122607Y68521D01*
X-122610Y68533D01*
X-122612Y68546D01*
X-122614Y68559D01*
X-122685Y69126D01*
X-122685Y69139D01*
X-122687Y69152D01*
X-122687Y69165D01*
X-122687Y69178D01*
X-122687Y69190D01*
X-122686Y69203D01*
X-122668Y69457D01*
X-122690Y69715D01*
X-122690Y69727D01*
X-122692Y69740D01*
X-122691Y69753D01*
X-122691Y69766D01*
X-122690Y69779D01*
X-122689Y69792D01*
X-122626Y70369D01*
X-122624Y70382D01*
X-122622Y70395D01*
X-122619Y70407D01*
X-122617Y70420D01*
X-122613Y70432D01*
X-122610Y70445D01*
X-122435Y70999D01*
X-122430Y71011D01*
X-122426Y71023D01*
X-122421Y71035D01*
X-122416Y71047D01*
X-122410Y71058D01*
X-122405Y71070D01*
X-122125Y71579D01*
X-122118Y71590D01*
X-122112Y71601D01*
X-122104Y71611D01*
X-122097Y71622D01*
X-122089Y71632D01*
X-122081Y71643D01*
X-121708Y72087D01*
X-121699Y72097D01*
X-121690Y72106D01*
X-121681Y72115D01*
X-121672Y72124D01*
X-121662Y72132D01*
X-121652Y72141D01*
X-121199Y72505D01*
X-121189Y72512D01*
X-121179Y72520D01*
X-121168Y72527D01*
X-121157Y72534D01*
X-121146Y72540D01*
X-121134Y72547D01*
X-120619Y72815D01*
X-120607Y72820D01*
X-120596Y72826D01*
X-120584Y72830D01*
X-120572Y72835D01*
X-120560Y72839D01*
X-120547Y72843D01*
X-119990Y73006D01*
X-119977Y73009D01*
X-119965Y73012D01*
X-119952Y73014D01*
X-119939Y73017D01*
X-119927Y73018D01*
X-119914Y73020D01*
X-119625Y73045D01*
X-119608Y73045D01*
X-119590Y73046D01*
X-119581Y73046D01*
D02*
G37*
G36*
X-118392Y73045D02*
X-118375Y73045D01*
X-118086Y73020D01*
X-118073Y73018D01*
X-118061Y73017D01*
X-118048Y73014D01*
X-118035Y73012D01*
X-118023Y73009D01*
X-118010Y73006D01*
X-117453Y72843D01*
X-117440Y72839D01*
X-117428Y72835D01*
X-117416Y72830D01*
X-117404Y72826D01*
X-117393Y72820D01*
X-117381Y72815D01*
X-116866Y72547D01*
X-116854Y72540D01*
X-116843Y72534D01*
X-116832Y72527D01*
X-116821Y72520D01*
X-116811Y72512D01*
X-116801Y72505D01*
X-116348Y72141D01*
X-116338Y72132D01*
X-116328Y72124D01*
X-116319Y72115D01*
X-116309Y72106D01*
X-116301Y72097D01*
X-116292Y72087D01*
X-115919Y71643D01*
X-115911Y71632D01*
X-115903Y71622D01*
X-115896Y71611D01*
X-115888Y71601D01*
X-115882Y71590D01*
X-115875Y71579D01*
X-115595Y71070D01*
X-115590Y71058D01*
X-115584Y71047D01*
X-115579Y71035D01*
X-115574Y71023D01*
X-115570Y71011D01*
X-115565Y70999D01*
X-115390Y70445D01*
X-115387Y70432D01*
X-115383Y70420D01*
X-115381Y70407D01*
X-115378Y70395D01*
X-115376Y70382D01*
X-115374Y70369D01*
X-115311Y69792D01*
X-115310Y69779D01*
X-115309Y69766D01*
X-115309Y69753D01*
X-115308Y69740D01*
X-115310Y69727D01*
X-115310Y69715D01*
X-115332Y69457D01*
X-115314Y69203D01*
X-115313Y69190D01*
X-115313Y69178D01*
X-115313Y69165D01*
X-115313Y69152D01*
X-115315Y69139D01*
X-115315Y69126D01*
X-115386Y68559D01*
X-115388Y68546D01*
X-115390Y68533D01*
X-115393Y68521D01*
X-115395Y68508D01*
X-115399Y68496D01*
X-115403Y68483D01*
X-115582Y67940D01*
X-115587Y67929D01*
X-115591Y67916D01*
X-115597Y67905D01*
X-115602Y67893D01*
X-115608Y67882D01*
X-115613Y67870D01*
X-115895Y67373D01*
X-115903Y67362D01*
X-115909Y67351D01*
X-115917Y67340D01*
X-115924Y67329D01*
X-115932Y67320D01*
X-115940Y67309D01*
X-116314Y66877D01*
X-116323Y66868D01*
X-116331Y66858D01*
X-116341Y66849D01*
X-116350Y66840D01*
X-116360Y66832D01*
X-116369Y66823D01*
X-116820Y66472D01*
X-116831Y66465D01*
X-116841Y66457D01*
X-116852Y66450D01*
X-116863Y66443D01*
X-116875Y66437D01*
X-116886Y66430D01*
X-117396Y66174D01*
X-117408Y66168D01*
X-117420Y66163D01*
X-117432Y66158D01*
X-117444Y66153D01*
X-117456Y66150D01*
X-117469Y66146D01*
X-118019Y65993D01*
X-118032Y65991D01*
X-118045Y65987D01*
X-118057Y65986D01*
X-118070Y65983D01*
X-118083Y65982D01*
X-118096Y65980D01*
X-118381Y65959D01*
X-118395Y65959D01*
X-118410Y65958D01*
X-118421Y65959D01*
X-118432Y65959D01*
X-118447Y65961D01*
X-118461Y65962D01*
X-118472Y65964D01*
X-118483Y65965D01*
X-118498Y65969D01*
X-118512Y65972D01*
X-118523Y65975D01*
X-118534Y65978D01*
X-118547Y65984D01*
X-118561Y65988D01*
X-118571Y65993D01*
X-118581Y65998D01*
X-118594Y66005D01*
X-118607Y66011D01*
X-118616Y66017D01*
X-118626Y66023D01*
X-118638Y66032D01*
X-118650Y66040D01*
X-118658Y66047D01*
X-118667Y66054D01*
X-118678Y66064D01*
X-118689Y66074D01*
X-118696Y66082D01*
X-118704Y66090D01*
X-118713Y66102D01*
X-118723Y66113D01*
X-118729Y66122D01*
X-118736Y66131D01*
X-118743Y66143D01*
X-118751Y66155D01*
X-118756Y66166D01*
X-118762Y66176D01*
X-118768Y66189D01*
X-118774Y66202D01*
X-118778Y66213D01*
X-118782Y66223D01*
X-118786Y66237D01*
X-118791Y66251D01*
X-118793Y66262D01*
X-118796Y66273D01*
X-118798Y66287D01*
X-118801Y66301D01*
X-118801Y66313D01*
X-118803Y66324D01*
X-118803Y66338D01*
X-118804Y66353D01*
Y72652D01*
Y72652D01*
X-118803Y72669D01*
X-118803Y72686D01*
X-118801Y72695D01*
X-118801Y72703D01*
X-118797Y72720D01*
X-118795Y72737D01*
X-118792Y72745D01*
X-118791Y72754D01*
X-118785Y72770D01*
X-118780Y72787D01*
X-118777Y72795D01*
X-118774Y72803D01*
X-118766Y72818D01*
X-118760Y72834D01*
X-118755Y72841D01*
X-118751Y72849D01*
X-118742Y72864D01*
X-118733Y72878D01*
X-118728Y72885D01*
X-118723Y72892D01*
X-118711Y72905D01*
X-118701Y72918D01*
X-118694Y72924D01*
X-118689Y72931D01*
X-118676Y72942D01*
X-118663Y72954D01*
X-118657Y72959D01*
X-118650Y72965D01*
X-118635Y72975D01*
X-118622Y72985D01*
X-118614Y72989D01*
X-118607Y72994D01*
X-118591Y73001D01*
X-118577Y73010D01*
X-118569Y73013D01*
X-118561Y73017D01*
X-118544Y73022D01*
X-118528Y73028D01*
X-118520Y73030D01*
X-118512Y73033D01*
X-118495Y73036D01*
X-118478Y73040D01*
X-118470Y73041D01*
X-118461Y73043D01*
X-118444Y73044D01*
X-118427Y73046D01*
X-118419Y73046D01*
X-118410Y73046D01*
X-118392Y73045D01*
D02*
G37*
G36*
X37418Y76491D02*
X37427Y76491D01*
X37444Y76489D01*
X37461Y76488D01*
X37470Y76486D01*
X37478Y76485D01*
X37495Y76481D01*
X37512Y76478D01*
X37520Y76475D01*
X37528Y76473D01*
X37544Y76467D01*
X37561Y76461D01*
X37569Y76458D01*
X37576Y76454D01*
X37591Y76446D01*
X37607Y76439D01*
X37614Y76434D01*
X37622Y76429D01*
X37635Y76420D01*
X37650Y76410D01*
X37657Y76404D01*
X37663Y76399D01*
X37675Y76387D01*
X37689Y76376D01*
X37694Y76369D01*
X37701Y76363D01*
X37711Y76350D01*
X37723Y76337D01*
X37728Y76330D01*
X37733Y76323D01*
X37742Y76309D01*
X37751Y76294D01*
X37755Y76286D01*
X37760Y76279D01*
X37766Y76263D01*
X37774Y76248D01*
X37777Y76240D01*
X37780Y76232D01*
X37785Y76215D01*
X37791Y76199D01*
X37793Y76190D01*
X37795Y76182D01*
X37797Y76166D01*
X37801Y76148D01*
X37801Y76139D01*
X37803Y76131D01*
X37803Y76114D01*
X37804Y76097D01*
X37804Y69798D01*
X37803Y69783D01*
X37803Y69769D01*
X37802Y69757D01*
X37801Y69746D01*
X37798Y69732D01*
X37796Y69718D01*
X37793Y69707D01*
X37791Y69696D01*
X37786Y69682D01*
X37782Y69668D01*
X37778Y69657D01*
X37774Y69647D01*
X37768Y69634D01*
X37762Y69620D01*
X37756Y69611D01*
X37751Y69600D01*
X37743Y69588D01*
X37736Y69576D01*
X37729Y69567D01*
X37723Y69557D01*
X37713Y69547D01*
X37704Y69535D01*
X37696Y69527D01*
X37689Y69519D01*
X37678Y69509D01*
X37667Y69499D01*
X37658Y69492D01*
X37650Y69485D01*
X37638Y69477D01*
X37626Y69468D01*
X37616Y69462D01*
X37607Y69456D01*
X37594Y69450D01*
X37581Y69442D01*
X37571Y69438D01*
X37561Y69433D01*
X37547Y69428D01*
X37534Y69423D01*
X37522Y69420D01*
X37512Y69417D01*
X37498Y69414D01*
X37484Y69410D01*
X37472Y69409D01*
X37461Y69406D01*
X37447Y69406D01*
X37432Y69404D01*
X37421Y69404D01*
X37410Y69403D01*
X37395Y69404D01*
X37381Y69404D01*
X37096Y69425D01*
X37083Y69427D01*
X37070Y69428D01*
X37057Y69431D01*
X37045Y69432D01*
X37032Y69436D01*
X37020Y69438D01*
X36468Y69591D01*
X36456Y69595D01*
X36444Y69598D01*
X36432Y69603D01*
X36420Y69608D01*
X36408Y69613D01*
X36396Y69618D01*
X35886Y69875D01*
X35875Y69882D01*
X35863Y69888D01*
X35852Y69895D01*
X35841Y69902D01*
X35831Y69909D01*
X35820Y69917D01*
X35370Y70268D01*
X35360Y70277D01*
X35350Y70285D01*
X35341Y70294D01*
X35331Y70303D01*
X35322Y70312D01*
X35313Y70322D01*
X34940Y70754D01*
X34932Y70764D01*
X34924Y70774D01*
X34917Y70785D01*
X34909Y70795D01*
X34903Y70807D01*
X34895Y70818D01*
X34613Y71315D01*
X34608Y71326D01*
X34602Y71338D01*
X34597Y71350D01*
X34591Y71361D01*
X34587Y71373D01*
X34582Y71385D01*
X34403Y71928D01*
X34399Y71941D01*
X34395Y71953D01*
X34393Y71965D01*
X34390Y71978D01*
X34388Y71991D01*
X34386Y72004D01*
X34315Y72571D01*
X34315Y72584D01*
X34313Y72597D01*
X34313Y72610D01*
X34312Y72622D01*
X34313Y72635D01*
X34313Y72648D01*
X34332Y72902D01*
X34310Y73159D01*
X34310Y73172D01*
X34308Y73185D01*
X34309Y73198D01*
X34309Y73211D01*
X34310Y73224D01*
X34311Y73237D01*
X34374Y73814D01*
X34376Y73827D01*
X34378Y73840D01*
X34381Y73852D01*
X34383Y73865D01*
X34387Y73877D01*
X34390Y73890D01*
X34565Y74444D01*
X34570Y74456D01*
X34574Y74468D01*
X34579Y74480D01*
X34584Y74492D01*
X34590Y74503D01*
X34595Y74515D01*
X34875Y75024D01*
X34882Y75035D01*
X34888Y75046D01*
X34896Y75056D01*
X34903Y75067D01*
X34911Y75077D01*
X34919Y75087D01*
X35292Y75532D01*
X35301Y75541D01*
X35309Y75551D01*
X35319Y75560D01*
X35328Y75569D01*
X35338Y75577D01*
X35348Y75586D01*
X35801Y75949D01*
X35811Y75957D01*
X35821Y75965D01*
X35832Y75972D01*
X35843Y75979D01*
X35854Y75985D01*
X35866Y75992D01*
X36381Y76260D01*
X36393Y76265D01*
X36404Y76271D01*
X36416Y76275D01*
X36428Y76280D01*
X36440Y76284D01*
X36452Y76288D01*
X37010Y76451D01*
X37023Y76453D01*
X37035Y76457D01*
X37048Y76459D01*
X37060Y76462D01*
X37073Y76463D01*
X37086Y76465D01*
X37375Y76490D01*
X37392Y76490D01*
X37410Y76491D01*
X37418Y76491D01*
D02*
G37*
G36*
X38608Y76490D02*
X38625Y76490D01*
X38914Y76465D01*
X38927Y76463D01*
X38939Y76462D01*
X38952Y76459D01*
X38965Y76457D01*
X38977Y76453D01*
X38990Y76451D01*
X39548Y76288D01*
X39560Y76284D01*
X39572Y76280D01*
X39584Y76275D01*
X39596Y76271D01*
X39607Y76265D01*
X39619Y76260D01*
X40135Y75992D01*
X40146Y75985D01*
X40157Y75979D01*
X40168Y75972D01*
X40179Y75965D01*
X40189Y75957D01*
X40199Y75949D01*
X40652Y75586D01*
X40662Y75577D01*
X40672Y75569D01*
X40681Y75560D01*
X40690Y75551D01*
X40699Y75541D01*
X40708Y75532D01*
X41081Y75087D01*
X41089Y75077D01*
X41097Y75067D01*
X41104Y75056D01*
X41112Y75046D01*
X41118Y75035D01*
X41125Y75024D01*
X41405Y74515D01*
X41410Y74503D01*
X41416Y74492D01*
X41421Y74480D01*
X41426Y74468D01*
X41430Y74456D01*
X41435Y74444D01*
X41610Y73890D01*
X41613Y73877D01*
X41617Y73865D01*
X41619Y73852D01*
X41622Y73840D01*
X41624Y73827D01*
X41626Y73814D01*
X41689Y73237D01*
X41690Y73224D01*
X41691Y73211D01*
X41691Y73198D01*
X41692Y73185D01*
X41690Y73172D01*
X41690Y73159D01*
X41668Y72902D01*
X41686Y72648D01*
X41686Y72635D01*
X41688Y72622D01*
X41687Y72610D01*
X41687Y72597D01*
X41685Y72584D01*
X41684Y72571D01*
X41614Y72004D01*
X41612Y71991D01*
X41610Y71978D01*
X41607Y71965D01*
X41605Y71953D01*
X41601Y71941D01*
X41597Y71928D01*
X41418Y71385D01*
X41413Y71373D01*
X41409Y71361D01*
X41403Y71350D01*
X41399Y71338D01*
X41392Y71326D01*
X41387Y71315D01*
X41105Y70818D01*
X41097Y70807D01*
X41091Y70795D01*
X41083Y70785D01*
X41076Y70774D01*
X41068Y70764D01*
X41060Y70754D01*
X40687Y70322D01*
X40677Y70312D01*
X40669Y70303D01*
X40659Y70294D01*
X40650Y70285D01*
X40640Y70277D01*
X40630Y70268D01*
X40180Y69917D01*
X40169Y69909D01*
X40159Y69902D01*
X40148Y69895D01*
X40137Y69888D01*
X40126Y69882D01*
X40114Y69875D01*
X39604Y69618D01*
X39592Y69613D01*
X39580Y69608D01*
X39568Y69603D01*
X39556Y69598D01*
X39544Y69595D01*
X39531Y69591D01*
X38980Y69438D01*
X38968Y69436D01*
X38956Y69432D01*
X38943Y69431D01*
X38930Y69428D01*
X38917Y69427D01*
X38904Y69425D01*
X38619Y69404D01*
X38605Y69404D01*
X38590Y69403D01*
X38579Y69404D01*
X38568Y69404D01*
X38553Y69406D01*
X38539Y69406D01*
X38528Y69409D01*
X38517Y69410D01*
X38502Y69414D01*
X38488Y69417D01*
X38478Y69420D01*
X38467Y69423D01*
X38453Y69428D01*
X38439Y69433D01*
X38429Y69438D01*
X38419Y69442D01*
X38406Y69450D01*
X38393Y69456D01*
X38384Y69462D01*
X38374Y69468D01*
X38362Y69477D01*
X38350Y69485D01*
X38342Y69492D01*
X38333Y69499D01*
X38322Y69509D01*
X38311Y69519D01*
X38304Y69527D01*
X38296Y69535D01*
X38287Y69547D01*
X38277Y69557D01*
X38271Y69567D01*
X38264Y69576D01*
X38257Y69588D01*
X38249Y69600D01*
X38244Y69611D01*
X38238Y69620D01*
X38232Y69634D01*
X38226Y69647D01*
X38222Y69657D01*
X38218Y69668D01*
X38214Y69682D01*
X38209Y69696D01*
X38207Y69707D01*
X38204Y69718D01*
X38202Y69732D01*
X38199Y69746D01*
X38199Y69757D01*
X38197Y69769D01*
X38197Y69783D01*
X38196Y69798D01*
Y76097D01*
Y76097D01*
X38197Y76114D01*
X38197Y76131D01*
X38199Y76140D01*
X38199Y76148D01*
X38203Y76165D01*
X38205Y76182D01*
X38208Y76190D01*
X38209Y76199D01*
X38215Y76215D01*
X38219Y76232D01*
X38223Y76240D01*
X38226Y76248D01*
X38234Y76263D01*
X38240Y76279D01*
X38245Y76286D01*
X38249Y76294D01*
X38258Y76309D01*
X38267Y76323D01*
X38272Y76330D01*
X38277Y76337D01*
X38289Y76350D01*
X38299Y76363D01*
X38306Y76369D01*
X38311Y76376D01*
X38324Y76387D01*
X38337Y76399D01*
X38344Y76404D01*
X38350Y76410D01*
X38365Y76420D01*
X38378Y76429D01*
X38386Y76434D01*
X38393Y76439D01*
X38409Y76446D01*
X38423Y76454D01*
X38432Y76458D01*
X38439Y76461D01*
X38440Y76462D01*
X38456Y76467D01*
X38471Y76473D01*
X38480Y76475D01*
X38488Y76478D01*
X38505Y76481D01*
X38522Y76485D01*
X38530Y76486D01*
X38539Y76488D01*
X38556Y76489D01*
X38573Y76491D01*
X38581Y76491D01*
X38590Y76491D01*
X38608Y76490D01*
D02*
G37*
G36*
X256421Y77041D02*
X256432Y77041D01*
X256447Y77039D01*
X256461Y77038D01*
X256472Y77036D01*
X256484Y77035D01*
X256498Y77031D01*
X256512Y77028D01*
X256522Y77025D01*
X256534Y77022D01*
X256547Y77016D01*
X256561Y77012D01*
X256571Y77007D01*
X256581Y77002D01*
X256594Y76995D01*
X256607Y76989D01*
X256616Y76983D01*
X256626Y76977D01*
X256638Y76968D01*
X256650Y76960D01*
X256658Y76953D01*
X256667Y76946D01*
X256678Y76936D01*
X256689Y76926D01*
X256696Y76918D01*
X256704Y76910D01*
X256713Y76898D01*
X256723Y76887D01*
X256729Y76878D01*
X256736Y76869D01*
X256743Y76857D01*
X256751Y76845D01*
X256756Y76834D01*
X256762Y76824D01*
X256768Y76811D01*
X256774Y76798D01*
X256778Y76787D01*
X256782Y76777D01*
X256786Y76763D01*
X256791Y76749D01*
X256793Y76738D01*
X256796Y76727D01*
X256798Y76713D01*
X256801Y76699D01*
X256802Y76687D01*
X256803Y76676D01*
X256803Y76662D01*
X256804Y76647D01*
X256804Y70348D01*
X256803Y70331D01*
X256803Y70314D01*
X256801Y70305D01*
X256801Y70297D01*
X256797Y70279D01*
X256795Y70263D01*
X256792Y70255D01*
X256791Y70246D01*
X256785Y70229D01*
X256780Y70213D01*
X256777Y70205D01*
X256774Y70197D01*
X256767Y70182D01*
X256760Y70166D01*
X256755Y70159D01*
X256754Y70157D01*
X256751Y70151D01*
X256742Y70136D01*
X256733Y70122D01*
X256728Y70115D01*
X256723Y70108D01*
X256711Y70095D01*
X256701Y70082D01*
X256694Y70076D01*
X256689Y70069D01*
X256676Y70058D01*
X256663Y70046D01*
X256656Y70041D01*
X256650Y70035D01*
X256635Y70025D01*
X256622Y70015D01*
X256614Y70011D01*
X256607Y70006D01*
X256591Y69999D01*
X256576Y69990D01*
X256569Y69987D01*
X256561Y69984D01*
X256544Y69978D01*
X256528Y69972D01*
X256520Y69970D01*
X256512Y69967D01*
X256495Y69964D01*
X256478Y69959D01*
X256470Y69959D01*
X256461Y69957D01*
X256444Y69956D01*
X256427Y69954D01*
X256418Y69954D01*
X256410Y69954D01*
X256410D01*
X256393Y69955D01*
X256375Y69955D01*
X256086Y69980D01*
X256073Y69982D01*
X256061Y69983D01*
X256048Y69986D01*
X256035Y69988D01*
X256023Y69991D01*
X256010Y69994D01*
X255452Y70157D01*
X255440Y70161D01*
X255428Y70165D01*
X255416Y70170D01*
X255404Y70174D01*
X255393Y70180D01*
X255381Y70185D01*
X254866Y70453D01*
X254854Y70460D01*
X254843Y70466D01*
X254832Y70473D01*
X254821Y70480D01*
X254811Y70488D01*
X254801Y70495D01*
X254348Y70859D01*
X254338Y70868D01*
X254328Y70876D01*
X254319Y70885D01*
X254310Y70894D01*
X254301Y70903D01*
X254292Y70913D01*
X253919Y71357D01*
X253911Y71368D01*
X253903Y71378D01*
X253896Y71389D01*
X253888Y71399D01*
X253882Y71410D01*
X253875Y71421D01*
X253595Y71930D01*
X253590Y71942D01*
X253584Y71953D01*
X253579Y71965D01*
X253574Y71977D01*
X253570Y71989D01*
X253565Y72001D01*
X253390Y72555D01*
X253387Y72568D01*
X253383Y72580D01*
X253381Y72593D01*
X253378Y72605D01*
X253376Y72618D01*
X253374Y72631D01*
X253311Y73208D01*
X253310Y73221D01*
X253309Y73234D01*
X253309Y73247D01*
X253308Y73260D01*
X253309Y73273D01*
X253310Y73285D01*
X253332Y73543D01*
X253313Y73797D01*
X253313Y73810D01*
X253312Y73822D01*
X253313Y73835D01*
X253313Y73848D01*
X253315Y73861D01*
X253315Y73874D01*
X253386Y74441D01*
X253388Y74454D01*
X253390Y74467D01*
X253393Y74479D01*
X253395Y74492D01*
X253399Y74504D01*
X253403Y74517D01*
X253582Y75059D01*
X253587Y75071D01*
X253591Y75084D01*
X253597Y75095D01*
X253602Y75107D01*
X253608Y75118D01*
X253613Y75130D01*
X253895Y75627D01*
X253903Y75638D01*
X253909Y75649D01*
X253917Y75660D01*
X253924Y75671D01*
X253932Y75680D01*
X253940Y75691D01*
X254313Y76123D01*
X254323Y76133D01*
X254331Y76142D01*
X254341Y76151D01*
X254350Y76160D01*
X254360Y76168D01*
X254369Y76177D01*
X254820Y76528D01*
X254831Y76535D01*
X254841Y76543D01*
X254852Y76550D01*
X254863Y76557D01*
X254874Y76563D01*
X254886Y76570D01*
X255396Y76826D01*
X255408Y76832D01*
X255420Y76837D01*
X255432Y76841D01*
X255444Y76846D01*
X255456Y76850D01*
X255469Y76854D01*
X256019Y77007D01*
X256032Y77009D01*
X256045Y77013D01*
X256057Y77014D01*
X256070Y77017D01*
X256083Y77018D01*
X256096Y77020D01*
X256381Y77041D01*
X256395Y77041D01*
X256410Y77042D01*
X256421Y77041D01*
D02*
G37*
G36*
X257605Y77041D02*
X257619Y77041D01*
X257904Y77020D01*
X257917Y77018D01*
X257930Y77017D01*
X257943Y77014D01*
X257956Y77013D01*
X257968Y77009D01*
X257980Y77007D01*
X258531Y76854D01*
X258544Y76850D01*
X258556Y76846D01*
X258568Y76841D01*
X258580Y76837D01*
X258592Y76832D01*
X258604Y76826D01*
X259114Y76570D01*
X259125Y76563D01*
X259137Y76557D01*
X259148Y76550D01*
X259159Y76543D01*
X259169Y76535D01*
X259180Y76528D01*
X259630Y76177D01*
X259640Y76168D01*
X259650Y76160D01*
X259659Y76151D01*
X259669Y76142D01*
X259677Y76133D01*
X259686Y76123D01*
X260060Y75691D01*
X260068Y75680D01*
X260076Y75671D01*
X260083Y75660D01*
X260091Y75649D01*
X260097Y75638D01*
X260105Y75627D01*
X260386Y75130D01*
X260392Y75118D01*
X260399Y75107D01*
X260403Y75095D01*
X260409Y75084D01*
X260413Y75071D01*
X260418Y75059D01*
X260597Y74517D01*
X260601Y74504D01*
X260605Y74492D01*
X260607Y74479D01*
X260610Y74467D01*
X260612Y74454D01*
X260614Y74441D01*
X260684Y73874D01*
X260685Y73861D01*
X260687Y73848D01*
X260687Y73835D01*
X260687Y73822D01*
X260686Y73810D01*
X260686Y73797D01*
X260668Y73543D01*
X260690Y73285D01*
X260690Y73273D01*
X260692Y73260D01*
X260691Y73247D01*
X260691Y73234D01*
X260690Y73221D01*
X260689Y73208D01*
X260626Y72631D01*
X260624Y72618D01*
X260622Y72605D01*
X260619Y72593D01*
X260617Y72580D01*
X260613Y72568D01*
X260610Y72555D01*
X260435Y72001D01*
X260430Y71989D01*
X260426Y71977D01*
X260421Y71965D01*
X260416Y71953D01*
X260410Y71942D01*
X260404Y71930D01*
X260125Y71421D01*
X260118Y71410D01*
X260112Y71399D01*
X260104Y71389D01*
X260097Y71378D01*
X260089Y71368D01*
X260081Y71357D01*
X259708Y70913D01*
X259699Y70903D01*
X259690Y70894D01*
X259681Y70885D01*
X259672Y70876D01*
X259662Y70868D01*
X259652Y70859D01*
X259199Y70495D01*
X259189Y70488D01*
X259179Y70480D01*
X259168Y70473D01*
X259157Y70466D01*
X259146Y70460D01*
X259135Y70453D01*
X258619Y70185D01*
X258607Y70180D01*
X258596Y70174D01*
X258584Y70170D01*
X258572Y70165D01*
X258560Y70161D01*
X258547Y70157D01*
X257990Y69994D01*
X257977Y69991D01*
X257965Y69988D01*
X257952Y69986D01*
X257940Y69983D01*
X257927Y69982D01*
X257914Y69980D01*
X257625Y69955D01*
X257607Y69955D01*
X257590Y69954D01*
X257582Y69954D01*
X257573Y69954D01*
X257556Y69956D01*
X257539Y69957D01*
X257530Y69959D01*
X257522Y69959D01*
X257505Y69964D01*
X257488Y69967D01*
X257480Y69970D01*
X257471Y69972D01*
X257456Y69978D01*
X257439Y69984D01*
X257432Y69987D01*
X257423Y69990D01*
X257408Y69999D01*
X257393Y70006D01*
X257386Y70011D01*
X257378Y70015D01*
X257365Y70025D01*
X257350Y70035D01*
X257344Y70041D01*
X257337Y70046D01*
X257324Y70058D01*
X257311Y70069D01*
X257306Y70076D01*
X257299Y70082D01*
X257289Y70095D01*
X257277Y70108D01*
X257273Y70115D01*
X257267Y70122D01*
X257258Y70136D01*
X257249Y70151D01*
X257246Y70157D01*
X257245Y70159D01*
X257240Y70166D01*
X257233Y70182D01*
X257226Y70197D01*
X257223Y70205D01*
X257220Y70213D01*
X257215Y70230D01*
X257209Y70246D01*
X257207Y70254D01*
X257205Y70263D01*
X257203Y70280D01*
X257199Y70297D01*
X257199Y70305D01*
X257197Y70314D01*
X257197Y70331D01*
X257196Y70348D01*
Y76647D01*
X257197Y76662D01*
X257197Y76676D01*
X257199Y76687D01*
X257199Y76699D01*
X257202Y76713D01*
X257204Y76727D01*
X257207Y76738D01*
X257209Y76749D01*
X257214Y76763D01*
X257218Y76777D01*
X257222Y76787D01*
X257226Y76798D01*
X257232Y76811D01*
X257238Y76824D01*
X257244Y76834D01*
X257249Y76845D01*
X257257Y76857D01*
X257264Y76869D01*
X257271Y76878D01*
X257277Y76887D01*
X257287Y76898D01*
X257296Y76910D01*
X257304Y76918D01*
X257311Y76926D01*
X257322Y76936D01*
X257333Y76946D01*
X257342Y76953D01*
X257350Y76960D01*
X257362Y76968D01*
X257374Y76977D01*
X257384Y76983D01*
X257393Y76989D01*
X257406Y76995D01*
X257419Y77002D01*
X257429Y77007D01*
X257439Y77012D01*
X257453Y77016D01*
X257467Y77022D01*
X257478Y77025D01*
X257488Y77028D01*
X257502Y77031D01*
X257517Y77035D01*
X257528Y77036D01*
X257539Y77038D01*
X257553Y77039D01*
X257568Y77041D01*
X257579Y77041D01*
X257590Y77042D01*
X257605Y77041D01*
D02*
G37*
D28*
X-250988Y40000D02*
D03*
X256988Y73500D02*
D03*
X38012Y72945D02*
D03*
X-118988Y69500D02*
D03*
D29*
X-253165Y40000D02*
D03*
X-248835D02*
D03*
X259165Y73500D02*
D03*
X254835D02*
D03*
X35835Y72945D02*
D03*
X40165D02*
D03*
X-121165Y69500D02*
D03*
X-116835D02*
D03*
D30*
X-170787Y41921D02*
D03*
X-164094D02*
D03*
X-12154Y216000D02*
D03*
X-18846D02*
D03*
X152347Y135047D02*
D03*
X145653D02*
D03*
D31*
X-163898Y32921D02*
D03*
X-170984D02*
D03*
X-216957Y59500D02*
D03*
X-224043D02*
D03*
X-216957Y76400D02*
D03*
X-224043D02*
D03*
X-216957Y93300D02*
D03*
X-224043D02*
D03*
X-216957Y110200D02*
D03*
X-224043D02*
D03*
X-216957Y127100D02*
D03*
X-224043D02*
D03*
X-216957Y144000D02*
D03*
X-224043D02*
D03*
X-64457Y43000D02*
D03*
X-71543D02*
D03*
X-103957Y42500D02*
D03*
X-111043D02*
D03*
X-44957Y152000D02*
D03*
X-52043D02*
D03*
X-44957Y173228D02*
D03*
X-52043D02*
D03*
X111043Y150358D02*
D03*
X103957D02*
D03*
X111043Y172169D02*
D03*
X103957D02*
D03*
X175957Y151500D02*
D03*
X183043D02*
D03*
X176457Y171500D02*
D03*
X183543D02*
D03*
D32*
X-225114Y32000D02*
D03*
X-201886D02*
D03*
D33*
X317500Y86500D02*
D03*
Y79807D02*
D03*
D34*
X274000Y72354D02*
D03*
X279000D02*
D03*
X284000D02*
D03*
X289000D02*
D03*
X294000D02*
D03*
X299000D02*
D03*
X304000D02*
D03*
X309000D02*
D03*
X274000Y91646D02*
D03*
X279000D02*
D03*
X284000D02*
D03*
X289000D02*
D03*
X294000D02*
D03*
X299000D02*
D03*
X304000D02*
D03*
X309000D02*
D03*
D35*
X158791Y88000D02*
D03*
Y93000D02*
D03*
Y98000D02*
D03*
Y103000D02*
D03*
Y108000D02*
D03*
Y113000D02*
D03*
Y118000D02*
D03*
Y123000D02*
D03*
X139500Y88000D02*
D03*
Y93000D02*
D03*
Y98000D02*
D03*
Y103000D02*
D03*
Y108000D02*
D03*
Y113000D02*
D03*
Y118000D02*
D03*
Y123000D02*
D03*
X-5854Y171000D02*
D03*
Y176000D02*
D03*
Y181000D02*
D03*
Y186000D02*
D03*
Y191000D02*
D03*
Y196000D02*
D03*
Y201000D02*
D03*
Y206000D02*
D03*
X-25146Y171000D02*
D03*
Y176000D02*
D03*
Y181000D02*
D03*
Y186000D02*
D03*
Y191000D02*
D03*
Y196000D02*
D03*
Y201000D02*
D03*
Y206000D02*
D03*
D36*
X-280000Y25000D02*
D03*
Y255000D02*
D03*
X20000Y55000D02*
D03*
Y255000D02*
D03*
X342500D02*
D03*
Y55000D02*
D03*
D37*
X53500Y263500D02*
D03*
X343000Y101000D02*
D03*
X-89000Y9500D02*
D03*
X-108500D02*
D03*
X-69000D02*
D03*
D38*
X183874Y32000D02*
D03*
D39*
X176000D02*
D03*
D40*
X218319Y101284D02*
D03*
X229500Y106736D02*
D03*
Y117642D02*
D03*
Y128547D02*
D03*
Y139453D02*
D03*
Y150358D02*
D03*
Y161264D02*
D03*
Y172169D02*
D03*
X218319Y112189D02*
D03*
Y123094D02*
D03*
Y134000D02*
D03*
Y144905D02*
D03*
Y155811D02*
D03*
Y166717D02*
D03*
X62910Y101284D02*
D03*
X74090Y106736D02*
D03*
Y117642D02*
D03*
Y128547D02*
D03*
Y139453D02*
D03*
Y150358D02*
D03*
Y161264D02*
D03*
Y172169D02*
D03*
X62910Y112189D02*
D03*
Y123094D02*
D03*
Y134000D02*
D03*
Y144905D02*
D03*
Y155811D02*
D03*
Y166717D02*
D03*
X-92500Y101284D02*
D03*
X-81319Y106736D02*
D03*
Y117642D02*
D03*
Y128547D02*
D03*
Y139453D02*
D03*
Y150358D02*
D03*
Y161264D02*
D03*
Y172169D02*
D03*
X-92500Y112189D02*
D03*
Y123094D02*
D03*
Y134000D02*
D03*
Y144905D02*
D03*
Y155811D02*
D03*
Y166717D02*
D03*
X-256819Y97952D02*
D03*
Y108858D02*
D03*
Y119763D02*
D03*
Y130669D02*
D03*
X-268000Y92500D02*
D03*
Y103405D02*
D03*
Y114311D02*
D03*
Y125216D02*
D03*
X156500Y194000D02*
D03*
D41*
X229500Y95831D02*
D03*
X74090D02*
D03*
X-81319D02*
D03*
X-256819Y87047D02*
D03*
D42*
X223909Y199591D02*
D03*
X68500D02*
D03*
X-86910D02*
D03*
D43*
X223909Y68410D02*
D03*
X68500D02*
D03*
X-86910D02*
D03*
D44*
X-262409Y158070D02*
D03*
Y59645D02*
D03*
D45*
X-174000Y143000D02*
D03*
X-184000D02*
D03*
X-174000Y59500D02*
D03*
X-184000D02*
D03*
X-174000Y126300D02*
D03*
X-184000D02*
D03*
X-174000Y109600D02*
D03*
X-184000D02*
D03*
X-174000Y92900D02*
D03*
X-184000D02*
D03*
X-174000Y76200D02*
D03*
X-184000D02*
D03*
X-5000Y95000D02*
D03*
Y105000D02*
D03*
X193500Y166500D02*
D03*
X-5354Y115000D02*
D03*
Y125000D02*
D03*
X193500Y155667D02*
D03*
X311500Y112500D02*
D03*
Y53000D02*
D03*
X193500Y144833D02*
D03*
X301667Y112500D02*
D03*
Y53000D02*
D03*
X291833Y112500D02*
D03*
Y53000D02*
D03*
X193500Y134000D02*
D03*
X282000Y112500D02*
D03*
Y53000D02*
D03*
X-4500Y155000D02*
D03*
X336300Y5000D02*
D03*
X326300D02*
D03*
X316225D02*
D03*
X306150D02*
D03*
X296075D02*
D03*
X286000D02*
D03*
X38000Y137000D02*
D03*
Y126250D02*
D03*
X226300Y36000D02*
D03*
X38000Y115500D02*
D03*
Y104750D02*
D03*
Y94000D02*
D03*
X146300Y5000D02*
D03*
X136300D02*
D03*
X126300D02*
D03*
X116300D02*
D03*
X56300Y35000D02*
D03*
X46300D02*
D03*
X36300D02*
D03*
X26500D02*
D03*
X-118000Y166500D02*
D03*
Y155811D02*
D03*
Y145500D02*
D03*
Y134000D02*
D03*
Y112000D02*
D03*
D46*
X-194000Y143000D02*
D03*
Y59500D02*
D03*
Y126300D02*
D03*
Y109600D02*
D03*
Y92900D02*
D03*
Y76200D02*
D03*
D47*
X326300Y25000D02*
D03*
X336300D02*
D03*
X306300D02*
D03*
X326300Y15000D02*
D03*
X316300Y25000D02*
D03*
X286300D02*
D03*
X296300D02*
D03*
X276300D02*
D03*
X266300Y15000D02*
D03*
Y25000D02*
D03*
X336300Y15000D02*
D03*
X316300D02*
D03*
X276300D02*
D03*
X286300D02*
D03*
X256300D02*
D03*
X306300D02*
D03*
X296300D02*
D03*
X256300Y25000D02*
D03*
X246300D02*
D03*
X226300D02*
D03*
X236300D02*
D03*
X216300D02*
D03*
X246300Y15000D02*
D03*
X236300D02*
D03*
X226300D02*
D03*
X136300Y25000D02*
D03*
X146300D02*
D03*
X116300D02*
D03*
X136300Y15000D02*
D03*
X126300Y25000D02*
D03*
X96300D02*
D03*
X106300D02*
D03*
X86300D02*
D03*
X76300Y15000D02*
D03*
Y25000D02*
D03*
X146300Y15000D02*
D03*
X126300D02*
D03*
X86300D02*
D03*
X96300D02*
D03*
X66300D02*
D03*
X116300D02*
D03*
X106300D02*
D03*
X66300Y25000D02*
D03*
X56300D02*
D03*
X36300D02*
D03*
X46300D02*
D03*
X26300D02*
D03*
X56300Y15000D02*
D03*
X46300D02*
D03*
X36300D02*
D03*
X25000Y95000D02*
D03*
Y105000D02*
D03*
Y115000D02*
D03*
Y125000D02*
D03*
Y135000D02*
D03*
Y145000D02*
D03*
Y155000D02*
D03*
Y165000D02*
D03*
Y175000D02*
D03*
Y185000D02*
D03*
Y195000D02*
D03*
Y205000D02*
D03*
Y215000D02*
D03*
X15000Y95000D02*
D03*
Y105000D02*
D03*
Y115000D02*
D03*
Y125000D02*
D03*
Y135000D02*
D03*
Y145000D02*
D03*
Y155000D02*
D03*
Y165000D02*
D03*
Y175000D02*
D03*
Y185000D02*
D03*
Y195000D02*
D03*
Y205000D02*
D03*
D48*
X216300Y15000D02*
D03*
X26300D02*
D03*
D49*
X284957Y243000D02*
D03*
X-20102Y242500D02*
D03*
X-143272D02*
D03*
D50*
X271177Y243000D02*
D03*
X257398D02*
D03*
X216059D02*
D03*
X229839D02*
D03*
X202279D02*
D03*
X243618D02*
D03*
X174721Y243000D02*
D03*
X160941D02*
D03*
X188500Y243000D02*
D03*
X-116559Y242500D02*
D03*
X-102779D02*
D03*
X-75221D02*
D03*
X-47661D02*
D03*
X-33882D02*
D03*
X-61441D02*
D03*
X-89000D02*
D03*
X-239728D02*
D03*
X-225949D02*
D03*
X-198390D02*
D03*
X-170831D02*
D03*
X-157051D02*
D03*
X-184610D02*
D03*
X-212169D02*
D03*
X-268000Y194220D02*
D03*
Y208000D02*
D03*
D51*
X109500Y235252D02*
D03*
D52*
X89500D02*
D03*
D53*
X-268000Y221779D02*
D03*
D54*
X-63500Y31500D02*
D03*
X-73500D02*
D03*
X-103000Y31000D02*
D03*
X-113000D02*
D03*
D55*
X-214335Y209000D02*
D03*
X-204335D02*
D03*
X-214335Y189000D02*
D03*
X-204335D02*
D03*
X-194335Y209000D02*
D03*
Y189000D02*
D03*
X-174335D02*
D03*
D56*
Y209000D02*
D03*
D57*
X142720Y194000D02*
D03*
D58*
X15000Y215000D02*
D03*
D59*
X40007Y223425D02*
D03*
X-81595Y43110D02*
D03*
X33465Y213354D02*
D03*
X36614Y216240D02*
D03*
X39370Y219882D02*
D03*
X43406Y223228D02*
D03*
X47146Y225197D02*
D03*
X52000Y226500D02*
D03*
X-243500Y39959D02*
D03*
X-125500Y69459D02*
D03*
X263000Y73541D02*
D03*
X32500Y75460D02*
D03*
X101500Y54500D02*
D03*
X197300Y93300D02*
D03*
X195000Y99500D02*
D03*
X187500Y120500D02*
D03*
X186750Y115000D02*
D03*
X188500Y109000D02*
D03*
X185455Y103500D02*
D03*
X177000Y98000D02*
D03*
X178000Y66500D02*
D03*
X173736Y45264D02*
D03*
X168000Y43000D02*
D03*
X111000Y53500D02*
D03*
X162000Y57500D02*
D03*
X101000Y42500D02*
D03*
X71000Y54500D02*
D03*
X158791Y62000D02*
D03*
X-181941Y36921D02*
D03*
X0Y29000D02*
D03*
X314000Y91646D02*
D03*
X315354Y72354D02*
D03*
X158791Y129500D02*
D03*
X139500D02*
D03*
X-5854Y213354D02*
D03*
X-25146Y213000D02*
D03*
X-189500Y23000D02*
D03*
X-157441Y41921D02*
D03*
Y32921D02*
D03*
X6000Y83000D02*
D03*
X3500Y86500D02*
D03*
X8500Y155000D02*
D03*
X98500Y78000D02*
D03*
X96268Y89768D02*
D03*
X118000Y86000D02*
D03*
Y62500D02*
D03*
X115500Y83500D02*
D03*
Y59000D02*
D03*
X174500Y71000D02*
D03*
Y93300D02*
D03*
X-163000Y101284D02*
D03*
X-173500Y154500D02*
D03*
X261500Y49000D02*
D03*
X269000Y51500D02*
D03*
X65000Y231000D02*
D03*
X69000Y230000D02*
D03*
X130500Y102963D02*
D03*
X128000Y108358D02*
D03*
X125000Y119500D02*
D03*
X121500Y119000D02*
D03*
X63000Y234000D02*
D03*
X66500Y236500D02*
D03*
X111000Y144500D02*
D03*
X171000Y171500D02*
D03*
X178000Y144500D02*
D03*
X91000Y46500D02*
D03*
X165500Y82000D02*
D03*
Y36500D02*
D03*
X81000Y36000D02*
D03*
X102500Y164500D02*
D03*
X106000Y32500D02*
D03*
X-165500Y67500D02*
D03*
X4000Y181000D02*
D03*
X1925Y176000D02*
D03*
X-163000Y135000D02*
D03*
X-44500Y13000D02*
D03*
X-44957Y144457D02*
D03*
X-44500Y166000D02*
D03*
X-27000Y9500D02*
D03*
X1000Y7000D02*
D03*
Y170500D02*
D03*
X6000Y186000D02*
D03*
X3500Y210500D02*
D03*
Y191000D02*
D03*
X-34500Y186000D02*
D03*
Y211500D02*
D03*
X-38500Y191000D02*
D03*
Y208000D02*
D03*
X-42500Y196000D02*
D03*
Y205000D02*
D03*
X-236047Y144047D02*
D03*
Y87047D02*
D03*
X-229000Y119763D02*
D03*
X-229300Y93300D02*
D03*
X-242000Y77000D02*
D03*
X-248900Y127100D02*
D03*
X-216957Y52000D02*
D03*
Y69500D02*
D03*
Y87543D02*
D03*
Y104500D02*
D03*
Y121043D02*
D03*
Y138500D02*
D03*
M02*
