G04*
G04 #@! TF.GenerationSoftware,Altium Limited,Altium Designer,18.1.9 (240)*
G04*
G04 Layer_Physical_Order=1*
G04 Layer_Color=255*
%FSLAX25Y25*%
%MOIN*%
G70*
G01*
G75*
%ADD17C,0.00984*%
%ADD21R,0.00787X0.00787*%
%ADD22R,0.05118X0.05906*%
%ADD23R,0.04724X0.05512*%
%ADD24R,0.05118X0.13386*%
%ADD25R,0.05906X0.05118*%
%ADD26O,0.02756X0.09843*%
%ADD27O,0.09843X0.02756*%
%ADD38R,0.06102X0.06102*%
%ADD45C,0.07087*%
%ADD60C,0.01968*%
%ADD61C,0.03937*%
%ADD62C,0.23622*%
%ADD63R,0.05315X0.05315*%
%ADD64C,0.05315*%
%ADD65C,0.05906*%
%ADD66R,0.05906X0.05906*%
%ADD67O,0.19488X0.18898*%
%ADD68C,0.18898*%
%ADD69C,0.14567*%
%ADD70C,0.06299*%
%ADD71R,0.06299X0.06299*%
%ADD72C,0.06102*%
%ADD73R,0.08268X0.08268*%
%ADD74C,0.08268*%
%ADD75R,0.09449X0.09449*%
%ADD76C,0.09449*%
%ADD77R,0.08268X0.08268*%
%ADD78C,0.06500*%
%ADD79C,0.05937*%
%ADD80R,0.05937X0.05937*%
%ADD81R,0.05906X0.05906*%
%ADD82R,0.06102X0.06102*%
%ADD83C,0.02362*%
G36*
X-251590Y43152D02*
X-251590Y36853D01*
X-251875Y36874D01*
X-252426Y37026D01*
X-252937Y37283D01*
X-253388Y37634D01*
X-253761Y38067D01*
X-254043Y38564D01*
X-254223Y39107D01*
X-254293Y39674D01*
X-254272Y39959D01*
X-254297Y40249D01*
X-254234Y40826D01*
X-254059Y41380D01*
X-253779Y41889D01*
X-253406Y42333D01*
X-252953Y42697D01*
X-252437Y42965D01*
X-251880Y43127D01*
X-251590Y43152D01*
X-251590Y43152D01*
D02*
G37*
G36*
X-250410D02*
Y36853D01*
X-250125Y36874D01*
X-249574Y37026D01*
X-249063Y37283D01*
X-248612Y37634D01*
X-248239Y38067D01*
X-247957Y38564D01*
X-247777Y39107D01*
X-247707Y39674D01*
X-247728Y39959D01*
X-247703Y40249D01*
X-247766Y40826D01*
X-247941Y41380D01*
X-248221Y41889D01*
X-248594Y42333D01*
X-249047Y42697D01*
X-249563Y42965D01*
X-250120Y43127D01*
X-250410Y43152D01*
Y43152D01*
D02*
G37*
G36*
X-119590Y72652D02*
X-119590Y66353D01*
X-119875Y66374D01*
X-120426Y66526D01*
X-120937Y66783D01*
X-121388Y67134D01*
X-121761Y67567D01*
X-122043Y68064D01*
X-122223Y68607D01*
X-122293Y69174D01*
X-122272Y69459D01*
X-122297Y69749D01*
X-122234Y70326D01*
X-122059Y70880D01*
X-121779Y71389D01*
X-121406Y71833D01*
X-120952Y72197D01*
X-120437Y72465D01*
X-119880Y72627D01*
X-119590Y72652D01*
X-119590Y72652D01*
D02*
G37*
G36*
X-118410D02*
Y66353D01*
X-118125Y66374D01*
X-117574Y66526D01*
X-117063Y66783D01*
X-116612Y67134D01*
X-116239Y67567D01*
X-115957Y68064D01*
X-115777Y68607D01*
X-115707Y69174D01*
X-115728Y69459D01*
X-115703Y69749D01*
X-115766Y70326D01*
X-115941Y70880D01*
X-116221Y71389D01*
X-116594Y71833D01*
X-117048Y72197D01*
X-117563Y72465D01*
X-118120Y72627D01*
X-118410Y72652D01*
Y72652D01*
D02*
G37*
G36*
X37410Y76097D02*
X37410Y69798D01*
X37125Y69819D01*
X36574Y69971D01*
X36063Y70228D01*
X35612Y70579D01*
X35239Y71012D01*
X34957Y71509D01*
X34777Y72052D01*
X34707Y72619D01*
X34728Y72904D01*
X34703Y73194D01*
X34766Y73771D01*
X34941Y74325D01*
X35221Y74834D01*
X35594Y75278D01*
X36048Y75642D01*
X36563Y75910D01*
X37120Y76072D01*
X37410Y76097D01*
X37410Y76097D01*
D02*
G37*
G36*
X38590D02*
Y69798D01*
X38875Y69819D01*
X39426Y69971D01*
X39937Y70228D01*
X40388Y70579D01*
X40761Y71012D01*
X41043Y71509D01*
X41223Y72052D01*
X41293Y72619D01*
X41272Y72904D01*
X41297Y73194D01*
X41234Y73771D01*
X41059Y74325D01*
X40779Y74834D01*
X40406Y75278D01*
X39952Y75642D01*
X39437Y75910D01*
X38880Y76072D01*
X38590Y76097D01*
Y76097D01*
D02*
G37*
G36*
X256410Y70348D02*
X256410Y76647D01*
X256125Y76626D01*
X255574Y76474D01*
X255063Y76217D01*
X254612Y75866D01*
X254239Y75433D01*
X253957Y74936D01*
X253777Y74393D01*
X253707Y73826D01*
X253728Y73541D01*
X253728Y73541D01*
X253703Y73251D01*
X253766Y72674D01*
X253941Y72120D01*
X254221Y71611D01*
X254594Y71166D01*
X255047Y70803D01*
X255563Y70535D01*
X256120Y70373D01*
X256410Y70348D01*
X256410D01*
D02*
G37*
G36*
X257590D02*
Y76647D01*
X257875Y76626D01*
X258426Y76474D01*
X258937Y76217D01*
X259388Y75866D01*
X259761Y75433D01*
X260043Y74936D01*
X260223Y74393D01*
X260293Y73826D01*
X260272Y73541D01*
X260272Y73541D01*
X260297Y73251D01*
X260234Y72674D01*
X260059Y72120D01*
X259779Y71611D01*
X259406Y71166D01*
X258952Y70803D01*
X258437Y70535D01*
X257880Y70373D01*
X257590Y70348D01*
D01*
D02*
G37*
D17*
X40007Y223425D02*
X42468Y220965D01*
X37264Y228764D02*
X52938D01*
X35000Y226500D02*
X37264Y228764D01*
X52938D02*
X52965Y228736D01*
X-99000Y226500D02*
X35000D01*
X-102779Y230279D02*
X-99000Y226500D01*
X-102779Y230279D02*
Y242500D01*
X34000Y229500D02*
X35500Y231000D01*
X-65500Y229500D02*
X34000D01*
X32248Y231500D02*
X35012Y234264D01*
X-36661Y231500D02*
X32248D01*
X-47661Y242500D02*
X-36661Y231500D01*
X35012Y234264D02*
X62736D01*
X63000Y234000D01*
X-75221Y239220D02*
X-65500Y229500D01*
X35500Y231000D02*
X65000D01*
X33465Y213354D02*
X241531D01*
X230638Y216240D02*
X257398Y243000D01*
X36614Y216240D02*
X230638D01*
X39339Y211090D02*
X253047D01*
X38248Y210000D02*
X39339Y211090D01*
X22727Y210000D02*
X38248D01*
X253047Y211090D02*
X284957Y243000D01*
X241531Y213354D02*
X271177Y243000D01*
X39370Y219882D02*
X39862Y219390D01*
X220008D01*
X243618Y243000D01*
X207803Y220965D02*
X229839Y243000D01*
X42468Y220965D02*
X207803D01*
X43972Y222661D02*
X195721D01*
X43406Y223228D02*
X43972Y222661D01*
X195721D02*
X216059Y243000D01*
X48106Y224236D02*
X183516D01*
X47146Y225197D02*
X48106Y224236D01*
X183516D02*
X202279Y243000D01*
X52000Y226500D02*
X172000D01*
X188500Y243000D01*
X52965Y228736D02*
X67736D01*
X29000Y199500D02*
X30500Y198000D01*
X9000Y199500D02*
X29000D01*
X7500Y201000D02*
X9000Y199500D01*
X25000Y185000D02*
X28000D01*
X30500Y187500D01*
Y198000D01*
X20500Y190500D02*
X25000Y195000D01*
X9500Y190500D02*
X20500D01*
X32500Y75460D02*
X33320D01*
X269137Y51363D02*
X279000Y61227D01*
X268659Y51264D02*
X268848Y51075D01*
X43264Y51236D02*
X260535D01*
X39476Y55024D02*
X43264Y51236D01*
X39476Y55024D02*
Y63067D01*
X28023Y74520D02*
X39476Y63067D01*
X7989Y74520D02*
X28023D01*
X39264Y49236D02*
X269938D01*
X37901Y50599D02*
X39264Y49236D01*
X37901Y50599D02*
Y62415D01*
X27371Y72945D02*
X37901Y62415D01*
X8641Y72945D02*
X27371D01*
X98768Y71000D02*
X174500D01*
X87768Y82000D02*
X98768Y71000D01*
X9201Y82000D02*
X87768D01*
X177000Y98000D02*
X193127D01*
X158791D02*
X177000D01*
X98773Y66500D02*
X178000D01*
X86332Y78941D02*
X98773Y66500D01*
X8370Y78941D02*
X86332D01*
X194627Y99500D02*
X195000D01*
X174500Y93300D02*
X197300D01*
X193127Y98000D02*
X194627Y99500D01*
X158791Y118000D02*
X161291Y120500D01*
X187500D01*
X184500Y112750D02*
X186750Y115000D01*
X159041Y112750D02*
X184500D01*
X158791Y108000D02*
X159791Y109000D01*
X188500D01*
X159291Y103500D02*
X185455D01*
X8354Y78925D02*
X8370Y78941D01*
X92236Y45264D02*
X173736D01*
X91000Y46500D02*
X92236Y45264D01*
X101500Y43000D02*
X168000D01*
X101000Y42500D02*
X101500Y43000D01*
X81000Y36000D02*
X165000D01*
X165500Y36500D01*
X111000Y53500D02*
X267500D01*
X260535Y51236D02*
X260562Y51264D01*
X268659D01*
X267500Y53500D02*
X274000Y60000D01*
Y72354D01*
X117000Y57500D02*
X162000D01*
X71000Y54500D02*
X101500D01*
X118500Y62000D02*
X158791D01*
Y103000D02*
X159291Y103500D01*
X213500Y89000D02*
Y103405D01*
X202000Y77500D02*
X213500Y89000D01*
Y103405D02*
X218319Y108224D01*
X99000Y77500D02*
X202000D01*
X98500Y78000D02*
X99000Y77500D01*
X115500Y59000D02*
X117000Y57500D01*
X118000Y62500D02*
X118500Y62000D01*
X36300Y10800D02*
Y15000D01*
X35000Y9500D02*
X36300Y10800D01*
X-27000Y9500D02*
X35000D01*
X-75117Y78925D02*
X8354D01*
X7701Y80500D02*
X9201Y82000D01*
X1273Y80500D02*
X7701D01*
X-1227Y83000D02*
X1273Y80500D01*
X6575Y83575D02*
X115425D01*
X6000Y83000D02*
X6575Y83575D01*
X1000Y83000D02*
X6000D01*
X-575Y84575D02*
X1000Y83000D01*
X-15456Y51075D02*
X7989Y74520D01*
X-149075Y51075D02*
X-15456D01*
X-14804Y49500D02*
X8641Y72945D01*
X-164000Y49500D02*
X-14804D01*
X115425Y83575D02*
X115500Y83500D01*
X3500Y86500D02*
X93400D01*
X93900Y86000D01*
X-1232Y89768D02*
X96268D01*
X-1882Y89118D02*
X-1232Y89768D01*
X-105391Y89118D02*
X-1882D01*
X-152848Y136575D02*
X-105391Y89118D01*
X2457Y87543D02*
X3500Y86500D01*
X93900Y86000D02*
X118000D01*
X-174000Y92900D02*
X-160041Y78941D01*
X-75132D02*
X-75117Y78925D01*
X-160041Y78941D02*
X-75132D01*
X4000Y196000D02*
X9500Y190500D01*
X-4500Y155000D02*
X8500D01*
X49500Y153307D02*
X62910Y166717D01*
X49500Y144047D02*
Y153307D01*
X42453Y137000D02*
X49500Y144047D01*
X52500Y145402D02*
X62910Y155811D01*
X52500Y137500D02*
Y145402D01*
X41250Y126250D02*
X52500Y137500D01*
X38000Y137000D02*
X42453D01*
X38000Y126250D02*
X41250D01*
X56000Y137996D02*
X62910Y144905D01*
X56000Y132500D02*
Y137996D01*
X39000Y115500D02*
X56000Y132500D01*
X38000Y115500D02*
X39000D01*
X56000Y127091D02*
X62910Y134000D01*
X56000Y122750D02*
Y127091D01*
X38000Y104750D02*
X56000Y122750D01*
X56189Y112189D02*
X62910D01*
X38000Y94000D02*
X56189Y112189D01*
X111378Y88264D02*
X139236D01*
X139500Y88000D01*
X82000Y117642D02*
X111378Y88264D01*
X117400Y62500D02*
X118000D01*
X159091Y93300D02*
X174500D01*
X-111500Y83000D02*
X-1227D01*
X-106575Y84575D02*
X-575D01*
X-148300Y126300D02*
X-106575Y84575D01*
X-129783Y101284D02*
X-111500Y83000D01*
X-106043Y87543D02*
X2457D01*
X-153500Y135000D02*
X-106043Y87543D01*
X-174000Y126300D02*
X-148300D01*
X-163000Y101284D02*
X-129783D01*
X-174000Y92900D02*
Y109600D01*
X218319Y108224D02*
Y112189D01*
X-155575Y136575D02*
X-152848D01*
X-173500Y154500D02*
X-155575Y136575D01*
X158791Y93000D02*
X159091Y93300D01*
X284000Y63298D02*
Y72354D01*
X269938Y49236D02*
X284000Y63298D01*
X158791Y113000D02*
X159041Y112750D01*
X67736Y228736D02*
X69000Y230000D01*
X130500Y102963D02*
X139463D01*
X139500Y103000D01*
X128000Y108000D02*
X139500D01*
X128000D02*
Y108358D01*
X125543Y113000D02*
X139500D01*
X127000Y118000D02*
X139500D01*
X125500Y119500D02*
X127000Y118000D01*
X121500Y117043D02*
X125543Y113000D01*
X121500Y117043D02*
Y119000D01*
X125000Y119500D02*
X125500D01*
X34264Y236764D02*
X66236D01*
X31000Y233500D02*
X34264Y236764D01*
X66236D02*
X66500Y236500D01*
X-11102Y233500D02*
X31000D01*
X-20102Y242500D02*
X-11102Y233500D01*
X-75221Y239220D02*
Y242500D01*
X111043Y144543D02*
Y150358D01*
X111000Y144500D02*
X111043Y144543D01*
Y165543D02*
Y172169D01*
X110000Y164500D02*
X111043Y165543D01*
X102500Y164500D02*
X110000D01*
X-47000Y224000D02*
X-34500Y211500D01*
X-132500Y224000D02*
X-47000D01*
X-143272Y234772D02*
X-132500Y224000D01*
X-52000Y221500D02*
X-38500Y208000D01*
X-159000Y221500D02*
X-52000D01*
X-170831Y233331D02*
X-159000Y221500D01*
X-198390Y221390D02*
Y242500D01*
Y221390D02*
X-195000Y218000D01*
X-55500D01*
X-42500Y205000D01*
X-60000Y215500D02*
X-45500Y201000D01*
X-212457Y215500D02*
X-60000D01*
X-225949Y228992D02*
X-212457Y215500D01*
X74090Y139453D02*
X79500D01*
X120953Y98000D01*
X139500D01*
X74090Y128547D02*
X79953D01*
X115500Y93000D01*
X139500D01*
X74090Y117642D02*
X82000D01*
X193500Y134000D02*
X218319D01*
X193500Y144833D02*
X193572Y144905D01*
X218319D01*
X193500Y155667D02*
X193644Y155811D01*
X218319D01*
X193500Y166500D02*
X193717Y166717D01*
X218319D01*
X229358Y150500D02*
X229500Y150358D01*
X188858Y150500D02*
X229358D01*
X187858Y151500D02*
X188858Y150500D01*
X183043Y151500D02*
X187858D01*
X184213Y172169D02*
X229500D01*
X183543Y171500D02*
X184213Y172169D01*
X176457Y171500D02*
X176457Y171500D01*
X171000Y171500D02*
X176457D01*
X175957Y146543D02*
Y151500D01*
Y146543D02*
X178000Y144500D01*
X158791Y88000D02*
X164000D01*
X165500Y86500D01*
Y82000D02*
Y86500D01*
X56300Y15000D02*
X61500Y20200D01*
Y31000D01*
X63000Y32500D01*
X106000D01*
X103957Y150358D02*
X103957Y150358D01*
X74090Y150358D02*
X103957D01*
X74090Y172169D02*
X74091Y172169D01*
X103957D01*
X-165500Y67500D02*
X-149075Y51075D01*
X-174000Y59500D02*
X-164000Y49500D01*
X-174000Y59500D02*
Y76200D01*
X279000Y61227D02*
Y72354D01*
X282000Y54000D02*
X289000Y61000D01*
Y72354D01*
X311500Y108405D02*
Y112500D01*
X304000Y100905D02*
X311500Y108405D01*
X304000Y91646D02*
Y100905D01*
X299000Y91646D02*
Y109833D01*
X301667Y112500D01*
X294000Y91646D02*
Y101833D01*
X291833Y104000D02*
X294000Y101833D01*
X291833Y104000D02*
Y112500D01*
X289000Y91646D02*
Y104000D01*
X282000Y111000D02*
X289000Y104000D01*
X282000Y111000D02*
Y112500D01*
Y53000D02*
Y54000D01*
X294000Y61000D02*
Y72354D01*
X291833Y58833D02*
X294000Y61000D01*
X291833Y53000D02*
Y58833D01*
X299000Y62500D02*
Y72354D01*
Y62500D02*
X301667Y59833D01*
Y53000D02*
Y59833D01*
X304000Y63000D02*
Y72354D01*
Y63000D02*
X311500Y55500D01*
Y53000D02*
Y55500D01*
X-92689Y112000D02*
X-92500Y112189D01*
X-118000Y112000D02*
X-92689D01*
X-118000Y134000D02*
X-92500D01*
X-118000Y145500D02*
X-117405Y144905D01*
X-92500D01*
X-118000Y155811D02*
X-92500D01*
X-118000Y166500D02*
X-117783Y166717D01*
X-92500D01*
X-5000Y95000D02*
X15000D01*
X-5000Y105000D02*
X15000D01*
X-5354Y115000D02*
X15000D01*
X-5354Y125000D02*
X15000D01*
X229500Y139453D02*
X247000D01*
X284000Y102453D01*
Y91646D02*
Y102453D01*
X279000Y91646D02*
Y102500D01*
X252953Y128547D02*
X279000Y102500D01*
X229500Y128547D02*
X252953D01*
X274000Y91646D02*
Y103000D01*
X259358Y117642D02*
X274000Y103000D01*
X229500Y117642D02*
X259358D01*
X21652Y208925D02*
X22727Y210000D01*
X3500Y210500D02*
X21000D01*
X18925Y208925D02*
X21652D01*
X15000Y205000D02*
X18925Y208925D01*
X21000Y210500D02*
X25000Y214500D01*
X-5854Y201000D02*
X7500D01*
X-5854Y196000D02*
X4000D01*
X-163000Y135000D02*
X-153500D01*
X-5854Y181000D02*
X4000D01*
X-174000Y126300D02*
Y143000D01*
X-5854Y176000D02*
X1925D01*
X24300Y13000D02*
X26300Y15000D01*
X-44500Y13000D02*
X24300D01*
X-44957Y144457D02*
Y152000D01*
X-37575Y147925D02*
Y175925D01*
X-46047Y139453D02*
X-37575Y147925D01*
X-81319Y139453D02*
X-46047D01*
X-35500Y145500D02*
Y173382D01*
X-52453Y128547D02*
X-35500Y145500D01*
X-81319Y128547D02*
X-52453D01*
X-33500Y143500D02*
Y169382D01*
X-59358Y117642D02*
X-33500Y143500D01*
X-81319Y117642D02*
X-59358D01*
X-44957Y166457D02*
Y173228D01*
Y166457D02*
X-44500Y166000D01*
X1000Y7000D02*
X42500D01*
X46300Y10800D01*
X36000Y14700D02*
X36300Y15000D01*
X46300Y10800D02*
Y15000D01*
X-5354Y170500D02*
X1000D01*
X-5854Y171000D02*
X-5354Y170500D01*
X-5854Y186000D02*
X6000D01*
X25000Y214500D02*
Y215000D01*
X-5854Y191000D02*
X3500D01*
X-35500Y173382D02*
X-32882Y176000D01*
X-37575Y175925D02*
X-32500Y181000D01*
X-31882Y171000D02*
X-25146D01*
X-33500Y169382D02*
X-31882Y171000D01*
X-32882Y176000D02*
X-25146D01*
X-32500Y181000D02*
X-25146D01*
X-71500Y152000D02*
X-52043D01*
X-73142Y150358D02*
X-71500Y152000D01*
X-34500Y186000D02*
X-25146D01*
X-143272Y234772D02*
Y242500D01*
X-38500Y191000D02*
X-25146D01*
X-170831Y233331D02*
Y242500D01*
X-42500Y196000D02*
X-25146D01*
X-225949Y228992D02*
Y242500D01*
X-45500Y201000D02*
X-25146D01*
X-81319Y150358D02*
X-73142D01*
X-81319Y172169D02*
X-80260Y173228D01*
X-52043D01*
X-64457Y43000D02*
X-63500Y42043D01*
Y31500D02*
Y42043D01*
X-103957Y42500D02*
X-103000Y41543D01*
Y31000D02*
Y41543D01*
X-224043Y144000D02*
Y147547D01*
X-222590Y149000D01*
X-185500D01*
X-184000Y147500D01*
Y143000D02*
Y147500D01*
X-224043Y127100D02*
Y130957D01*
X-223000Y132000D01*
X-185500D01*
X-184000Y130500D01*
Y126300D02*
Y130500D01*
X-224043Y110200D02*
Y114043D01*
X-222087Y116000D01*
X-184500D01*
X-184000Y115500D01*
Y109600D02*
Y115500D01*
Y92900D02*
Y98500D01*
X-185500Y100000D02*
X-184000Y98500D01*
X-221500Y100000D02*
X-185500D01*
X-224043Y97457D02*
X-221500Y100000D01*
X-224043Y93300D02*
Y97457D01*
Y76400D02*
Y80457D01*
X-222500Y82000D01*
X-184000D01*
Y76200D02*
Y82000D01*
Y59500D02*
Y64500D01*
X-186000Y66500D02*
X-184000Y64500D01*
X-221587Y66500D02*
X-186000D01*
X-224043Y64043D02*
X-221587Y66500D01*
X-224043Y59500D02*
Y64043D01*
X-256819Y87047D02*
X-236047D01*
X-224090Y144047D02*
X-224043Y144000D01*
X-236047Y144047D02*
X-224090D01*
X-236047Y87047D02*
X-235953D01*
X-255477Y110200D02*
X-224043D01*
X-256819Y119763D02*
X-229000D01*
X-248900Y127100D02*
X-224043D01*
X-256819Y108858D02*
X-255477Y110200D01*
X-241400Y76400D02*
X-224043D01*
X-242000Y77000D02*
X-241400Y76400D01*
X-229300Y93300D02*
X-224043D01*
X-247000Y59500D02*
X-224043D01*
X-268000Y80500D02*
X-247000Y59500D01*
X-268000Y80500D02*
Y92500D01*
X-216957Y52000D02*
Y59000D01*
Y69500D02*
Y76100D01*
Y87543D02*
Y93200D01*
Y104500D02*
Y110300D01*
Y121043D02*
Y127400D01*
Y138500D02*
Y144500D01*
D21*
X-253165Y40000D02*
D03*
X-248835D02*
D03*
X259165Y73500D02*
D03*
X254835D02*
D03*
X35835Y72945D02*
D03*
X40165D02*
D03*
X-121165Y69500D02*
D03*
X-116835D02*
D03*
D22*
X-170787Y41921D02*
D03*
X-164094D02*
D03*
X-12154Y216000D02*
D03*
X-18846D02*
D03*
X152347Y135047D02*
D03*
X145653D02*
D03*
D23*
X-163898Y32921D02*
D03*
X-170984D02*
D03*
X-216957Y59500D02*
D03*
X-224043D02*
D03*
X-216957Y76400D02*
D03*
X-224043D02*
D03*
X-216957Y93300D02*
D03*
X-224043D02*
D03*
X-216957Y110200D02*
D03*
X-224043D02*
D03*
X-216957Y127100D02*
D03*
X-224043D02*
D03*
X-216957Y144000D02*
D03*
X-224043D02*
D03*
X-64457Y43000D02*
D03*
X-71543D02*
D03*
X-103957Y42500D02*
D03*
X-111043D02*
D03*
X-44957Y152000D02*
D03*
X-52043D02*
D03*
X-44957Y173228D02*
D03*
X-52043D02*
D03*
X111043Y150358D02*
D03*
X103957D02*
D03*
X111043Y172169D02*
D03*
X103957D02*
D03*
X175957Y151500D02*
D03*
X183043D02*
D03*
X176457Y171500D02*
D03*
X183543D02*
D03*
D24*
X-225114Y32000D02*
D03*
X-201886D02*
D03*
D25*
X317500Y86500D02*
D03*
Y79807D02*
D03*
D26*
X274000Y72354D02*
D03*
X279000D02*
D03*
X284000D02*
D03*
X289000D02*
D03*
X294000D02*
D03*
X299000D02*
D03*
X304000D02*
D03*
X309000D02*
D03*
X274000Y91646D02*
D03*
X279000D02*
D03*
X284000D02*
D03*
X289000D02*
D03*
X294000D02*
D03*
X299000D02*
D03*
X304000D02*
D03*
X309000D02*
D03*
D27*
X158791Y88000D02*
D03*
Y93000D02*
D03*
Y98000D02*
D03*
Y103000D02*
D03*
Y108000D02*
D03*
Y113000D02*
D03*
Y118000D02*
D03*
Y123000D02*
D03*
X139500Y88000D02*
D03*
Y93000D02*
D03*
Y98000D02*
D03*
Y103000D02*
D03*
Y108000D02*
D03*
Y113000D02*
D03*
Y118000D02*
D03*
Y123000D02*
D03*
X-5854Y171000D02*
D03*
Y176000D02*
D03*
Y181000D02*
D03*
Y186000D02*
D03*
Y191000D02*
D03*
Y196000D02*
D03*
Y201000D02*
D03*
Y206000D02*
D03*
X-25146Y171000D02*
D03*
Y176000D02*
D03*
Y181000D02*
D03*
Y186000D02*
D03*
Y191000D02*
D03*
Y196000D02*
D03*
Y201000D02*
D03*
Y206000D02*
D03*
D38*
X216300Y15000D02*
D03*
X26300D02*
D03*
D45*
X53500Y263500D02*
D03*
X343000Y101000D02*
D03*
X-89000Y9500D02*
D03*
X-108500D02*
D03*
X-69000D02*
D03*
D60*
X-81595Y43110D02*
X-81484Y43000D01*
X-71543D01*
X-243541Y40000D02*
X-243500Y39959D01*
X-248835Y40000D02*
X-243541D01*
X-262409Y59645D02*
X-257500Y54736D01*
Y44335D02*
Y54736D01*
Y44335D02*
X-253165Y40000D01*
X-125500Y69459D02*
X-125460Y69500D01*
X-121165D01*
X-88000D02*
X-86910Y68410D01*
X-116835Y69500D02*
X-88000D01*
X223909Y68410D02*
X236049D01*
X241139Y73500D01*
X254835D01*
X262960D02*
X263000Y73541D01*
X259165Y73500D02*
X262960D01*
X55090Y68410D02*
X68500D01*
X50555Y72945D02*
X55090Y68410D01*
X40165Y72945D02*
X50555D01*
X33320Y75460D02*
X35835Y72945D01*
X317500Y74500D02*
Y79807D01*
X315354Y72354D02*
X317500Y74500D01*
X309000Y72354D02*
X315354D01*
X309000Y91646D02*
X316354D01*
X317500Y90500D01*
Y86500D02*
Y90500D01*
X139500Y123000D02*
Y133472D01*
X141075Y135047D01*
X145653D01*
X152347D02*
X156953D01*
X158791Y133209D01*
Y123000D02*
Y133209D01*
X-12154Y216000D02*
X-8500D01*
X-5854Y213354D01*
Y206000D02*
Y213354D01*
X-25146Y206000D02*
Y213929D01*
X-23075Y216000D01*
X-18846D01*
X-71543Y43000D02*
X-71543Y43000D01*
X-189500Y23000D02*
Y29500D01*
X-192000Y32000D02*
X-189500Y29500D01*
X-201886Y32000D02*
X-192000D01*
X-122500Y23500D02*
X-108500Y9500D01*
X-122500Y23500D02*
Y38000D01*
X-118000Y42500D01*
X-111043D01*
X-164094Y41921D02*
X-157441D01*
X-157441Y32921D02*
X-157441Y32921D01*
X-163898Y32921D02*
X-157441D01*
X-177941D02*
X-170984D01*
X-181941Y36921D02*
X-177941Y32921D01*
X-176941Y41921D02*
X-170787D01*
X-181941Y36921D02*
X-176941Y41921D01*
X-256000Y32000D02*
X-225114D01*
X-278000Y54000D02*
X-256000Y32000D01*
X-278000Y54000D02*
Y111000D01*
X-274689Y114311D01*
X-268000D01*
D61*
X-194335Y203165D02*
Y209000D01*
X-197500Y200000D02*
X-194335Y203165D01*
X-229000Y200000D02*
X-197500D01*
X-234780Y194220D02*
X-229000Y200000D01*
X-268000Y194220D02*
X-234780D01*
X-268000Y221779D02*
X-246280D01*
X-233500Y209000D01*
X-214335D01*
D62*
X-280000Y25000D02*
D03*
Y255000D02*
D03*
X20000Y55000D02*
D03*
Y255000D02*
D03*
X342500D02*
D03*
Y55000D02*
D03*
D63*
X183874Y32000D02*
D03*
D64*
X176000D02*
D03*
D65*
X218319Y101284D02*
D03*
X229500Y106736D02*
D03*
Y117642D02*
D03*
Y128547D02*
D03*
Y139453D02*
D03*
Y150358D02*
D03*
Y161264D02*
D03*
Y172169D02*
D03*
X218319Y112189D02*
D03*
Y123094D02*
D03*
Y134000D02*
D03*
Y144905D02*
D03*
Y155811D02*
D03*
Y166717D02*
D03*
X62910Y101284D02*
D03*
X74090Y106736D02*
D03*
Y117642D02*
D03*
Y128547D02*
D03*
Y139453D02*
D03*
Y150358D02*
D03*
Y161264D02*
D03*
Y172169D02*
D03*
X62910Y112189D02*
D03*
Y123094D02*
D03*
Y134000D02*
D03*
Y144905D02*
D03*
Y155811D02*
D03*
Y166717D02*
D03*
X-92500Y101284D02*
D03*
X-81319Y106736D02*
D03*
Y117642D02*
D03*
Y128547D02*
D03*
Y139453D02*
D03*
Y150358D02*
D03*
Y161264D02*
D03*
Y172169D02*
D03*
X-92500Y112189D02*
D03*
Y123094D02*
D03*
Y134000D02*
D03*
Y144905D02*
D03*
Y155811D02*
D03*
Y166717D02*
D03*
X-256819Y97952D02*
D03*
Y108858D02*
D03*
Y119763D02*
D03*
Y130669D02*
D03*
X-268000Y92500D02*
D03*
Y103405D02*
D03*
Y114311D02*
D03*
Y125216D02*
D03*
X156500Y194000D02*
D03*
D66*
X229500Y95831D02*
D03*
X74090D02*
D03*
X-81319D02*
D03*
X-256819Y87047D02*
D03*
D67*
X223909Y199591D02*
D03*
X68500D02*
D03*
X-86910D02*
D03*
D68*
X223909Y68410D02*
D03*
X68500D02*
D03*
X-86910D02*
D03*
D69*
X-262409Y158070D02*
D03*
Y59645D02*
D03*
D70*
X-174000Y143000D02*
D03*
X-184000D02*
D03*
X-174000Y59500D02*
D03*
X-184000D02*
D03*
X-174000Y126300D02*
D03*
X-184000D02*
D03*
X-174000Y109600D02*
D03*
X-184000D02*
D03*
X-174000Y92900D02*
D03*
X-184000D02*
D03*
X-174000Y76200D02*
D03*
X-184000D02*
D03*
X-5000Y95000D02*
D03*
Y105000D02*
D03*
X193500Y166500D02*
D03*
X-5354Y115000D02*
D03*
Y125000D02*
D03*
X193500Y155667D02*
D03*
X311500Y112500D02*
D03*
Y53000D02*
D03*
X193500Y144833D02*
D03*
X301667Y112500D02*
D03*
Y53000D02*
D03*
X291833Y112500D02*
D03*
Y53000D02*
D03*
X193500Y134000D02*
D03*
X282000Y112500D02*
D03*
Y53000D02*
D03*
X-4500Y155000D02*
D03*
X336300Y5000D02*
D03*
X326300D02*
D03*
X316225D02*
D03*
X306150D02*
D03*
X296075D02*
D03*
X286000D02*
D03*
X38000Y137000D02*
D03*
Y126250D02*
D03*
X226300Y36000D02*
D03*
X38000Y115500D02*
D03*
Y104750D02*
D03*
Y94000D02*
D03*
X146300Y5000D02*
D03*
X136300D02*
D03*
X126300D02*
D03*
X116300D02*
D03*
X56300Y35000D02*
D03*
X46300D02*
D03*
X36300D02*
D03*
X26500D02*
D03*
X-118000Y166500D02*
D03*
Y155811D02*
D03*
Y145500D02*
D03*
Y134000D02*
D03*
Y112000D02*
D03*
D71*
X-194000Y143000D02*
D03*
Y59500D02*
D03*
Y126300D02*
D03*
Y109600D02*
D03*
Y92900D02*
D03*
Y76200D02*
D03*
D72*
X326300Y25000D02*
D03*
X336300D02*
D03*
X306300D02*
D03*
X326300Y15000D02*
D03*
X316300Y25000D02*
D03*
X286300D02*
D03*
X296300D02*
D03*
X276300D02*
D03*
X266300Y15000D02*
D03*
Y25000D02*
D03*
X336300Y15000D02*
D03*
X316300D02*
D03*
X276300D02*
D03*
X286300D02*
D03*
X256300D02*
D03*
X306300D02*
D03*
X296300D02*
D03*
X256300Y25000D02*
D03*
X246300D02*
D03*
X226300D02*
D03*
X236300D02*
D03*
X216300D02*
D03*
X246300Y15000D02*
D03*
X236300D02*
D03*
X226300D02*
D03*
X136300Y25000D02*
D03*
X146300D02*
D03*
X116300D02*
D03*
X136300Y15000D02*
D03*
X126300Y25000D02*
D03*
X96300D02*
D03*
X106300D02*
D03*
X86300D02*
D03*
X76300Y15000D02*
D03*
Y25000D02*
D03*
X146300Y15000D02*
D03*
X126300D02*
D03*
X86300D02*
D03*
X96300D02*
D03*
X66300D02*
D03*
X116300D02*
D03*
X106300D02*
D03*
X66300Y25000D02*
D03*
X56300D02*
D03*
X36300D02*
D03*
X46300D02*
D03*
X26300D02*
D03*
X56300Y15000D02*
D03*
X46300D02*
D03*
X36300D02*
D03*
X25000Y95000D02*
D03*
Y105000D02*
D03*
Y115000D02*
D03*
Y125000D02*
D03*
Y135000D02*
D03*
Y145000D02*
D03*
Y155000D02*
D03*
Y165000D02*
D03*
Y175000D02*
D03*
Y185000D02*
D03*
Y195000D02*
D03*
Y205000D02*
D03*
Y215000D02*
D03*
X15000Y95000D02*
D03*
Y105000D02*
D03*
Y115000D02*
D03*
Y125000D02*
D03*
Y135000D02*
D03*
Y145000D02*
D03*
Y155000D02*
D03*
Y165000D02*
D03*
Y175000D02*
D03*
Y185000D02*
D03*
Y195000D02*
D03*
Y205000D02*
D03*
D73*
X284957Y243000D02*
D03*
X-20102Y242500D02*
D03*
X-143272D02*
D03*
D74*
X271177Y243000D02*
D03*
X257398D02*
D03*
X216059D02*
D03*
X229839D02*
D03*
X202279D02*
D03*
X243618D02*
D03*
X174721Y243000D02*
D03*
X160941D02*
D03*
X188500Y243000D02*
D03*
X-116559Y242500D02*
D03*
X-102779D02*
D03*
X-75221D02*
D03*
X-47661D02*
D03*
X-33882D02*
D03*
X-61441D02*
D03*
X-89000D02*
D03*
X-239728D02*
D03*
X-225949D02*
D03*
X-198390D02*
D03*
X-170831D02*
D03*
X-157051D02*
D03*
X-184610D02*
D03*
X-212169D02*
D03*
X-268000Y194220D02*
D03*
Y208000D02*
D03*
D75*
X109500Y235252D02*
D03*
D76*
X89500D02*
D03*
D77*
X-268000Y221779D02*
D03*
D78*
X-63500Y31500D02*
D03*
X-73500D02*
D03*
X-103000Y31000D02*
D03*
X-113000D02*
D03*
D79*
X-214335Y209000D02*
D03*
X-204335D02*
D03*
X-214335Y189000D02*
D03*
X-204335D02*
D03*
X-194335Y209000D02*
D03*
Y189000D02*
D03*
X-174335D02*
D03*
D80*
Y209000D02*
D03*
D81*
X142720Y194000D02*
D03*
D82*
X15000Y215000D02*
D03*
D83*
X40007Y223425D02*
D03*
X-81595Y43110D02*
D03*
X33465Y213354D02*
D03*
X36614Y216240D02*
D03*
X39370Y219882D02*
D03*
X43406Y223228D02*
D03*
X47146Y225197D02*
D03*
X52000Y226500D02*
D03*
X-243500Y39959D02*
D03*
X-125500Y69459D02*
D03*
X263000Y73541D02*
D03*
X32500Y75460D02*
D03*
X101500Y54500D02*
D03*
X197300Y93300D02*
D03*
X195000Y99500D02*
D03*
X187500Y120500D02*
D03*
X186750Y115000D02*
D03*
X188500Y109000D02*
D03*
X185455Y103500D02*
D03*
X177000Y98000D02*
D03*
X178000Y66500D02*
D03*
X173736Y45264D02*
D03*
X168000Y43000D02*
D03*
X111000Y53500D02*
D03*
X162000Y57500D02*
D03*
X101000Y42500D02*
D03*
X71000Y54500D02*
D03*
X158791Y62000D02*
D03*
X-181941Y36921D02*
D03*
X0Y29000D02*
D03*
X314000Y91646D02*
D03*
X315354Y72354D02*
D03*
X158791Y129500D02*
D03*
X139500D02*
D03*
X-5854Y213354D02*
D03*
X-25146Y213000D02*
D03*
X-189500Y23000D02*
D03*
X-157441Y41921D02*
D03*
Y32921D02*
D03*
X6000Y83000D02*
D03*
X3500Y86500D02*
D03*
X8500Y155000D02*
D03*
X98500Y78000D02*
D03*
X96268Y89768D02*
D03*
X118000Y86000D02*
D03*
Y62500D02*
D03*
X115500Y83500D02*
D03*
Y59000D02*
D03*
X174500Y71000D02*
D03*
Y93300D02*
D03*
X-163000Y101284D02*
D03*
X-173500Y154500D02*
D03*
X261500Y49000D02*
D03*
X269000Y51500D02*
D03*
X65000Y231000D02*
D03*
X69000Y230000D02*
D03*
X130500Y102963D02*
D03*
X128000Y108358D02*
D03*
X125000Y119500D02*
D03*
X121500Y119000D02*
D03*
X63000Y234000D02*
D03*
X66500Y236500D02*
D03*
X111000Y144500D02*
D03*
X171000Y171500D02*
D03*
X178000Y144500D02*
D03*
X91000Y46500D02*
D03*
X165500Y82000D02*
D03*
Y36500D02*
D03*
X81000Y36000D02*
D03*
X102500Y164500D02*
D03*
X106000Y32500D02*
D03*
X-165500Y67500D02*
D03*
X4000Y181000D02*
D03*
X1925Y176000D02*
D03*
X-163000Y135000D02*
D03*
X-44500Y13000D02*
D03*
X-44957Y144457D02*
D03*
X-44500Y166000D02*
D03*
X-27000Y9500D02*
D03*
X1000Y7000D02*
D03*
Y170500D02*
D03*
X6000Y186000D02*
D03*
X3500Y210500D02*
D03*
Y191000D02*
D03*
X-34500Y186000D02*
D03*
Y211500D02*
D03*
X-38500Y191000D02*
D03*
Y208000D02*
D03*
X-42500Y196000D02*
D03*
Y205000D02*
D03*
X-236047Y144047D02*
D03*
Y87047D02*
D03*
X-229000Y119763D02*
D03*
X-229300Y93300D02*
D03*
X-242000Y77000D02*
D03*
X-248900Y127100D02*
D03*
X-216957Y52000D02*
D03*
Y69500D02*
D03*
Y87543D02*
D03*
Y104500D02*
D03*
Y121043D02*
D03*
Y138500D02*
D03*
M02*
