G04*
G04 #@! TF.GenerationSoftware,Altium Limited,Altium Designer,18.1.9 (240)*
G04*
G04 Layer_Color=128*
%FSLAX25Y25*%
%MOIN*%
G70*
G01*
G75*
%ADD96C,0.00200*%
D96*
X-288071Y25000D02*
X-271929D01*
X-280000Y16929D02*
Y33071D01*
X51531Y263500D02*
X55468D01*
X53500Y261531D02*
Y265469D01*
X341032Y101000D02*
X344969D01*
X343000Y99032D02*
Y102969D01*
X182299Y32000D02*
X185449D01*
X183874Y30425D02*
Y33575D01*
X174425Y32000D02*
X177575D01*
X176000Y30425D02*
Y33575D01*
X216350Y101284D02*
X220287D01*
X218319Y99315D02*
Y103252D01*
X227532Y95831D02*
X231469D01*
X229500Y93862D02*
Y97799D01*
X227532Y106736D02*
X231469D01*
X229500Y104768D02*
Y108705D01*
X227532Y117642D02*
X231469D01*
X229500Y115673D02*
Y119610D01*
X227532Y128547D02*
X231469D01*
X229500Y126579D02*
Y130516D01*
X227532Y139453D02*
X231469D01*
X229500Y137484D02*
Y141421D01*
X217610Y199591D02*
X230209D01*
X223909Y193291D02*
Y205890D01*
X217610Y68410D02*
X230209D01*
X223909Y62110D02*
Y74709D01*
X227532Y150358D02*
X231469D01*
X229500Y148390D02*
Y152327D01*
X227532Y161264D02*
X231469D01*
X229500Y159295D02*
Y163232D01*
X227532Y172169D02*
X231469D01*
X229500Y170201D02*
Y174138D01*
X216350Y112189D02*
X220287D01*
X218319Y110221D02*
Y114157D01*
X216350Y123094D02*
X220287D01*
X218319Y121126D02*
Y125063D01*
X216350Y134000D02*
X220287D01*
X218319Y132032D02*
Y135968D01*
X216350Y144905D02*
X220287D01*
X218319Y142937D02*
Y146874D01*
X216350Y155811D02*
X220287D01*
X218319Y153842D02*
Y157780D01*
X216350Y166717D02*
X220287D01*
X218319Y164748D02*
Y168685D01*
X60941Y101284D02*
X64878D01*
X62910Y99315D02*
Y103252D01*
X72122Y95831D02*
X76059D01*
X74090Y93862D02*
Y97799D01*
X72122Y106736D02*
X76059D01*
X74090Y104768D02*
Y108705D01*
X72122Y117642D02*
X76059D01*
X74090Y115673D02*
Y119610D01*
X72122Y128547D02*
X76059D01*
X74090Y126579D02*
Y130516D01*
X72122Y139453D02*
X76059D01*
X74090Y137484D02*
Y141421D01*
X62201Y199591D02*
X74799D01*
X68500Y193291D02*
Y205890D01*
X62201Y68410D02*
X74799D01*
X68500Y62110D02*
Y74709D01*
X72122Y150358D02*
X76059D01*
X74090Y148390D02*
Y152327D01*
X72122Y161264D02*
X76059D01*
X74090Y159295D02*
Y163232D01*
X72122Y172169D02*
X76059D01*
X74090Y170201D02*
Y174138D01*
X60941Y112189D02*
X64878D01*
X62910Y110221D02*
Y114157D01*
X60941Y123094D02*
X64878D01*
X62910Y121126D02*
Y125063D01*
X60941Y134000D02*
X64878D01*
X62910Y132032D02*
Y135968D01*
X60941Y144905D02*
X64878D01*
X62910Y142937D02*
Y146874D01*
X60941Y155811D02*
X64878D01*
X62910Y153842D02*
Y157780D01*
X60941Y166717D02*
X64878D01*
X62910Y164748D02*
Y168685D01*
X-94468Y101284D02*
X-90531D01*
X-92500Y99315D02*
Y103252D01*
X-83287Y95831D02*
X-79350D01*
X-81319Y93862D02*
Y97799D01*
X-83287Y106736D02*
X-79350D01*
X-81319Y104768D02*
Y108705D01*
X-83287Y117642D02*
X-79350D01*
X-81319Y115673D02*
Y119610D01*
X-83287Y128547D02*
X-79350D01*
X-81319Y126579D02*
Y130516D01*
X-83287Y139453D02*
X-79350D01*
X-81319Y137484D02*
Y141421D01*
X-93209Y199591D02*
X-80610D01*
X-86910Y193291D02*
Y205890D01*
X-93209Y68410D02*
X-80610D01*
X-86910Y62110D02*
Y74709D01*
X-83287Y150358D02*
X-79350D01*
X-81319Y148390D02*
Y152327D01*
X-83287Y161264D02*
X-79350D01*
X-81319Y159295D02*
Y163232D01*
X-83287Y172169D02*
X-79350D01*
X-81319Y170201D02*
Y174138D01*
X-94468Y112189D02*
X-90531D01*
X-92500Y110221D02*
Y114157D01*
X-94468Y123094D02*
X-90531D01*
X-92500Y121126D02*
Y125063D01*
X-94468Y134000D02*
X-90531D01*
X-92500Y132032D02*
Y135968D01*
X-94468Y144905D02*
X-90531D01*
X-92500Y142937D02*
Y146874D01*
X-94468Y155811D02*
X-90531D01*
X-92500Y153842D02*
Y157780D01*
X-94468Y166717D02*
X-90531D01*
X-92500Y164748D02*
Y168685D01*
X-258787Y87047D02*
X-254851D01*
X-256819Y85079D02*
Y89016D01*
X-258787Y97952D02*
X-254851D01*
X-256819Y95983D02*
Y99920D01*
X-258787Y108858D02*
X-254851D01*
X-256819Y106889D02*
Y110827D01*
X-258787Y119763D02*
X-254851D01*
X-256819Y117795D02*
Y121731D01*
X-258787Y130669D02*
X-254851D01*
X-256819Y128700D02*
Y132638D01*
X-269969Y92500D02*
X-266032D01*
X-268000Y90531D02*
Y94468D01*
X-269969Y103405D02*
X-266032D01*
X-268000Y101436D02*
Y105374D01*
X-269969Y114311D02*
X-266032D01*
X-268000Y112343D02*
Y116279D01*
X-269969Y125216D02*
X-266032D01*
X-268000Y123248D02*
Y127184D01*
X-268708Y158070D02*
X-256110D01*
X-262409Y151771D02*
Y164369D01*
X-268708Y59645D02*
X-256110D01*
X-262409Y53346D02*
Y65944D01*
X-176165Y143000D02*
X-171835D01*
X-174000Y140835D02*
Y145165D01*
X-186165Y143000D02*
X-181835D01*
X-184000Y140835D02*
Y145165D01*
X-196165Y143000D02*
X-191835D01*
X-194000Y140835D02*
Y145165D01*
X-176165Y59500D02*
X-171835D01*
X-174000Y57335D02*
Y61665D01*
X-186165Y59500D02*
X-181835D01*
X-184000Y57335D02*
Y61665D01*
X-196165Y59500D02*
X-191835D01*
X-194000Y57335D02*
Y61665D01*
X-176165Y126300D02*
X-171835D01*
X-174000Y124135D02*
Y128465D01*
X-186165Y126300D02*
X-181835D01*
X-184000Y124135D02*
Y128465D01*
X-196165Y126300D02*
X-191835D01*
X-194000Y124135D02*
Y128465D01*
X-176165Y109600D02*
X-171835D01*
X-174000Y107435D02*
Y111765D01*
X-186165Y109600D02*
X-181835D01*
X-184000Y107435D02*
Y111765D01*
X-196165Y109600D02*
X-191835D01*
X-194000Y107435D02*
Y111765D01*
X-176165Y92900D02*
X-171835D01*
X-174000Y90735D02*
Y95065D01*
X-186165Y92900D02*
X-181835D01*
X-184000Y90735D02*
Y95065D01*
X-196165Y92900D02*
X-191835D01*
X-194000Y90735D02*
Y95065D01*
X-176165Y76200D02*
X-171835D01*
X-174000Y74035D02*
Y78365D01*
X-186165Y76200D02*
X-181835D01*
X-184000Y74035D02*
Y78365D01*
X-196165Y76200D02*
X-191835D01*
X-194000Y74035D02*
Y78365D01*
X-288071Y255000D02*
X-271929D01*
X-280000Y246929D02*
Y263071D01*
X-6968Y95000D02*
X-3032D01*
X-5000Y93032D02*
Y96969D01*
X-6968Y105000D02*
X-3032D01*
X-5000Y103032D02*
Y106968D01*
X191532Y166500D02*
X195468D01*
X193500Y164532D02*
Y168468D01*
X-7323Y115000D02*
X-3386D01*
X-5354Y113031D02*
Y116969D01*
X-7323Y125000D02*
X-3386D01*
X-5354Y123031D02*
Y126969D01*
X191532Y155667D02*
X195468D01*
X193500Y153698D02*
Y157635D01*
X309531Y112500D02*
X313469D01*
X311500Y110531D02*
Y114469D01*
X309531Y53000D02*
X313469D01*
X311500Y51032D02*
Y54969D01*
X191532Y144833D02*
X195468D01*
X193500Y142865D02*
Y146802D01*
X299698Y112500D02*
X303635D01*
X301667Y110531D02*
Y114469D01*
X299698Y53000D02*
X303635D01*
X301667Y51032D02*
Y54969D01*
X289865Y112500D02*
X293802D01*
X291833Y110531D02*
Y114469D01*
X289865Y53000D02*
X293802D01*
X291833Y51032D02*
Y54969D01*
X191532Y134000D02*
X195468D01*
X193500Y132032D02*
Y135968D01*
X280031Y112500D02*
X283968D01*
X282000Y110531D02*
Y114469D01*
X280031Y53000D02*
X283968D01*
X282000Y51032D02*
Y54969D01*
X-6469Y155000D02*
X-2531D01*
X-4500Y153032D02*
Y156968D01*
X334331Y5000D02*
X338268D01*
X336300Y3032D02*
Y6968D01*
X324331Y5000D02*
X328269D01*
X326300Y3032D02*
Y6968D01*
X314257Y5000D02*
X318194D01*
X316225Y3032D02*
Y6968D01*
X304182Y5000D02*
X308119D01*
X306150Y3032D02*
Y6968D01*
X294107Y5000D02*
X298043D01*
X296075Y3032D02*
Y6968D01*
X284032Y5000D02*
X287968D01*
X286000Y3032D02*
Y6968D01*
X36031Y137000D02*
X39968D01*
X38000Y135031D02*
Y138969D01*
X36031Y126250D02*
X39968D01*
X38000Y124282D02*
Y128218D01*
X224331Y36000D02*
X228269D01*
X226300Y34032D02*
Y37969D01*
X36031Y115500D02*
X39968D01*
X38000Y113531D02*
Y117469D01*
X36031Y104750D02*
X39968D01*
X38000Y102781D02*
Y106719D01*
X36031Y94000D02*
X39968D01*
X38000Y92032D02*
Y95969D01*
X144332Y5000D02*
X148268D01*
X146300Y3032D02*
Y6968D01*
X134332Y5000D02*
X138268D01*
X136300Y3032D02*
Y6968D01*
X124331Y5000D02*
X128269D01*
X126300Y3032D02*
Y6968D01*
X114331Y5000D02*
X118269D01*
X116300Y3032D02*
Y6968D01*
X54331Y35000D02*
X58268D01*
X56300Y33031D02*
Y36968D01*
X44331Y35000D02*
X48268D01*
X46300Y33031D02*
Y36968D01*
X34332Y35000D02*
X38269D01*
X36300Y33031D02*
Y36968D01*
X24532Y35000D02*
X28468D01*
X26500Y33031D02*
Y36968D01*
X-119968Y166500D02*
X-116032D01*
X-118000Y164532D02*
Y168468D01*
X-119968Y155811D02*
X-116032D01*
X-118000Y153842D02*
Y157780D01*
X-119968Y145500D02*
X-116032D01*
X-118000Y143532D02*
Y147468D01*
X-119968Y134000D02*
X-116032D01*
X-118000Y132032D02*
Y135968D01*
X-119968Y112000D02*
X-116032D01*
X-118000Y110031D02*
Y113969D01*
X324292Y25000D02*
X328308D01*
X326300Y22992D02*
Y27008D01*
X334292Y25000D02*
X338308D01*
X336300Y22992D02*
Y27008D01*
X304292Y25000D02*
X308308D01*
X306300Y22992D02*
Y27008D01*
X324292Y15000D02*
X328308D01*
X326300Y12992D02*
Y17008D01*
X314292Y25000D02*
X318308D01*
X316300Y22992D02*
Y27008D01*
X284292Y25000D02*
X288308D01*
X286300Y22992D02*
Y27008D01*
X294292Y25000D02*
X298308D01*
X296300Y22992D02*
Y27008D01*
X274292Y25000D02*
X278308D01*
X276300Y22992D02*
Y27008D01*
X264292Y15000D02*
X268308D01*
X266300Y12992D02*
Y17008D01*
X264292Y25000D02*
X268308D01*
X266300Y22992D02*
Y27008D01*
X334292Y15000D02*
X338308D01*
X336300Y12992D02*
Y17008D01*
X314292Y15000D02*
X318308D01*
X316300Y12992D02*
Y17008D01*
X274292Y15000D02*
X278308D01*
X276300Y12992D02*
Y17008D01*
X284292Y15000D02*
X288308D01*
X286300Y12992D02*
Y17008D01*
X254292Y15000D02*
X258308D01*
X256300Y12992D02*
Y17008D01*
X304292Y15000D02*
X308308D01*
X306300Y12992D02*
Y17008D01*
X294292Y15000D02*
X298308D01*
X296300Y12992D02*
Y17008D01*
X254292Y25000D02*
X258308D01*
X256300Y22992D02*
Y27008D01*
X244292Y25000D02*
X248308D01*
X246300Y22992D02*
Y27008D01*
X224292Y25000D02*
X228308D01*
X226300Y22992D02*
Y27008D01*
X234292Y25000D02*
X238308D01*
X236300Y22992D02*
Y27008D01*
X214292Y25000D02*
X218308D01*
X216300Y22992D02*
Y27008D01*
X244292Y15000D02*
X248308D01*
X246300Y12992D02*
Y17008D01*
X214292Y15000D02*
X218308D01*
X216300Y12992D02*
Y17008D01*
X234292Y15000D02*
X238308D01*
X236300Y12992D02*
Y17008D01*
X224292Y15000D02*
X228308D01*
X226300Y12992D02*
Y17008D01*
X134292Y25000D02*
X138308D01*
X136300Y22992D02*
Y27008D01*
X144292Y25000D02*
X148308D01*
X146300Y22992D02*
Y27008D01*
X114292Y25000D02*
X118308D01*
X116300Y22992D02*
Y27008D01*
X134292Y15000D02*
X138308D01*
X136300Y12992D02*
Y17008D01*
X124292Y25000D02*
X128308D01*
X126300Y22992D02*
Y27008D01*
X94292Y25000D02*
X98308D01*
X96300Y22992D02*
Y27008D01*
X104292Y25000D02*
X108308D01*
X106300Y22992D02*
Y27008D01*
X84292Y25000D02*
X88308D01*
X86300Y22992D02*
Y27008D01*
X74292Y15000D02*
X78308D01*
X76300Y12992D02*
Y17008D01*
X74292Y25000D02*
X78308D01*
X76300Y22992D02*
Y27008D01*
X144292Y15000D02*
X148308D01*
X146300Y12992D02*
Y17008D01*
X124292Y15000D02*
X128308D01*
X126300Y12992D02*
Y17008D01*
X84292Y15000D02*
X88308D01*
X86300Y12992D02*
Y17008D01*
X94292Y15000D02*
X98308D01*
X96300Y12992D02*
Y17008D01*
X64292Y15000D02*
X68308D01*
X66300Y12992D02*
Y17008D01*
X114292Y15000D02*
X118308D01*
X116300Y12992D02*
Y17008D01*
X104292Y15000D02*
X108308D01*
X106300Y12992D02*
Y17008D01*
X64292Y25000D02*
X68308D01*
X66300Y22992D02*
Y27008D01*
X54292Y25000D02*
X58308D01*
X56300Y22992D02*
Y27008D01*
X34292Y25000D02*
X38308D01*
X36300Y22992D02*
Y27008D01*
X44292Y25000D02*
X48308D01*
X46300Y22992D02*
Y27008D01*
X24292Y25000D02*
X28308D01*
X26300Y22992D02*
Y27008D01*
X54292Y15000D02*
X58308D01*
X56300Y12992D02*
Y17008D01*
X24292Y15000D02*
X28308D01*
X26300Y12992D02*
Y17008D01*
X44292Y15000D02*
X48308D01*
X46300Y12992D02*
Y17008D01*
X34292Y15000D02*
X38308D01*
X36300Y12992D02*
Y17008D01*
X282201Y243000D02*
X287713D01*
X284957Y240244D02*
Y245756D01*
X268421Y243000D02*
X273933D01*
X271177Y240244D02*
Y245756D01*
X254642Y243000D02*
X260154D01*
X257398Y240244D02*
Y245756D01*
X213303Y243000D02*
X218815D01*
X216059Y240244D02*
Y245756D01*
X227083Y243000D02*
X232594D01*
X229839Y240244D02*
Y245756D01*
X199524Y243000D02*
X205035D01*
X202279Y240244D02*
Y245756D01*
X240862Y243000D02*
X246374D01*
X243618Y240244D02*
Y245756D01*
X171965Y243000D02*
X177476D01*
X174721Y240244D02*
Y245756D01*
X158185Y243000D02*
X163697D01*
X160941Y240244D02*
Y245756D01*
X185744Y243000D02*
X191256D01*
X188500Y240244D02*
Y245756D01*
X106350Y235252D02*
X112650D01*
X109500Y232102D02*
Y238402D01*
X86350Y235252D02*
X92650D01*
X89500Y232102D02*
Y238402D01*
X-119315Y242500D02*
X-113803D01*
X-116559Y239744D02*
Y245256D01*
X-105535Y242500D02*
X-100024D01*
X-102779Y239744D02*
Y245256D01*
X-77976Y242500D02*
X-72465D01*
X-75221Y239744D02*
Y245256D01*
X-50417Y242500D02*
X-44905D01*
X-47661Y239744D02*
Y245256D01*
X-22858Y242500D02*
X-17346D01*
X-20102Y239744D02*
Y245256D01*
X-36638Y242500D02*
X-31126D01*
X-33882Y239744D02*
Y245256D01*
X-64197Y242500D02*
X-58685D01*
X-61441Y239744D02*
Y245256D01*
X-91756Y242500D02*
X-86244D01*
X-89000Y239744D02*
Y245256D01*
X-242484Y242500D02*
X-236972D01*
X-239728Y239744D02*
Y245256D01*
X-228705Y242500D02*
X-223193D01*
X-225949Y239744D02*
Y245256D01*
X-201146Y242500D02*
X-195634D01*
X-198390Y239744D02*
Y245256D01*
X-173587Y242500D02*
X-168075D01*
X-170831Y239744D02*
Y245256D01*
X-146028Y242500D02*
X-140516D01*
X-143272Y239744D02*
Y245256D01*
X-159807Y242500D02*
X-154295D01*
X-157051Y239744D02*
Y245256D01*
X-187366Y242500D02*
X-181854D01*
X-184610Y239744D02*
Y245256D01*
X-214925Y242500D02*
X-209413D01*
X-212169Y239744D02*
Y245256D01*
X-270756Y194220D02*
X-265244D01*
X-268000Y191465D02*
Y196976D01*
X-270756Y221779D02*
X-265244D01*
X-268000Y219024D02*
Y224535D01*
X-270756Y208000D02*
X-265244D01*
X-268000Y205244D02*
Y210756D01*
X-90969Y9500D02*
X-87032D01*
X-89000Y7531D02*
Y11468D01*
X-65500Y31500D02*
X-61500D01*
X-63500Y29500D02*
Y33500D01*
X-75500Y31500D02*
X-71500D01*
X-73500Y29500D02*
Y33500D01*
X-105000Y31000D02*
X-101000D01*
X-103000Y29000D02*
Y33000D01*
X-115000Y31000D02*
X-111000D01*
X-113000Y29000D02*
Y33000D01*
X11929Y55000D02*
X28071D01*
X20000Y46929D02*
Y63071D01*
X11929Y255000D02*
X28071D01*
X20000Y246929D02*
Y263071D01*
X334429Y255000D02*
X350571D01*
X342500Y246929D02*
Y263071D01*
X334429Y55000D02*
X350571D01*
X342500Y46929D02*
Y63071D01*
X-110468Y9500D02*
X-106532D01*
X-108500Y7531D02*
Y11468D01*
X-70969Y9500D02*
X-67032D01*
X-69000Y7531D02*
Y11468D01*
X-216303Y209000D02*
X-212366D01*
X-214335Y207031D02*
Y210968D01*
X-206303Y209000D02*
X-202366D01*
X-204335Y207031D02*
Y210968D01*
X-216303Y189000D02*
X-212366D01*
X-214335Y187031D02*
Y190969D01*
X-206303Y189000D02*
X-202366D01*
X-204335Y187031D02*
Y190969D01*
X-196303Y209000D02*
X-192366D01*
X-194335Y207031D02*
Y210968D01*
X-196303Y189000D02*
X-192366D01*
X-194335Y187031D02*
Y190969D01*
X-176303Y189000D02*
X-172366D01*
X-174335Y187031D02*
Y190969D01*
X-176303Y209000D02*
X-172366D01*
X-174335Y207031D02*
Y210968D01*
X140949Y194000D02*
X144492D01*
X142720Y192228D02*
Y195772D01*
X154728Y194000D02*
X158272D01*
X156500Y192228D02*
Y195772D01*
X22992Y95000D02*
X27008D01*
X25000Y92992D02*
Y97008D01*
X22992Y105000D02*
X27008D01*
X25000Y102992D02*
Y107008D01*
X22992Y115000D02*
X27008D01*
X25000Y112992D02*
Y117008D01*
X22992Y125000D02*
X27008D01*
X25000Y122992D02*
Y127008D01*
X22992Y135000D02*
X27008D01*
X25000Y132992D02*
Y137008D01*
X22992Y145000D02*
X27008D01*
X25000Y142992D02*
Y147008D01*
X22992Y155000D02*
X27008D01*
X25000Y152992D02*
Y157008D01*
X22992Y165000D02*
X27008D01*
X25000Y162992D02*
Y167008D01*
X22992Y175000D02*
X27008D01*
X25000Y172992D02*
Y177008D01*
X22992Y185000D02*
X27008D01*
X25000Y182992D02*
Y187008D01*
X22992Y195000D02*
X27008D01*
X25000Y192992D02*
Y197008D01*
X22992Y205000D02*
X27008D01*
X25000Y202992D02*
Y207008D01*
X22992Y215000D02*
X27008D01*
X25000Y212992D02*
Y217008D01*
X12992Y95000D02*
X17008D01*
X15000Y92992D02*
Y97008D01*
X12992Y105000D02*
X17008D01*
X15000Y102992D02*
Y107008D01*
X12992Y115000D02*
X17008D01*
X15000Y112992D02*
Y117008D01*
X12992Y125000D02*
X17008D01*
X15000Y122992D02*
Y127008D01*
X12992Y135000D02*
X17008D01*
X15000Y132992D02*
Y137008D01*
X12992Y145000D02*
X17008D01*
X15000Y142992D02*
Y147008D01*
X12992Y155000D02*
X17008D01*
X15000Y152992D02*
Y157008D01*
X12992Y165000D02*
X17008D01*
X15000Y162992D02*
Y167008D01*
X12992Y175000D02*
X17008D01*
X15000Y172992D02*
Y177008D01*
X12992Y185000D02*
X17008D01*
X15000Y182992D02*
Y187008D01*
X12992Y195000D02*
X17008D01*
X15000Y192992D02*
Y197008D01*
X12992Y205000D02*
X17008D01*
X15000Y202992D02*
Y207008D01*
X12992Y215000D02*
X17008D01*
X15000Y212992D02*
Y217008D01*
X39417Y223425D02*
X40598D01*
X40007Y222835D02*
Y224016D01*
X-82185Y43110D02*
X-81004D01*
X-81595Y42520D02*
Y43701D01*
X32874Y213354D02*
X34055D01*
X33465Y212764D02*
Y213945D01*
X36024Y216240D02*
X37205D01*
X36614Y215650D02*
Y216831D01*
X38780Y219882D02*
X39961D01*
X39370Y219291D02*
Y220472D01*
X42815Y223228D02*
X43996D01*
X43406Y222638D02*
Y223819D01*
X46555Y225197D02*
X47736D01*
X47146Y224606D02*
Y225787D01*
X51410Y226500D02*
X52591D01*
X52000Y225909D02*
Y227091D01*
X-244091Y39959D02*
X-242910D01*
X-243500Y39369D02*
Y40550D01*
X-126091Y69459D02*
X-124909D01*
X-125500Y68869D02*
Y70050D01*
X262409Y73541D02*
X263591D01*
X263000Y72950D02*
Y74131D01*
X31909Y75460D02*
X33091D01*
X32500Y74869D02*
Y76051D01*
X100909Y54500D02*
X102091D01*
X101500Y53909D02*
Y55090D01*
X196709Y93300D02*
X197890D01*
X197300Y92709D02*
Y93891D01*
X194409Y99500D02*
X195591D01*
X195000Y98909D02*
Y100091D01*
X186909Y120500D02*
X188091D01*
X187500Y119909D02*
Y121091D01*
X186159Y115000D02*
X187341D01*
X186750Y114409D02*
Y115591D01*
X187909Y109000D02*
X189091D01*
X188500Y108409D02*
Y109591D01*
X184865Y103500D02*
X186046D01*
X185455Y102909D02*
Y104091D01*
X176409Y98000D02*
X177591D01*
X177000Y97409D02*
Y98590D01*
X177409Y66500D02*
X178591D01*
X178000Y65909D02*
Y67090D01*
X173146Y45264D02*
X174327D01*
X173736Y44673D02*
Y45854D01*
X167409Y43000D02*
X168591D01*
X168000Y42409D02*
Y43591D01*
X110409Y53500D02*
X111591D01*
X111000Y52909D02*
Y54090D01*
X161409Y57500D02*
X162591D01*
X162000Y56910D02*
Y58091D01*
X100409Y42500D02*
X101591D01*
X101000Y41909D02*
Y43091D01*
X70410Y54500D02*
X71591D01*
X71000Y53909D02*
Y55090D01*
X158201Y62000D02*
X159382D01*
X158791Y61409D02*
Y62590D01*
X-182531Y36921D02*
X-181350D01*
X-181941Y36331D02*
Y37512D01*
X-591Y29000D02*
X591D01*
X0Y28409D02*
Y29591D01*
X313409Y91646D02*
X314591D01*
X314000Y91055D02*
Y92236D01*
X314764Y72354D02*
X315945D01*
X315354Y71764D02*
Y72945D01*
X158201Y129500D02*
X159382D01*
X158791Y128909D02*
Y130091D01*
X138909Y129500D02*
X140091D01*
X139500Y128909D02*
Y130091D01*
X-6445Y213354D02*
X-5264D01*
X-5854Y212764D02*
Y213945D01*
X-25736Y213000D02*
X-24555D01*
X-25146Y212409D02*
Y213591D01*
X-190091Y23000D02*
X-188909D01*
X-189500Y22410D02*
Y23591D01*
X-158031Y41921D02*
X-156850D01*
X-157441Y41331D02*
Y42512D01*
X-158031Y32921D02*
X-156850D01*
X-157441Y32331D02*
Y33512D01*
X5409Y83000D02*
X6591D01*
X6000Y82410D02*
Y83591D01*
X2909Y86500D02*
X4091D01*
X3500Y85909D02*
Y87090D01*
X7909Y155000D02*
X9091D01*
X8500Y154409D02*
Y155591D01*
X97909Y78000D02*
X99090D01*
X98500Y77409D02*
Y78591D01*
X95677Y89768D02*
X96858D01*
X96268Y89177D02*
Y90358D01*
X117409Y86000D02*
X118591D01*
X118000Y85409D02*
Y86590D01*
X117409Y62500D02*
X118591D01*
X118000Y61910D02*
Y63090D01*
X114909Y83500D02*
X116091D01*
X115500Y82910D02*
Y84091D01*
X114909Y59000D02*
X116091D01*
X115500Y58410D02*
Y59591D01*
X173909Y71000D02*
X175091D01*
X174500Y70410D02*
Y71591D01*
X173909Y93300D02*
X175091D01*
X174500Y92709D02*
Y93891D01*
X-163591Y101284D02*
X-162409D01*
X-163000Y100693D02*
Y101874D01*
X-174091Y154500D02*
X-172909D01*
X-173500Y153909D02*
Y155091D01*
X260910Y49000D02*
X262090D01*
X261500Y48409D02*
Y49591D01*
X268409Y51500D02*
X269590D01*
X269000Y50909D02*
Y52091D01*
X64410Y231000D02*
X65591D01*
X65000Y230410D02*
Y231591D01*
X68410Y230000D02*
X69591D01*
X69000Y229410D02*
Y230591D01*
X129909Y102963D02*
X131091D01*
X130500Y102372D02*
Y103553D01*
X127409Y108358D02*
X128591D01*
X128000Y107767D02*
Y108949D01*
X124409Y119500D02*
X125591D01*
X125000Y118909D02*
Y120091D01*
X120909Y119000D02*
X122091D01*
X121500Y118409D02*
Y119591D01*
X62410Y234000D02*
X63591D01*
X63000Y233410D02*
Y234591D01*
X65909Y236500D02*
X67090D01*
X66500Y235910D02*
Y237090D01*
X110409Y144500D02*
X111591D01*
X111000Y143909D02*
Y145091D01*
X170409Y171500D02*
X171591D01*
X171000Y170909D02*
Y172091D01*
X177409Y144500D02*
X178591D01*
X178000Y143909D02*
Y145091D01*
X90409Y46500D02*
X91590D01*
X91000Y45909D02*
Y47091D01*
X164909Y82000D02*
X166091D01*
X165500Y81410D02*
Y82591D01*
X164909Y36500D02*
X166091D01*
X165500Y35909D02*
Y37091D01*
X80409Y36000D02*
X81590D01*
X81000Y35409D02*
Y36591D01*
X101909Y164500D02*
X103091D01*
X102500Y163909D02*
Y165091D01*
X105409Y32500D02*
X106591D01*
X106000Y31909D02*
Y33091D01*
X-166091Y67500D02*
X-164909D01*
X-165500Y66909D02*
Y68090D01*
X3409Y181000D02*
X4591D01*
X4000Y180409D02*
Y181591D01*
X1335Y176000D02*
X2516D01*
X1925Y175409D02*
Y176591D01*
X-163591Y135000D02*
X-162409D01*
X-163000Y134409D02*
Y135591D01*
X-45091Y13000D02*
X-43909D01*
X-44500Y12409D02*
Y13590D01*
X-45547Y144457D02*
X-44366D01*
X-44957Y143866D02*
Y145047D01*
X-45091Y166000D02*
X-43909D01*
X-44500Y165409D02*
Y166591D01*
X-27591Y9500D02*
X-26409D01*
X-27000Y8909D02*
Y10091D01*
X410Y7000D02*
X1591D01*
X1000Y6409D02*
Y7591D01*
X410Y170500D02*
X1591D01*
X1000Y169909D02*
Y171091D01*
X5409Y186000D02*
X6591D01*
X6000Y185409D02*
Y186591D01*
X2909Y210500D02*
X4091D01*
X3500Y209910D02*
Y211090D01*
X2909Y191000D02*
X4091D01*
X3500Y190409D02*
Y191591D01*
X-35091Y186000D02*
X-33909D01*
X-34500Y185409D02*
Y186591D01*
X-35091Y211500D02*
X-33909D01*
X-34500Y210910D02*
Y212090D01*
X-39091Y191000D02*
X-37909D01*
X-38500Y190409D02*
Y191591D01*
X-39091Y208000D02*
X-37909D01*
X-38500Y207410D02*
Y208591D01*
X-43091Y196000D02*
X-41909D01*
X-42500Y195409D02*
Y196591D01*
X-43091Y205000D02*
X-41909D01*
X-42500Y204409D02*
Y205591D01*
X-236638Y144047D02*
X-235456D01*
X-236047Y143456D02*
Y144638D01*
X-236638Y87047D02*
X-235456D01*
X-236047Y86456D02*
Y87638D01*
X-229591Y119763D02*
X-228410D01*
X-229000Y119173D02*
Y120353D01*
X-229890Y93300D02*
X-228709D01*
X-229300Y92709D02*
Y93891D01*
X-242590Y77000D02*
X-241409D01*
X-242000Y76410D02*
Y77591D01*
X-249491Y127100D02*
X-248309D01*
X-248900Y126509D02*
Y127690D01*
X-217547Y52000D02*
X-216366D01*
X-216957Y51410D02*
Y52591D01*
X-217547Y69500D02*
X-216366D01*
X-216957Y68910D02*
Y70091D01*
X-217547Y87543D02*
X-216366D01*
X-216957Y86953D02*
Y88134D01*
X-217547Y104500D02*
X-216366D01*
X-216957Y103909D02*
Y105091D01*
X-217547Y121043D02*
X-216366D01*
X-216957Y120453D02*
Y121634D01*
X-217547Y138500D02*
X-216366D01*
X-216957Y137909D02*
Y139091D01*
M02*
