G04*
G04 #@! TF.GenerationSoftware,Altium Limited,Altium Designer,18.1.9 (240)*
G04*
G04 Layer_Physical_Order=4*
G04 Layer_Color=16711680*
%FSLAX25Y25*%
%MOIN*%
G70*
G01*
G75*
%ADD17C,0.00984*%
%ADD38R,0.06102X0.06102*%
%ADD45C,0.07087*%
%ADD60C,0.01968*%
%ADD61C,0.03937*%
%ADD62C,0.23622*%
%ADD63R,0.05315X0.05315*%
%ADD64C,0.05315*%
%ADD65C,0.05906*%
%ADD66R,0.05906X0.05906*%
%ADD67O,0.19488X0.18898*%
%ADD68C,0.18898*%
%ADD69C,0.14567*%
%ADD70C,0.06299*%
%ADD71R,0.06299X0.06299*%
%ADD72C,0.06102*%
%ADD73R,0.08268X0.08268*%
%ADD74C,0.08268*%
%ADD75R,0.09449X0.09449*%
%ADD76C,0.09449*%
%ADD77R,0.08268X0.08268*%
%ADD78C,0.06500*%
%ADD79C,0.05937*%
%ADD80R,0.05937X0.05937*%
%ADD81R,0.05906X0.05906*%
%ADD82R,0.06102X0.06102*%
%ADD83C,0.02362*%
D17*
X40007Y222446D02*
Y223425D01*
Y222446D02*
X41634Y220820D01*
Y177134D02*
Y220820D01*
X28500Y200000D02*
X33465Y204965D01*
Y213354D01*
X25846Y190000D02*
X36614Y200768D01*
Y216240D01*
X39370Y192870D02*
Y219882D01*
X20000Y200000D02*
X28500D01*
X34000Y169500D02*
X41634Y177134D01*
X26500Y180000D02*
X39370Y192870D01*
X20000Y180000D02*
X26500D01*
X19500Y169500D02*
X34000D01*
X34500Y159500D02*
X43406Y168405D01*
Y223228D01*
X34000Y150000D02*
X47146Y163146D01*
Y225197D01*
X52000Y159000D02*
Y226500D01*
X32453Y139453D02*
X52000Y159000D01*
X19500Y159500D02*
X34500D01*
X101500Y54500D02*
Y163500D01*
X102500Y164500D01*
X214500Y51500D02*
X227873D01*
X197300Y68700D02*
Y93300D01*
X214698Y49075D02*
X224452D01*
X192575Y59925D02*
Y115425D01*
X191000Y56800D02*
Y110750D01*
X197300Y68700D02*
X214500Y51500D01*
X186750Y115000D02*
X191000Y110750D01*
Y56800D02*
X221000Y26800D01*
X187500Y120500D02*
X192575Y115425D01*
Y59925D02*
X205000Y47500D01*
X195000Y68773D02*
X214698Y49075D01*
X188500Y52800D02*
Y109000D01*
X185455Y40545D02*
Y103500D01*
Y40545D02*
X211000Y15000D01*
X188500Y52800D02*
X216300Y25000D01*
X211000Y15000D02*
X216300D01*
X177000Y97627D02*
Y98000D01*
Y97627D02*
X178000Y96627D01*
Y66500D02*
Y96627D01*
X172236Y138736D02*
X178000Y144500D01*
X172236Y70062D02*
Y138736D01*
Y70062D02*
X173736Y68562D01*
Y45264D02*
Y68562D01*
X168000Y43000D02*
Y168500D01*
X171000Y171500D01*
X111000Y19700D02*
Y53500D01*
X106300Y15000D02*
X111000Y19700D01*
X162000Y24500D02*
Y57500D01*
X101000Y19700D02*
Y42500D01*
X71000Y19000D02*
Y54500D01*
X200500Y18000D02*
X209500Y9000D01*
X162000Y24500D02*
X168500Y18000D01*
X200500D01*
X199000Y14000D02*
X208000Y5000D01*
X158791Y22709D02*
Y62000D01*
Y22709D02*
X167500Y14000D01*
X199000D01*
X205000Y47500D02*
X223800D01*
X-5354Y68000D02*
X1000Y74354D01*
X-5354Y13354D02*
Y68000D01*
Y13354D02*
X1000Y7000D01*
Y74354D02*
Y170500D01*
X6000Y83000D02*
Y179000D01*
X67300Y226500D02*
X72000D01*
X121500Y177000D01*
X65000Y228800D02*
X67300Y226500D01*
X65000Y228800D02*
Y231000D01*
X208000Y5000D02*
X226300D01*
X221000Y9000D02*
X226300Y14300D01*
X209500Y9000D02*
X221000D01*
X3500Y86500D02*
Y173425D01*
X3000Y173925D02*
X3500Y173425D01*
X3000Y173925D02*
Y174925D01*
X1925Y176000D02*
X3000Y174925D01*
X12315Y199315D02*
X15161D01*
X8500Y195500D02*
X12315Y199315D01*
X8500Y155000D02*
Y195500D01*
X24626Y204626D02*
X25000Y205000D01*
X20472Y204626D02*
X24626D01*
X15161Y199315D02*
X20472Y204626D01*
X6000Y186000D02*
Y214500D01*
X6500Y215000D01*
X15000D01*
X3500Y191000D02*
Y210500D01*
X96268Y80232D02*
X98500Y78000D01*
X96268Y80232D02*
Y89768D01*
X118000Y62500D02*
Y86000D01*
X115500Y59000D02*
Y83500D01*
X174500Y71000D02*
Y93300D01*
X-194000Y98567D02*
X-191284Y101284D01*
X-194000Y92900D02*
Y98567D01*
X-191284Y101284D02*
X-163000D01*
X-194000Y104000D02*
X-191284Y101284D01*
X-194000Y104000D02*
Y109600D01*
X4000Y181000D02*
X6000Y179000D01*
X-174335Y155335D02*
X-173500Y154500D01*
X-174335Y155335D02*
Y189000D01*
X226300Y14300D02*
Y15000D01*
Y5000D02*
X236300Y15000D01*
X227873Y51500D02*
X252166Y27207D01*
Y23288D02*
Y27207D01*
Y23288D02*
X256300Y19154D01*
Y15000D02*
Y19154D01*
X247146Y30000D02*
X250434Y26712D01*
Y19134D02*
Y26712D01*
X246300Y15000D02*
X250434Y19134D01*
X243527Y30000D02*
X247146D01*
X224452Y49075D02*
X243527Y30000D01*
X195000Y68773D02*
Y99500D01*
X261500Y19800D02*
Y49000D01*
Y19800D02*
X266300Y15000D01*
X269000Y32177D02*
Y51500D01*
Y32177D02*
X271500Y29677D01*
Y19800D02*
Y29677D01*
Y19800D02*
X276300Y15000D01*
X221000Y23000D02*
Y26800D01*
X223800Y47500D02*
X246300Y25000D01*
X231300Y20000D02*
X236300Y25000D01*
X224000Y20000D02*
X231300D01*
X221000Y23000D02*
X224000Y20000D01*
X226300Y25000D02*
Y36000D01*
X130500Y102963D02*
Y176000D01*
X70000Y236500D02*
X130500Y176000D01*
X66500Y236500D02*
X70000D01*
X70727Y230000D02*
X125000Y175727D01*
X69000Y230000D02*
X70727D01*
X69227Y234000D02*
X128000Y175227D01*
X63000Y234000D02*
X69227D01*
X128000Y108358D02*
Y175227D01*
X125000Y119500D02*
Y175727D01*
X121500Y119000D02*
Y177000D01*
X111000Y61000D02*
Y144500D01*
X106000Y56000D02*
X111000Y61000D01*
X106000Y32500D02*
Y56000D01*
X26300Y34800D02*
X26500Y35000D01*
X26300Y25000D02*
Y34800D01*
X36300Y25000D02*
Y35000D01*
X46300Y25000D02*
Y35000D01*
X56300Y25000D02*
Y35000D01*
X96300Y15000D02*
X101000Y19700D01*
X178000Y144500D02*
Y145500D01*
X91000Y19700D02*
Y46500D01*
Y47500D01*
X86300Y15000D02*
X91000Y19700D01*
X165500Y36500D02*
Y82000D01*
X81000Y17500D02*
Y36000D01*
X78500Y15000D02*
X81000Y17500D01*
X76300Y15000D02*
X78500D01*
X102500Y164500D02*
Y165000D01*
X67000Y15000D02*
X71000Y19000D01*
X66300Y15000D02*
X67000D01*
X-194000Y65000D02*
X-191500Y67500D01*
X-194000Y59500D02*
Y65000D01*
Y70000D02*
Y76200D01*
Y70000D02*
X-191500Y67500D01*
X-165500D01*
X336300Y5000D02*
Y15000D01*
X326300Y5000D02*
Y15000D01*
X316225Y14925D02*
X316300Y15000D01*
X316225Y5000D02*
Y14925D01*
X306150Y14850D02*
X306300Y15000D01*
X306150Y5000D02*
Y14850D01*
X296075Y14775D02*
X296300Y15000D01*
X296075Y5000D02*
Y14775D01*
X286000Y14700D02*
X286300Y15000D01*
X286000Y5000D02*
Y14700D01*
X116300Y5000D02*
Y15000D01*
X126300Y5000D02*
Y15000D01*
X136300Y5000D02*
Y15000D01*
X146300Y5000D02*
Y15000D01*
X23000Y190000D02*
X25846D01*
X19453Y139453D02*
X32453D01*
X15000Y135000D02*
X19453Y139453D01*
X15000Y145000D02*
X20000Y150000D01*
X34000D01*
X15000Y155000D02*
X19500Y159500D01*
X15000Y165000D02*
X19500Y169500D01*
X15000Y175000D02*
X20000Y180000D01*
X15000Y185000D02*
X18000D01*
X23000Y190000D01*
X15000Y195000D02*
X20000Y200000D01*
X-194000Y134000D02*
X-193000Y135000D01*
X-194000Y126300D02*
Y134000D01*
Y136000D02*
X-193000Y135000D01*
X-194000Y136000D02*
Y143000D01*
X-193000Y135000D02*
X-163000D01*
X-44957Y13457D02*
X-44500Y13000D01*
X-44957Y13457D02*
Y144457D01*
X-44500Y166000D02*
X-40000D01*
X-27000Y153000D01*
Y9500D02*
Y153000D01*
X-34500Y186000D02*
Y211500D01*
X-38500Y191000D02*
Y208000D01*
X-42500Y196000D02*
Y205000D01*
X-236047Y144047D02*
Y144453D01*
Y87047D02*
Y144047D01*
X-229300Y119463D02*
X-229000Y119763D01*
X-229300Y93300D02*
Y119463D01*
X-248622Y130669D02*
X-242000Y124047D01*
Y77000D02*
Y124047D01*
X-256819Y97952D02*
X-250548D01*
X-248900Y99600D01*
Y127100D01*
X-256819Y130669D02*
X-248622D01*
D38*
X216300Y15000D02*
D03*
X26300D02*
D03*
D45*
X53500Y263500D02*
D03*
X343000Y101000D02*
D03*
X-89000Y9500D02*
D03*
X-108500D02*
D03*
X-69000D02*
D03*
D60*
X174721Y232279D02*
X182000Y225000D01*
X182000Y66264D01*
Y33874D02*
Y66264D01*
Y33874D02*
X183874Y32000D01*
X174721Y232279D02*
Y243000D01*
D61*
X-81398Y24902D02*
Y46457D01*
X-81319Y95831D02*
X-71161Y85673D01*
Y56693D02*
Y85673D01*
X-81398Y46457D02*
X-71161Y56693D01*
X-81398Y24902D02*
X-69000Y12504D01*
Y9500D02*
Y12504D01*
X0Y29000D02*
Y65354D01*
X10646Y76000D01*
X20236D01*
X25000Y80764D01*
Y95000D01*
X-283000Y80236D02*
X-262409Y59645D01*
X-283000Y80236D02*
Y110216D01*
X-268000Y125216D01*
D62*
X-280000Y25000D02*
D03*
Y255000D02*
D03*
X20000Y55000D02*
D03*
Y255000D02*
D03*
X342500D02*
D03*
Y55000D02*
D03*
D63*
X183874Y32000D02*
D03*
D64*
X176000D02*
D03*
D65*
X218319Y101284D02*
D03*
X229500Y106736D02*
D03*
Y117642D02*
D03*
Y128547D02*
D03*
Y139453D02*
D03*
Y150358D02*
D03*
Y161264D02*
D03*
Y172169D02*
D03*
X218319Y112189D02*
D03*
Y123094D02*
D03*
Y134000D02*
D03*
Y144905D02*
D03*
Y155811D02*
D03*
Y166717D02*
D03*
X62910Y101284D02*
D03*
X74090Y106736D02*
D03*
Y117642D02*
D03*
Y128547D02*
D03*
Y139453D02*
D03*
Y150358D02*
D03*
Y161264D02*
D03*
Y172169D02*
D03*
X62910Y112189D02*
D03*
Y123094D02*
D03*
Y134000D02*
D03*
Y144905D02*
D03*
Y155811D02*
D03*
Y166717D02*
D03*
X-92500Y101284D02*
D03*
X-81319Y106736D02*
D03*
Y117642D02*
D03*
Y128547D02*
D03*
Y139453D02*
D03*
Y150358D02*
D03*
Y161264D02*
D03*
Y172169D02*
D03*
X-92500Y112189D02*
D03*
Y123094D02*
D03*
Y134000D02*
D03*
Y144905D02*
D03*
Y155811D02*
D03*
Y166717D02*
D03*
X-256819Y97952D02*
D03*
Y108858D02*
D03*
Y119763D02*
D03*
Y130669D02*
D03*
X-268000Y92500D02*
D03*
Y103405D02*
D03*
Y114311D02*
D03*
Y125216D02*
D03*
X156500Y194000D02*
D03*
D66*
X229500Y95831D02*
D03*
X74090D02*
D03*
X-81319D02*
D03*
X-256819Y87047D02*
D03*
D67*
X223909Y199591D02*
D03*
X68500D02*
D03*
X-86910D02*
D03*
D68*
X223909Y68410D02*
D03*
X68500D02*
D03*
X-86910D02*
D03*
D69*
X-262409Y158070D02*
D03*
Y59645D02*
D03*
D70*
X-174000Y143000D02*
D03*
X-184000D02*
D03*
X-174000Y59500D02*
D03*
X-184000D02*
D03*
X-174000Y126300D02*
D03*
X-184000D02*
D03*
X-174000Y109600D02*
D03*
X-184000D02*
D03*
X-174000Y92900D02*
D03*
X-184000D02*
D03*
X-174000Y76200D02*
D03*
X-184000D02*
D03*
X-5000Y95000D02*
D03*
Y105000D02*
D03*
X193500Y166500D02*
D03*
X-5354Y115000D02*
D03*
Y125000D02*
D03*
X193500Y155667D02*
D03*
X311500Y112500D02*
D03*
Y53000D02*
D03*
X193500Y144833D02*
D03*
X301667Y112500D02*
D03*
Y53000D02*
D03*
X291833Y112500D02*
D03*
Y53000D02*
D03*
X193500Y134000D02*
D03*
X282000Y112500D02*
D03*
Y53000D02*
D03*
X-4500Y155000D02*
D03*
X336300Y5000D02*
D03*
X326300D02*
D03*
X316225D02*
D03*
X306150D02*
D03*
X296075D02*
D03*
X286000D02*
D03*
X38000Y137000D02*
D03*
Y126250D02*
D03*
X226300Y36000D02*
D03*
X38000Y115500D02*
D03*
Y104750D02*
D03*
Y94000D02*
D03*
X146300Y5000D02*
D03*
X136300D02*
D03*
X126300D02*
D03*
X116300D02*
D03*
X56300Y35000D02*
D03*
X46300D02*
D03*
X36300D02*
D03*
X26500D02*
D03*
X-118000Y166500D02*
D03*
Y155811D02*
D03*
Y145500D02*
D03*
Y134000D02*
D03*
Y112000D02*
D03*
D71*
X-194000Y143000D02*
D03*
Y59500D02*
D03*
Y126300D02*
D03*
Y109600D02*
D03*
Y92900D02*
D03*
Y76200D02*
D03*
D72*
X326300Y25000D02*
D03*
X336300D02*
D03*
X306300D02*
D03*
X326300Y15000D02*
D03*
X316300Y25000D02*
D03*
X286300D02*
D03*
X296300D02*
D03*
X276300D02*
D03*
X266300Y15000D02*
D03*
Y25000D02*
D03*
X336300Y15000D02*
D03*
X316300D02*
D03*
X276300D02*
D03*
X286300D02*
D03*
X256300D02*
D03*
X306300D02*
D03*
X296300D02*
D03*
X256300Y25000D02*
D03*
X246300D02*
D03*
X226300D02*
D03*
X236300D02*
D03*
X216300D02*
D03*
X246300Y15000D02*
D03*
X236300D02*
D03*
X226300D02*
D03*
X136300Y25000D02*
D03*
X146300D02*
D03*
X116300D02*
D03*
X136300Y15000D02*
D03*
X126300Y25000D02*
D03*
X96300D02*
D03*
X106300D02*
D03*
X86300D02*
D03*
X76300Y15000D02*
D03*
Y25000D02*
D03*
X146300Y15000D02*
D03*
X126300D02*
D03*
X86300D02*
D03*
X96300D02*
D03*
X66300D02*
D03*
X116300D02*
D03*
X106300D02*
D03*
X66300Y25000D02*
D03*
X56300D02*
D03*
X36300D02*
D03*
X46300D02*
D03*
X26300D02*
D03*
X56300Y15000D02*
D03*
X46300D02*
D03*
X36300D02*
D03*
X25000Y95000D02*
D03*
Y105000D02*
D03*
Y115000D02*
D03*
Y125000D02*
D03*
Y135000D02*
D03*
Y145000D02*
D03*
Y155000D02*
D03*
Y165000D02*
D03*
Y175000D02*
D03*
Y185000D02*
D03*
Y195000D02*
D03*
Y205000D02*
D03*
Y215000D02*
D03*
X15000Y95000D02*
D03*
Y105000D02*
D03*
Y115000D02*
D03*
Y125000D02*
D03*
Y135000D02*
D03*
Y145000D02*
D03*
Y155000D02*
D03*
Y165000D02*
D03*
Y175000D02*
D03*
Y185000D02*
D03*
Y195000D02*
D03*
Y205000D02*
D03*
D73*
X284957Y243000D02*
D03*
X-20102Y242500D02*
D03*
X-143272D02*
D03*
D74*
X271177Y243000D02*
D03*
X257398D02*
D03*
X216059D02*
D03*
X229839D02*
D03*
X202279D02*
D03*
X243618D02*
D03*
X174721Y243000D02*
D03*
X160941D02*
D03*
X188500Y243000D02*
D03*
X-116559Y242500D02*
D03*
X-102779D02*
D03*
X-75221D02*
D03*
X-47661D02*
D03*
X-33882D02*
D03*
X-61441D02*
D03*
X-89000D02*
D03*
X-239728D02*
D03*
X-225949D02*
D03*
X-198390D02*
D03*
X-170831D02*
D03*
X-157051D02*
D03*
X-184610D02*
D03*
X-212169D02*
D03*
X-268000Y194220D02*
D03*
Y208000D02*
D03*
D75*
X109500Y235252D02*
D03*
D76*
X89500D02*
D03*
D77*
X-268000Y221779D02*
D03*
D78*
X-63500Y31500D02*
D03*
X-73500D02*
D03*
X-103000Y31000D02*
D03*
X-113000D02*
D03*
D79*
X-214335Y209000D02*
D03*
X-204335D02*
D03*
X-214335Y189000D02*
D03*
X-204335D02*
D03*
X-194335Y209000D02*
D03*
Y189000D02*
D03*
X-174335D02*
D03*
D80*
Y209000D02*
D03*
D81*
X142720Y194000D02*
D03*
D82*
X15000Y215000D02*
D03*
D83*
X40007Y223425D02*
D03*
X-81595Y43110D02*
D03*
X33465Y213354D02*
D03*
X36614Y216240D02*
D03*
X39370Y219882D02*
D03*
X43406Y223228D02*
D03*
X47146Y225197D02*
D03*
X52000Y226500D02*
D03*
X-243500Y39959D02*
D03*
X-125500Y69459D02*
D03*
X263000Y73541D02*
D03*
X32500Y75460D02*
D03*
X101500Y54500D02*
D03*
X197300Y93300D02*
D03*
X195000Y99500D02*
D03*
X187500Y120500D02*
D03*
X186750Y115000D02*
D03*
X188500Y109000D02*
D03*
X185455Y103500D02*
D03*
X177000Y98000D02*
D03*
X178000Y66500D02*
D03*
X173736Y45264D02*
D03*
X168000Y43000D02*
D03*
X111000Y53500D02*
D03*
X162000Y57500D02*
D03*
X101000Y42500D02*
D03*
X71000Y54500D02*
D03*
X158791Y62000D02*
D03*
X-181941Y36921D02*
D03*
X0Y29000D02*
D03*
X314000Y91646D02*
D03*
X315354Y72354D02*
D03*
X158791Y129500D02*
D03*
X139500D02*
D03*
X-5854Y213354D02*
D03*
X-25146Y213000D02*
D03*
X-189500Y23000D02*
D03*
X-157441Y41921D02*
D03*
Y32921D02*
D03*
X6000Y83000D02*
D03*
X3500Y86500D02*
D03*
X8500Y155000D02*
D03*
X98500Y78000D02*
D03*
X96268Y89768D02*
D03*
X118000Y86000D02*
D03*
Y62500D02*
D03*
X115500Y83500D02*
D03*
Y59000D02*
D03*
X174500Y71000D02*
D03*
Y93300D02*
D03*
X-163000Y101284D02*
D03*
X-173500Y154500D02*
D03*
X261500Y49000D02*
D03*
X269000Y51500D02*
D03*
X65000Y231000D02*
D03*
X69000Y230000D02*
D03*
X130500Y102963D02*
D03*
X128000Y108358D02*
D03*
X125000Y119500D02*
D03*
X121500Y119000D02*
D03*
X63000Y234000D02*
D03*
X66500Y236500D02*
D03*
X111000Y144500D02*
D03*
X171000Y171500D02*
D03*
X178000Y144500D02*
D03*
X91000Y46500D02*
D03*
X165500Y82000D02*
D03*
Y36500D02*
D03*
X81000Y36000D02*
D03*
X102500Y164500D02*
D03*
X106000Y32500D02*
D03*
X-165500Y67500D02*
D03*
X4000Y181000D02*
D03*
X1925Y176000D02*
D03*
X-163000Y135000D02*
D03*
X-44500Y13000D02*
D03*
X-44957Y144457D02*
D03*
X-44500Y166000D02*
D03*
X-27000Y9500D02*
D03*
X1000Y7000D02*
D03*
Y170500D02*
D03*
X6000Y186000D02*
D03*
X3500Y210500D02*
D03*
Y191000D02*
D03*
X-34500Y186000D02*
D03*
Y211500D02*
D03*
X-38500Y191000D02*
D03*
Y208000D02*
D03*
X-42500Y196000D02*
D03*
Y205000D02*
D03*
X-236047Y144047D02*
D03*
Y87047D02*
D03*
X-229000Y119763D02*
D03*
X-229300Y93300D02*
D03*
X-242000Y77000D02*
D03*
X-248900Y127100D02*
D03*
X-216957Y52000D02*
D03*
Y69500D02*
D03*
Y87543D02*
D03*
Y104500D02*
D03*
Y121043D02*
D03*
Y138500D02*
D03*
M02*
