M48
;Layer_Color=9474304
;FILE_FORMAT=2:5
INCH,LZ
;TYPE=PLATED
T1F00S00C0.01181
T2F00S00C0.03150
T3F00S00C0.03543
T4F00S00C0.03937
T5F00S00C0.04000
T6F00S00C0.04016
T7F00S00C0.04331
T8F00S00C0.05512
T9F00S00C0.06299
T10F00S00C0.12598
T11F00S00C0.16142
%
T01
X-02435Y0039959
X-0216957Y0052
X-0181941Y0036921
X-01895Y0023
X-0157441Y0032921
Y0041921
X-0081595Y004311
X-00445Y0013
X-0027Y00095
X0001Y0007
X0Y0029
X0081Y0036
X0091Y00465
X0101Y00425
X01015Y00545
X0111Y00535
X0106Y00325
X0071Y00545
X0162Y00575
X0168Y0043
X0173736Y0045264
X01655Y00365
X02615Y0049
X0269Y00515
X0263Y0073541
X0315354Y0072354
X0314Y0091646
X01973Y00933
X0195Y00995
X0185455Y01035
X01885Y0109
X018675Y0115
X01875Y01205
X0177Y0098
X01745Y00933
X01655Y0082
X01745Y0071
X0178Y00665
X0158791Y0062
X0118Y00625
X01155Y0059
Y00835
X0118Y0086
X0096268Y0089768
X00985Y0078
X01305Y0102963
X0128Y0108358
X0125Y01195
X01215Y0119
X01395Y01295
X0158791
X0178Y01445
X0171Y01715
X01025Y01645
X0111Y01445
X00085Y0155
X0001Y01705
X0001925Y0176
X0004Y0181
X0006Y0186
X00035Y0191
Y02105
X-0005854Y0213354
X-0025146Y0213
X-00345Y02115
X-00385Y0208
X-00425Y0205
Y0196
X-00385Y0191
X-00345Y0186
X-00445Y0166
X-0044957Y0144457
X00035Y00865
X0006Y0083
X00325Y007546
X0033465Y0213354
X-01735Y01545
X-0163Y0135
Y0101284
X-01655Y00675
X-01255Y0069459
X-0216957Y00695
Y0087543
Y01045
Y0121043
X-0229Y0119763
X-02293Y00933
X-0236047Y0087047
X-0242Y0077
X-0236047Y0144047
X-0216957Y01385
X-02489Y01271
X0036614Y021624
X003937Y0219882
X0040007Y0223425
X0043406Y0223228
X0047146Y0225197
X0052Y02265
X0065Y0231
X0063Y0234
X00665Y02365
X0069Y023
T02
X0176Y0032
X0183874
T03
X014272Y0194
X01565
T04
X-01085Y00095
X-0089
X-0069
X00265Y0035
X00363
X00463
X00563
X01163Y0005
X01263
X01363
X01463
X02263Y0036
X0282Y0053
X0291833
X0301667
X03115
X0316225Y0005
X03263
X03363
X030615
X0296075
X0286
X0282Y01125
X0291833
X0301667
X03115
X0343Y0101
X02295Y0095831
Y0106736
Y0117642
Y0128547
Y0139453
Y0150358
Y0161264
Y0172169
X0218319Y0166717
Y0155811
Y0144905
Y0134
Y0123094
Y0112189
Y0101284
X01935Y0134
Y0144833
Y0155667
Y01665
X007409Y0161264
Y0150358
Y0139453
Y0128547
Y0117642
Y0106736
Y0095831
Y0172169
X006291Y0166717
Y0155811
Y0144905
Y0134
Y0123094
Y0112189
Y0101284
X0038Y010475
Y01155
Y012625
Y0137
Y0094
X-0005Y0095
Y0105
X-0005354Y0115
Y0125
X-00045Y0155
X-0081319Y0150358
Y0161264
Y0172169
Y0139453
Y0128547
Y0117642
Y0106736
Y0095831
X-00925Y0101284
Y0112189
Y0123094
Y0134
Y0144905
Y0155811
Y0166717
X-0118Y01665
Y0155811
Y01455
Y0134
Y0112
X-0174335Y0189
X-0194335
X-0204335
X-0214335
Y0209
X-0204335
X-0194335
X-0174335
X-0256819Y0130669
Y0119763
Y0108858
Y0097952
Y0087047
X-0268Y00925
Y0103405
Y0114311
Y0125216
X00535Y02635
T05
X-0113Y0031
X-0103
X-00735Y00315
X-00635
T06
X00263Y0015
Y0025
X00363
X00463
X00563
Y0015
X00463
X00363
X00663
X00763
Y0025
X00863
X00963
X01063
X01163
X01263
X01363
X01463
Y0015
X01363
X01263
X01163
X01063
X00963
X00863
X00663Y0025
X02163
Y0015
X02263
Y0025
X02363
X02463
X02563
X02663
X02763
X02863
X02963
X03063
X03163
X03263
X03363
Y0015
X03263
X03163
X03063
X02963
X02863
X02763
X02663
X02563
X02463
X02363
X0025Y0095
Y0105
Y0115
Y0125
Y0135
Y0145
Y0155
Y0165
Y0175
Y0185
Y0195
Y0205
X0015
Y0195
Y0185
Y0175
Y0165
Y0155
Y0145
Y0135
Y0125
Y0115
Y0105
Y0095
Y0215
X0025
T07
X-0194Y00595
X-0184
X-0174
Y00762
X-0184
X-0194
Y00929
X-0184
X-0174
Y01096
X-0184
X-0194
Y01263
X-0184
X-0174
Y0143
X-0184
X-0194
T08
X-0268Y019422
Y0208
Y0221779
X-0239728Y02425
X-0225949
X-0212169
X-019839
X-018461
X-0170831
X-0157051
X-0143272
X-0116559
X-0102779
X-0089
X-0075221
X-0061441
X-0047661
X-0033882
X-0020102
X0160941Y0243
X0174721
X01885Y0243
X0202279
X0216059
X0229839
X0243618
X0257398
X0271177
X0284957
T09
X00895Y0235252
X01095
T10
X0223909Y006841
Y0199591
X00685
Y006841
X-008691
Y0199591
X-0262409Y015807
Y0059645
T11
X-028Y0025
X002Y0055
X03425
X-028Y0255
X002
X03425
M30
