G04*
G04 #@! TF.GenerationSoftware,Altium Limited,Altium Designer,18.1.9 (240)*
G04*
G04 Layer_Color=32896*
%FSLAX25Y25*%
%MOIN*%
G70*
G01*
G75*
%ADD10C,0.00394*%
%ADD11C,0.00787*%
%ADD12C,0.00295*%
G36*
X149046Y37941D02*
X149149D01*
X149176Y37935D01*
X149183D01*
X149217Y37928D01*
X149244Y37921D01*
X149258Y37914D01*
X149265D01*
X149299Y37900D01*
X149306Y37894D01*
X149313D01*
X150406Y37183D01*
X150440Y37163D01*
X150460Y37149D01*
X150474Y37135D01*
X150481Y37129D01*
X150501Y37108D01*
X150508Y37081D01*
X150522Y37060D01*
Y37053D01*
X150528Y37019D01*
X150535Y36985D01*
X150542Y36965D01*
Y36951D01*
Y36903D01*
Y36849D01*
Y36808D01*
Y36801D01*
Y36794D01*
Y36691D01*
Y36657D01*
X150535Y36623D01*
Y36596D01*
Y36575D01*
Y36569D01*
Y36562D01*
X150522Y36507D01*
X150508Y36473D01*
X150494Y36452D01*
X150487Y36446D01*
X150460Y36425D01*
X150433Y36418D01*
X150399D01*
X150351Y36432D01*
X150303Y36452D01*
X150262Y36473D01*
X150255Y36480D01*
X150248D01*
X149429Y36931D01*
Y33618D01*
X150378D01*
X150399Y33611D01*
X150419Y33604D01*
X150433Y33597D01*
X150440Y33591D01*
X150460Y33570D01*
X150474Y33550D01*
X150487Y33529D01*
X150494Y33522D01*
X150508Y33481D01*
X150515Y33440D01*
X150522Y33413D01*
Y33406D01*
Y33399D01*
X150528Y33338D01*
Y33277D01*
Y33249D01*
Y33229D01*
Y33215D01*
Y33208D01*
Y33133D01*
X150522Y33078D01*
Y33037D01*
Y33031D01*
Y33024D01*
X150508Y32976D01*
X150501Y32935D01*
X150487Y32908D01*
Y32901D01*
X150474Y32873D01*
X150453Y32846D01*
X150446Y32839D01*
X150440Y32833D01*
X150399Y32819D01*
X147544D01*
X147523Y32826D01*
X147510Y32833D01*
X147503D01*
X147482Y32853D01*
X147469Y32873D01*
X147455Y32894D01*
Y32901D01*
X147441Y32942D01*
X147428Y32983D01*
X147421Y33010D01*
Y33024D01*
X147414Y33085D01*
X147407Y33147D01*
Y33167D01*
Y33188D01*
Y33201D01*
Y33208D01*
Y33290D01*
X147414Y33345D01*
X147421Y33386D01*
Y33399D01*
X147428Y33447D01*
X147441Y33488D01*
X147448Y33516D01*
X147455Y33522D01*
X147469Y33557D01*
X147489Y33577D01*
X147496Y33584D01*
X147503Y33591D01*
X147523Y33604D01*
X147544Y33618D01*
X148398D01*
Y37825D01*
Y37846D01*
X148404Y37866D01*
X148411Y37873D01*
X148418Y37880D01*
X148432Y37900D01*
X148452Y37914D01*
X148473Y37921D01*
X148479D01*
X148520Y37928D01*
X148568Y37935D01*
X148609Y37941D01*
X148623D01*
X148698Y37948D01*
X149005D01*
X149046Y37941D01*
D02*
G37*
G36*
X152338Y37928D02*
X152407D01*
X152427Y37921D01*
X152448D01*
X152516Y37914D01*
X152571Y37907D01*
X152598Y37900D01*
X152612Y37894D01*
X152646Y37880D01*
X152673Y37859D01*
X152687Y37846D01*
X152694Y37839D01*
X152707Y37819D01*
X152714Y37798D01*
Y37778D01*
Y37771D01*
Y34274D01*
Y34205D01*
X152721Y34137D01*
X152728Y34082D01*
Y34042D01*
X152734Y34001D01*
X152741Y33973D01*
X152748Y33959D01*
Y33953D01*
X152776Y33871D01*
X152796Y33816D01*
X152823Y33775D01*
X152830Y33768D01*
Y33761D01*
X152871Y33714D01*
X152912Y33680D01*
X152946Y33666D01*
X152953Y33659D01*
X152960D01*
X153021Y33645D01*
X153083Y33639D01*
X153124Y33632D01*
X153144D01*
X153219Y33639D01*
X153274Y33645D01*
X153315Y33652D01*
X153329D01*
X153383Y33673D01*
X153424Y33693D01*
X153452Y33700D01*
X153465Y33707D01*
X153506Y33727D01*
X153541Y33748D01*
X153568Y33755D01*
X153575Y33761D01*
X153602Y33775D01*
X153629Y33789D01*
X153657D01*
X153677Y33782D01*
X153698Y33775D01*
X153711Y33768D01*
X153718Y33761D01*
X153738Y33741D01*
X153745Y33714D01*
X153759Y33693D01*
Y33686D01*
X153766Y33645D01*
X153773Y33597D01*
X153779Y33557D01*
Y33550D01*
Y33543D01*
Y33468D01*
Y33399D01*
Y33365D01*
Y33338D01*
Y33324D01*
Y33318D01*
Y33249D01*
Y33195D01*
Y33160D01*
Y33147D01*
X153773Y33099D01*
Y33065D01*
X153766Y33037D01*
Y33031D01*
X153752Y33003D01*
X153745Y32983D01*
X153738Y32969D01*
Y32962D01*
X153711Y32928D01*
X153698Y32915D01*
Y32908D01*
X153670Y32894D01*
X153636Y32873D01*
X153616Y32860D01*
X153602Y32853D01*
X153547Y32833D01*
X153493Y32812D01*
X153452Y32805D01*
X153445Y32798D01*
X153438D01*
X153363Y32785D01*
X153295Y32771D01*
X153267Y32764D01*
X153247D01*
X153233Y32757D01*
X153226D01*
X153138Y32744D01*
X153062Y32737D01*
X152987D01*
X152857Y32744D01*
X152734Y32751D01*
X152632Y32764D01*
X152543Y32785D01*
X152468Y32805D01*
X152413Y32819D01*
X152386Y32826D01*
X152373Y32833D01*
X152284Y32873D01*
X152202Y32921D01*
X152134Y32976D01*
X152072Y33024D01*
X152024Y33065D01*
X151990Y33099D01*
X151970Y33126D01*
X151963Y33133D01*
X151908Y33208D01*
X151860Y33290D01*
X151826Y33372D01*
X151792Y33440D01*
X151771Y33509D01*
X151758Y33557D01*
X151744Y33591D01*
Y33604D01*
X151703Y33823D01*
X151690Y33925D01*
X151683Y34021D01*
X151676Y34110D01*
Y34171D01*
Y34199D01*
Y34219D01*
Y34226D01*
Y34233D01*
Y37771D01*
X151683Y37798D01*
X151690Y37819D01*
X151696Y37832D01*
X151703Y37839D01*
X151731Y37859D01*
X151758Y37880D01*
X151778Y37887D01*
X151792Y37894D01*
X151847Y37907D01*
X151894Y37914D01*
X151935Y37921D01*
X151956D01*
X152031Y37928D01*
X152113Y37935D01*
X152297D01*
X152338Y37928D01*
D02*
G37*
G36*
X339326Y37996D02*
X339408Y37989D01*
X339477Y37982D01*
X339538Y37969D01*
X339586Y37962D01*
X339613Y37955D01*
X339627D01*
X339709Y37935D01*
X339791Y37914D01*
X339866Y37900D01*
X339927Y37880D01*
X339982Y37866D01*
X340023Y37853D01*
X340050Y37839D01*
X340057D01*
X340125Y37812D01*
X340187Y37791D01*
X340242Y37764D01*
X340289Y37743D01*
X340323Y37723D01*
X340358Y37709D01*
X340371Y37702D01*
X340378Y37696D01*
X340426Y37668D01*
X340460Y37648D01*
X340522Y37613D01*
X340549Y37586D01*
X340563Y37579D01*
X340590Y37545D01*
X340617Y37518D01*
X340624Y37504D01*
X340631Y37497D01*
X340651Y37443D01*
X340658Y37422D01*
Y37416D01*
X340665Y37381D01*
X340672Y37347D01*
X340679Y37327D01*
Y37313D01*
Y37265D01*
Y37211D01*
Y37170D01*
Y37163D01*
Y37156D01*
Y37067D01*
X340672Y36992D01*
Y36965D01*
Y36951D01*
Y36937D01*
Y36931D01*
X340665Y36869D01*
X340658Y36821D01*
X340651Y36794D01*
Y36780D01*
X340638Y36746D01*
X340624Y36726D01*
X340610Y36712D01*
Y36705D01*
X340590Y36691D01*
X340563Y36685D01*
X340542D01*
X340501Y36691D01*
X340453Y36712D01*
X340419Y36733D01*
X340412Y36739D01*
X340406D01*
X340330Y36787D01*
X340255Y36828D01*
X340228Y36842D01*
X340201Y36855D01*
X340187Y36869D01*
X340180D01*
X340071Y36924D01*
X339968Y36965D01*
X339927Y36985D01*
X339893Y36992D01*
X339873Y37006D01*
X339866D01*
X339722Y37040D01*
X339654Y37053D01*
X339586Y37060D01*
X339531Y37067D01*
X339449D01*
X339333Y37060D01*
X339285Y37053D01*
X339244Y37040D01*
X339210Y37033D01*
X339183Y37019D01*
X339169Y37012D01*
X339162D01*
X339081Y36972D01*
X339019Y36924D01*
X338978Y36890D01*
X338964Y36883D01*
Y36876D01*
X338910Y36808D01*
X338869Y36746D01*
X338855Y36719D01*
X338848Y36698D01*
X338841Y36685D01*
Y36678D01*
X338814Y36589D01*
X338801Y36514D01*
X338794Y36480D01*
Y36452D01*
Y36439D01*
Y36432D01*
X338801Y36323D01*
X338807Y36227D01*
X338814Y36186D01*
X338821Y36159D01*
X338828Y36138D01*
Y36131D01*
X338862Y36015D01*
X338882Y35954D01*
X338903Y35899D01*
X338923Y35858D01*
X338944Y35824D01*
X338951Y35797D01*
X338958Y35790D01*
X338992Y35722D01*
X339033Y35647D01*
X339074Y35578D01*
X339115Y35510D01*
X339156Y35455D01*
X339183Y35414D01*
X339203Y35387D01*
X339210Y35373D01*
X339272Y35285D01*
X339340Y35203D01*
X339415Y35114D01*
X339483Y35039D01*
X339538Y34970D01*
X339593Y34923D01*
X339620Y34888D01*
X339634Y34875D01*
X340515Y33932D01*
X340569Y33878D01*
X340610Y33830D01*
X340638Y33796D01*
X340645Y33782D01*
X340679Y33734D01*
X340706Y33686D01*
X340720Y33652D01*
X340726Y33645D01*
Y33639D01*
X340747Y33577D01*
X340754Y33522D01*
X340768Y33481D01*
Y33475D01*
Y33468D01*
X340774Y33399D01*
Y33324D01*
Y33297D01*
Y33270D01*
Y33256D01*
Y33249D01*
Y33154D01*
X340768Y33085D01*
Y33058D01*
X340761Y33037D01*
Y33031D01*
Y33024D01*
X340740Y32962D01*
X340726Y32921D01*
X340713Y32894D01*
X340706Y32887D01*
X340672Y32860D01*
X340638Y32846D01*
X340610Y32833D01*
X340604D01*
X340549Y32826D01*
X340501Y32819D01*
X337523D01*
X337496Y32826D01*
X337475Y32833D01*
X337462Y32839D01*
X337455D01*
X337435Y32860D01*
X337414Y32880D01*
X337407Y32901D01*
X337400Y32908D01*
X337387Y32956D01*
X337380Y32996D01*
X337373Y33031D01*
Y33044D01*
X337366Y33106D01*
X337359Y33174D01*
Y33195D01*
Y33215D01*
Y33229D01*
Y33235D01*
Y33311D01*
X337366Y33372D01*
X337373Y33413D01*
Y33420D01*
Y33427D01*
X337387Y33481D01*
X337400Y33522D01*
X337407Y33550D01*
X337414Y33557D01*
X337428Y33591D01*
X337448Y33618D01*
X337462Y33625D01*
X337469Y33632D01*
X337496Y33645D01*
X337516Y33659D01*
X339545D01*
X338951Y34267D01*
X338794Y34431D01*
X338650Y34574D01*
X338527Y34711D01*
X338425Y34820D01*
X338343Y34916D01*
X338281Y34984D01*
X338261Y35011D01*
X338247Y35032D01*
X338234Y35039D01*
Y35045D01*
X338138Y35168D01*
X338049Y35285D01*
X337981Y35387D01*
X337919Y35476D01*
X337872Y35551D01*
X337837Y35612D01*
X337817Y35647D01*
X337810Y35660D01*
X337755Y35763D01*
X337715Y35858D01*
X337680Y35947D01*
X337653Y36022D01*
X337632Y36090D01*
X337619Y36138D01*
X337612Y36166D01*
Y36179D01*
X337585Y36357D01*
X337578Y36439D01*
X337571Y36514D01*
X337564Y36575D01*
Y36623D01*
Y36650D01*
Y36664D01*
X337571Y36767D01*
X337578Y36869D01*
X337598Y36958D01*
X337612Y37040D01*
X337632Y37101D01*
X337653Y37156D01*
X337660Y37183D01*
X337667Y37197D01*
X337708Y37286D01*
X337755Y37368D01*
X337803Y37436D01*
X337851Y37504D01*
X337892Y37552D01*
X337926Y37586D01*
X337953Y37613D01*
X337960Y37620D01*
X338035Y37682D01*
X338118Y37736D01*
X338199Y37784D01*
X338275Y37825D01*
X338350Y37859D01*
X338404Y37880D01*
X338439Y37894D01*
X338445Y37900D01*
X338452D01*
X338568Y37935D01*
X338684Y37962D01*
X338801Y37975D01*
X338910Y37989D01*
X338999Y37996D01*
X339074Y38003D01*
X339238D01*
X339326Y37996D01*
D02*
G37*
G36*
X342338Y37928D02*
X342407D01*
X342427Y37921D01*
X342448D01*
X342516Y37914D01*
X342571Y37907D01*
X342598Y37900D01*
X342612Y37894D01*
X342646Y37880D01*
X342673Y37859D01*
X342687Y37846D01*
X342694Y37839D01*
X342707Y37819D01*
X342714Y37798D01*
Y37778D01*
Y37771D01*
Y34274D01*
Y34205D01*
X342721Y34137D01*
X342728Y34082D01*
Y34042D01*
X342735Y34001D01*
X342741Y33973D01*
X342748Y33959D01*
Y33953D01*
X342776Y33871D01*
X342796Y33816D01*
X342823Y33775D01*
X342830Y33768D01*
Y33761D01*
X342871Y33714D01*
X342912Y33680D01*
X342946Y33666D01*
X342953Y33659D01*
X342960D01*
X343021Y33645D01*
X343083Y33639D01*
X343124Y33632D01*
X343144D01*
X343219Y33639D01*
X343274Y33645D01*
X343315Y33652D01*
X343329D01*
X343383Y33673D01*
X343424Y33693D01*
X343452Y33700D01*
X343465Y33707D01*
X343506Y33727D01*
X343541Y33748D01*
X343568Y33755D01*
X343575Y33761D01*
X343602Y33775D01*
X343629Y33789D01*
X343657D01*
X343677Y33782D01*
X343698Y33775D01*
X343711Y33768D01*
X343718Y33761D01*
X343739Y33741D01*
X343745Y33714D01*
X343759Y33693D01*
Y33686D01*
X343766Y33645D01*
X343773Y33597D01*
X343779Y33557D01*
Y33550D01*
Y33543D01*
Y33468D01*
Y33399D01*
Y33365D01*
Y33338D01*
Y33324D01*
Y33318D01*
Y33249D01*
Y33195D01*
Y33160D01*
Y33147D01*
X343773Y33099D01*
Y33065D01*
X343766Y33037D01*
Y33031D01*
X343752Y33003D01*
X343745Y32983D01*
X343739Y32969D01*
Y32962D01*
X343711Y32928D01*
X343698Y32915D01*
Y32908D01*
X343670Y32894D01*
X343636Y32873D01*
X343616Y32860D01*
X343602Y32853D01*
X343547Y32833D01*
X343493Y32812D01*
X343452Y32805D01*
X343445Y32798D01*
X343438D01*
X343363Y32785D01*
X343295Y32771D01*
X343267Y32764D01*
X343247D01*
X343233Y32757D01*
X343226D01*
X343138Y32744D01*
X343062Y32737D01*
X342987D01*
X342858Y32744D01*
X342735Y32751D01*
X342632Y32764D01*
X342543Y32785D01*
X342468Y32805D01*
X342413Y32819D01*
X342386Y32826D01*
X342372Y32833D01*
X342284Y32873D01*
X342202Y32921D01*
X342133Y32976D01*
X342072Y33024D01*
X342024Y33065D01*
X341990Y33099D01*
X341970Y33126D01*
X341963Y33133D01*
X341908Y33208D01*
X341860Y33290D01*
X341826Y33372D01*
X341792Y33440D01*
X341772Y33509D01*
X341758Y33557D01*
X341744Y33591D01*
Y33604D01*
X341703Y33823D01*
X341689Y33925D01*
X341683Y34021D01*
X341676Y34110D01*
Y34171D01*
Y34199D01*
Y34219D01*
Y34226D01*
Y34233D01*
Y37771D01*
X341683Y37798D01*
X341689Y37819D01*
X341696Y37832D01*
X341703Y37839D01*
X341730Y37859D01*
X341758Y37880D01*
X341778Y37887D01*
X341792Y37894D01*
X341847Y37907D01*
X341894Y37914D01*
X341935Y37921D01*
X341956D01*
X342031Y37928D01*
X342113Y37935D01*
X342297D01*
X342338Y37928D01*
D02*
G37*
G36*
X26254Y229796D02*
X26342Y229789D01*
X26418Y229776D01*
X26486Y229769D01*
X26534Y229755D01*
X26561Y229748D01*
X26575D01*
X26664Y229728D01*
X26745Y229707D01*
X26814Y229687D01*
X26882Y229666D01*
X26930Y229653D01*
X26971Y229639D01*
X26998Y229632D01*
X27005Y229625D01*
X27073Y229598D01*
X27128Y229577D01*
X27183Y229550D01*
X27230Y229530D01*
X27264Y229509D01*
X27292Y229496D01*
X27305Y229489D01*
X27312Y229482D01*
X27353Y229454D01*
X27387Y229434D01*
X27435Y229400D01*
X27463Y229379D01*
X27469Y229373D01*
X27497Y229345D01*
X27517Y229325D01*
X27524Y229311D01*
X27531Y229304D01*
X27551Y229257D01*
X27558Y229236D01*
Y229229D01*
X27565Y229195D01*
Y229161D01*
X27572Y229134D01*
Y229120D01*
Y229065D01*
Y229017D01*
Y228976D01*
Y228963D01*
Y228956D01*
Y228874D01*
X27565Y228819D01*
Y228778D01*
Y228771D01*
Y228765D01*
X27558Y228717D01*
X27551Y228676D01*
X27545Y228655D01*
Y228649D01*
X27531Y228628D01*
X27524Y228614D01*
X27510Y228601D01*
X27469Y228587D01*
X27449D01*
X27408Y228594D01*
X27360Y228621D01*
X27319Y228642D01*
X27312Y228649D01*
X27305D01*
X27224Y228696D01*
X27142Y228737D01*
X27107Y228758D01*
X27080Y228771D01*
X27066Y228785D01*
X27060D01*
X26950Y228840D01*
X26848Y228881D01*
X26800Y228901D01*
X26766Y228908D01*
X26745Y228922D01*
X26739D01*
X26602Y228956D01*
X26534Y228970D01*
X26472Y228976D01*
X26424Y228983D01*
X26349D01*
X26226Y228976D01*
X26172Y228970D01*
X26131Y228956D01*
X26090Y228949D01*
X26062Y228935D01*
X26049Y228929D01*
X26042D01*
X25953Y228888D01*
X25878Y228840D01*
X25857Y228826D01*
X25837Y228806D01*
X25830Y228799D01*
X25823Y228792D01*
X25769Y228724D01*
X25728Y228662D01*
X25714Y228635D01*
X25701Y228614D01*
X25694Y228601D01*
Y228594D01*
X25666Y228505D01*
X25653Y228430D01*
X25646Y228396D01*
Y228369D01*
Y228355D01*
Y228348D01*
X25659Y228225D01*
X25666Y228170D01*
X25680Y228130D01*
X25694Y228088D01*
X25701Y228061D01*
X25714Y228041D01*
Y228034D01*
X25769Y227938D01*
X25830Y227863D01*
X25857Y227836D01*
X25878Y227815D01*
X25892Y227802D01*
X25899Y227795D01*
X25994Y227733D01*
X26090Y227686D01*
X26131Y227665D01*
X26165Y227658D01*
X26185Y227645D01*
X26192D01*
X26329Y227617D01*
X26397Y227610D01*
X26459Y227604D01*
X26513Y227597D01*
X27073D01*
X27101Y227590D01*
X27114Y227583D01*
X27121Y227576D01*
X27142Y227563D01*
X27155Y227542D01*
X27169Y227529D01*
X27176Y227522D01*
X27189Y227487D01*
X27196Y227447D01*
X27203Y227419D01*
Y227412D01*
Y227406D01*
X27210Y227351D01*
Y227289D01*
Y227262D01*
Y227242D01*
Y227228D01*
Y227221D01*
Y227139D01*
X27203Y227078D01*
Y227037D01*
Y227030D01*
Y227023D01*
X27196Y226975D01*
X27189Y226934D01*
X27176Y226914D01*
Y226907D01*
X27155Y226880D01*
X27135Y226866D01*
X27121Y226852D01*
X27114D01*
X27080Y226846D01*
X27053Y226839D01*
X26479D01*
X26390Y226832D01*
X26308Y226818D01*
X26240Y226811D01*
X26185Y226798D01*
X26138Y226784D01*
X26110Y226777D01*
X26103D01*
X26028Y226757D01*
X25960Y226729D01*
X25905Y226702D01*
X25851Y226682D01*
X25817Y226654D01*
X25782Y226641D01*
X25769Y226627D01*
X25762Y226620D01*
X25673Y226545D01*
X25605Y226463D01*
X25584Y226429D01*
X25571Y226408D01*
X25557Y226388D01*
Y226381D01*
X25530Y226326D01*
X25516Y226272D01*
X25489Y226176D01*
Y226128D01*
X25482Y226094D01*
Y226074D01*
Y226067D01*
X25489Y225951D01*
X25502Y225903D01*
X25509Y225862D01*
X25523Y225821D01*
X25537Y225794D01*
X25543Y225780D01*
Y225773D01*
X25591Y225684D01*
X25646Y225609D01*
X25673Y225582D01*
X25694Y225568D01*
X25707Y225555D01*
X25714Y225548D01*
X25810Y225486D01*
X25899Y225438D01*
X25940Y225425D01*
X25974Y225411D01*
X25994Y225404D01*
X26001D01*
X26131Y225377D01*
X26192Y225370D01*
X26247Y225363D01*
X26302Y225357D01*
X26472D01*
X26554Y225363D01*
X26636Y225370D01*
X26704Y225384D01*
X26759Y225391D01*
X26800Y225397D01*
X26827Y225404D01*
X26834D01*
X26902Y225425D01*
X26971Y225445D01*
X27032Y225466D01*
X27080Y225486D01*
X27121Y225500D01*
X27155Y225514D01*
X27176Y225520D01*
X27183D01*
X27285Y225561D01*
X27326Y225582D01*
X27360Y225602D01*
X27387Y225616D01*
X27408Y225630D01*
X27422Y225637D01*
X27428D01*
X27490Y225671D01*
X27531Y225684D01*
X27558Y225691D01*
X27586D01*
X27606Y225677D01*
X27633Y225657D01*
X27654Y225630D01*
X27661Y225623D01*
Y225616D01*
X27667Y225582D01*
X27674Y225541D01*
X27681Y225452D01*
X27688Y225411D01*
Y225384D01*
Y225357D01*
Y225350D01*
Y225275D01*
Y225213D01*
Y225172D01*
Y225165D01*
Y225159D01*
X27681Y225104D01*
X27674Y225063D01*
X27667Y225029D01*
Y225022D01*
X27654Y224981D01*
X27647Y224954D01*
X27640Y224933D01*
Y224926D01*
X27606Y224878D01*
X27592Y224865D01*
X27586Y224858D01*
X27545Y224831D01*
X27497Y224803D01*
X27456Y224783D01*
X27442Y224769D01*
X27435D01*
X27340Y224728D01*
X27251Y224687D01*
X27210Y224674D01*
X27176Y224660D01*
X27155Y224653D01*
X27148D01*
X27012Y224619D01*
X26943Y224605D01*
X26882Y224592D01*
X26827Y224585D01*
X26786Y224578D01*
X26752Y224571D01*
X26745D01*
X26568Y224551D01*
X26486Y224537D01*
X26411D01*
X26349Y224530D01*
X26254D01*
X26097Y224537D01*
X25946Y224544D01*
X25817Y224564D01*
X25694Y224585D01*
X25598Y224598D01*
X25523Y224619D01*
X25496Y224626D01*
X25475D01*
X25468Y224633D01*
X25461D01*
X25332Y224674D01*
X25209Y224721D01*
X25106Y224776D01*
X25017Y224824D01*
X24942Y224865D01*
X24888Y224899D01*
X24854Y224926D01*
X24840Y224933D01*
X24751Y225015D01*
X24669Y225097D01*
X24601Y225179D01*
X24539Y225261D01*
X24498Y225329D01*
X24464Y225384D01*
X24444Y225418D01*
X24437Y225432D01*
X24389Y225548D01*
X24348Y225664D01*
X24321Y225773D01*
X24307Y225882D01*
X24294Y225971D01*
X24287Y226046D01*
Y226074D01*
Y226094D01*
Y226101D01*
Y226108D01*
Y226190D01*
X24300Y226272D01*
X24314Y226340D01*
X24328Y226401D01*
X24341Y226456D01*
X24355Y226497D01*
X24362Y226524D01*
X24369Y226531D01*
X24437Y226668D01*
X24478Y226729D01*
X24512Y226784D01*
X24546Y226825D01*
X24574Y226859D01*
X24594Y226880D01*
X24601Y226887D01*
X24717Y226996D01*
X24778Y227044D01*
X24833Y227084D01*
X24881Y227112D01*
X24922Y227132D01*
X24949Y227146D01*
X24956Y227153D01*
X25120Y227214D01*
X25202Y227242D01*
X25277Y227262D01*
X25339Y227276D01*
X25386Y227283D01*
X25420Y227289D01*
X25434D01*
Y227296D01*
X25352Y227317D01*
X25277Y227344D01*
X25209Y227371D01*
X25154Y227399D01*
X25106Y227426D01*
X25065Y227440D01*
X25045Y227453D01*
X25038Y227460D01*
X24976Y227508D01*
X24922Y227549D01*
X24874Y227597D01*
X24833Y227638D01*
X24799Y227679D01*
X24778Y227706D01*
X24765Y227727D01*
X24758Y227733D01*
X24683Y227856D01*
X24649Y227918D01*
X24628Y227972D01*
X24608Y228020D01*
X24594Y228054D01*
X24580Y228082D01*
Y228088D01*
X24546Y228246D01*
X24532Y228314D01*
X24526Y228382D01*
X24519Y228444D01*
Y228485D01*
Y228519D01*
Y228526D01*
X24526Y228635D01*
X24532Y228737D01*
X24553Y228826D01*
X24567Y228908D01*
X24587Y228970D01*
X24608Y229017D01*
X24614Y229045D01*
X24621Y229058D01*
X24662Y229147D01*
X24710Y229222D01*
X24758Y229291D01*
X24813Y229352D01*
X24854Y229400D01*
X24888Y229434D01*
X24915Y229454D01*
X24922Y229461D01*
X24997Y229523D01*
X25079Y229571D01*
X25154Y229612D01*
X25229Y229653D01*
X25297Y229680D01*
X25352Y229700D01*
X25386Y229707D01*
X25400Y229714D01*
X25509Y229741D01*
X25618Y229769D01*
X25728Y229782D01*
X25830Y229789D01*
X25919Y229796D01*
X25987Y229803D01*
X26151D01*
X26254Y229796D01*
D02*
G37*
G36*
X29238Y229728D02*
X29307D01*
X29327Y229721D01*
X29348D01*
X29416Y229714D01*
X29471Y229707D01*
X29498Y229700D01*
X29512Y229694D01*
X29546Y229680D01*
X29573Y229659D01*
X29587Y229646D01*
X29594Y229639D01*
X29607Y229618D01*
X29614Y229598D01*
Y229577D01*
Y229571D01*
Y226074D01*
Y226005D01*
X29621Y225937D01*
X29628Y225882D01*
Y225841D01*
X29634Y225800D01*
X29641Y225773D01*
X29648Y225760D01*
Y225753D01*
X29675Y225671D01*
X29696Y225616D01*
X29723Y225575D01*
X29730Y225568D01*
Y225561D01*
X29771Y225514D01*
X29812Y225480D01*
X29846Y225466D01*
X29853Y225459D01*
X29860D01*
X29921Y225445D01*
X29983Y225438D01*
X30024Y225432D01*
X30044D01*
X30119Y225438D01*
X30174Y225445D01*
X30215Y225452D01*
X30229D01*
X30283Y225473D01*
X30324Y225493D01*
X30352Y225500D01*
X30365Y225507D01*
X30406Y225527D01*
X30441Y225548D01*
X30468Y225555D01*
X30475Y225561D01*
X30502Y225575D01*
X30529Y225589D01*
X30557D01*
X30577Y225582D01*
X30598Y225575D01*
X30611Y225568D01*
X30618Y225561D01*
X30639Y225541D01*
X30645Y225514D01*
X30659Y225493D01*
Y225486D01*
X30666Y225445D01*
X30673Y225397D01*
X30680Y225357D01*
Y225350D01*
Y225343D01*
Y225268D01*
Y225199D01*
Y225165D01*
Y225138D01*
Y225124D01*
Y225117D01*
Y225049D01*
Y224994D01*
Y224960D01*
Y224947D01*
X30673Y224899D01*
Y224865D01*
X30666Y224837D01*
Y224831D01*
X30652Y224803D01*
X30645Y224783D01*
X30639Y224769D01*
Y224762D01*
X30611Y224728D01*
X30598Y224714D01*
Y224708D01*
X30570Y224694D01*
X30536Y224674D01*
X30516Y224660D01*
X30502Y224653D01*
X30447Y224633D01*
X30393Y224612D01*
X30352Y224605D01*
X30345Y224598D01*
X30338D01*
X30263Y224585D01*
X30195Y224571D01*
X30167Y224564D01*
X30147D01*
X30133Y224557D01*
X30126D01*
X30038Y224544D01*
X29962Y224537D01*
X29887D01*
X29757Y224544D01*
X29634Y224551D01*
X29532Y224564D01*
X29443Y224585D01*
X29368Y224605D01*
X29313Y224619D01*
X29286Y224626D01*
X29272Y224633D01*
X29184Y224674D01*
X29102Y224721D01*
X29033Y224776D01*
X28972Y224824D01*
X28924Y224865D01*
X28890Y224899D01*
X28870Y224926D01*
X28863Y224933D01*
X28808Y225008D01*
X28760Y225090D01*
X28726Y225172D01*
X28692Y225240D01*
X28672Y225309D01*
X28658Y225357D01*
X28644Y225391D01*
Y225404D01*
X28603Y225623D01*
X28589Y225725D01*
X28583Y225821D01*
X28576Y225910D01*
Y225971D01*
Y225998D01*
Y226019D01*
Y226026D01*
Y226033D01*
Y229571D01*
X28583Y229598D01*
X28589Y229618D01*
X28596Y229632D01*
X28603Y229639D01*
X28631Y229659D01*
X28658Y229680D01*
X28678Y229687D01*
X28692Y229694D01*
X28747Y229707D01*
X28794Y229714D01*
X28835Y229721D01*
X28856D01*
X28931Y229728D01*
X29013Y229735D01*
X29197D01*
X29238Y229728D01*
D02*
G37*
D10*
X-263268Y25000D02*
G03*
X-263268Y25000I-16732J0D01*
G01*
Y255000D02*
G03*
X-263268Y255000I-16732J0D01*
G01*
X36732Y55000D02*
G03*
X36732Y55000I-16732J0D01*
G01*
Y255000D02*
G03*
X36732Y255000I-16732J0D01*
G01*
X359232D02*
G03*
X359232Y255000I-16732J0D01*
G01*
Y55000D02*
G03*
X359232Y55000I-16732J0D01*
G01*
D11*
X342796Y10256D02*
Y29744D01*
X209804D02*
X342796D01*
X209804Y10256D02*
X342796D01*
X209804D02*
Y29744D01*
X152796Y10256D02*
Y29744D01*
X19804D02*
X152796D01*
X19804Y10256D02*
X152796D01*
X19804D02*
Y29744D01*
X10256Y88504D02*
X29744D01*
X10256Y221496D02*
X29744D01*
Y88504D02*
Y221496D01*
X10256Y88504D02*
Y221496D01*
D12*
X-1259Y95000D02*
G03*
X-1259Y95000I-3741J0D01*
G01*
Y105000D02*
G03*
X-1259Y105000I-3741J0D01*
G01*
X197241Y166500D02*
G03*
X197241Y166500I-3741J0D01*
G01*
X-1613Y115000D02*
G03*
X-1613Y115000I-3741J0D01*
G01*
Y125000D02*
G03*
X-1613Y125000I-3741J0D01*
G01*
X197241Y155667D02*
G03*
X197241Y155667I-3741J0D01*
G01*
X315241Y112500D02*
G03*
X315241Y112500I-3741J0D01*
G01*
Y53000D02*
G03*
X315241Y53000I-3741J0D01*
G01*
X197241Y144833D02*
G03*
X197241Y144833I-3741J0D01*
G01*
X305408Y112500D02*
G03*
X305408Y112500I-3741J0D01*
G01*
Y53000D02*
G03*
X305408Y53000I-3741J0D01*
G01*
X295575Y112500D02*
G03*
X295575Y112500I-3741J0D01*
G01*
Y53000D02*
G03*
X295575Y53000I-3741J0D01*
G01*
X197241Y134000D02*
G03*
X197241Y134000I-3741J0D01*
G01*
X285741Y112500D02*
G03*
X285741Y112500I-3741J0D01*
G01*
Y53000D02*
G03*
X285741Y53000I-3741J0D01*
G01*
X-758Y155000D02*
G03*
X-758Y155000I-3741J0D01*
G01*
X340041Y5000D02*
G03*
X340041Y5000I-3741J0D01*
G01*
X330041D02*
G03*
X330041Y5000I-3741J0D01*
G01*
X319966D02*
G03*
X319966Y5000I-3741J0D01*
G01*
X309891D02*
G03*
X309891Y5000I-3741J0D01*
G01*
X299816D02*
G03*
X299816Y5000I-3741J0D01*
G01*
X289741D02*
G03*
X289741Y5000I-3741J0D01*
G01*
X41741Y137000D02*
G03*
X41741Y137000I-3741J0D01*
G01*
Y126250D02*
G03*
X41741Y126250I-3741J0D01*
G01*
X230041Y36000D02*
G03*
X230041Y36000I-3741J0D01*
G01*
X41741Y115500D02*
G03*
X41741Y115500I-3741J0D01*
G01*
Y104750D02*
G03*
X41741Y104750I-3741J0D01*
G01*
Y94000D02*
G03*
X41741Y94000I-3741J0D01*
G01*
X150041Y5000D02*
G03*
X150041Y5000I-3741J0D01*
G01*
X140041D02*
G03*
X140041Y5000I-3741J0D01*
G01*
X130042D02*
G03*
X130042Y5000I-3741J0D01*
G01*
X120042D02*
G03*
X120042Y5000I-3741J0D01*
G01*
X60041Y35000D02*
G03*
X60041Y35000I-3741J0D01*
G01*
X50041D02*
G03*
X50041Y35000I-3741J0D01*
G01*
X40041D02*
G03*
X40041Y35000I-3741J0D01*
G01*
X30241D02*
G03*
X30241Y35000I-3741J0D01*
G01*
X-114259Y166500D02*
G03*
X-114259Y166500I-3741J0D01*
G01*
Y155811D02*
G03*
X-114259Y155811I-3741J0D01*
G01*
Y145500D02*
G03*
X-114259Y145500I-3741J0D01*
G01*
Y134000D02*
G03*
X-114259Y134000I-3741J0D01*
G01*
Y112000D02*
G03*
X-114259Y112000I-3741J0D01*
G01*
M02*
