G04*
G04 #@! TF.GenerationSoftware,Altium Limited,Altium Designer,18.1.9 (240)*
G04*
G04 Layer_Color=2752767*
%FSLAX25Y25*%
%MOIN*%
G70*
G01*
G75*
%ADD96C,0.00200*%
%ADD97C,0.00267*%
%ADD98C,0.00133*%
D96*
X-280800Y24200D02*
Y25800D01*
X-279200D01*
Y24200D01*
X-280800D01*
X183874Y31200D02*
X183074Y32800D01*
X184674D01*
X183874Y31200D01*
X176000D02*
X175200Y32800D01*
X176800D01*
X176000Y31200D01*
X223909Y198791D02*
X224309Y199191D01*
X224710D01*
X224309Y199591D01*
X224710Y199991D01*
X224309D01*
X223909Y200391D01*
X223510Y199991D01*
X223110D01*
X223510Y199591D01*
X223110Y199191D01*
X223510D01*
X223909Y198791D01*
Y67610D02*
X224309Y68010D01*
X224710D01*
X224309Y68410D01*
X224710Y68809D01*
X224309D01*
X223909Y69209D01*
X223510Y68809D01*
X223110D01*
X223510Y68410D01*
X223110Y68010D01*
X223510D01*
X223909Y67610D01*
X68500Y198791D02*
X68900Y199191D01*
X69300D01*
X68900Y199591D01*
X69300Y199991D01*
X68900D01*
X68500Y200391D01*
X68100Y199991D01*
X67700D01*
X68100Y199591D01*
X67700Y199191D01*
X68100D01*
X68500Y198791D01*
Y67610D02*
X68900Y68010D01*
X69300D01*
X68900Y68410D01*
X69300Y68809D01*
X68900D01*
X68500Y69209D01*
X68100Y68809D01*
X67700D01*
X68100Y68410D01*
X67700Y68010D01*
X68100D01*
X68500Y67610D01*
X-86910Y198791D02*
X-86510Y199191D01*
X-86110D01*
X-86510Y199591D01*
X-86110Y199991D01*
X-86510D01*
X-86910Y200391D01*
X-87309Y199991D01*
X-87709D01*
X-87309Y199591D01*
X-87709Y199191D01*
X-87309D01*
X-86910Y198791D01*
Y67610D02*
X-86510Y68010D01*
X-86110D01*
X-86510Y68410D01*
X-86110Y68809D01*
X-86510D01*
X-86910Y69209D01*
X-87309Y68809D01*
X-87709D01*
X-87309Y68410D01*
X-87709Y68010D01*
X-87309D01*
X-86910Y67610D01*
X-262409Y157270D02*
X-262009Y157670D01*
X-261609D01*
X-262009Y158070D01*
X-261609Y158470D01*
X-262009D01*
X-262409Y158870D01*
X-262809Y158470D01*
X-263209D01*
X-262809Y158070D01*
X-263209Y157670D01*
X-262809D01*
X-262409Y157270D01*
Y58845D02*
X-262009Y59245D01*
X-261609D01*
X-262009Y59645D01*
X-261609Y60045D01*
X-262009D01*
X-262409Y60445D01*
X-262809Y60045D01*
X-263209D01*
X-262809Y59645D01*
X-263209Y59245D01*
X-262809D01*
X-262409Y58845D01*
X-174800Y142200D02*
X-174400Y143000D01*
X-174800Y143800D01*
X-174000Y143400D01*
X-173200Y143800D01*
X-173600Y143000D01*
X-173200Y142200D01*
X-174000Y142600D01*
X-174800Y142200D01*
X-184800D02*
X-184400Y143000D01*
X-184800Y143800D01*
X-184000Y143400D01*
X-183200Y143800D01*
X-183600Y143000D01*
X-183200Y142200D01*
X-184000Y142600D01*
X-184800Y142200D01*
X-194800D02*
X-194400Y143000D01*
X-194800Y143800D01*
X-194000Y143400D01*
X-193200Y143800D01*
X-193600Y143000D01*
X-193200Y142200D01*
X-194000Y142600D01*
X-194800Y142200D01*
X-174800Y58700D02*
X-174400Y59500D01*
X-174800Y60300D01*
X-174000Y59900D01*
X-173200Y60300D01*
X-173600Y59500D01*
X-173200Y58700D01*
X-174000Y59100D01*
X-174800Y58700D01*
X-184800D02*
X-184400Y59500D01*
X-184800Y60300D01*
X-184000Y59900D01*
X-183200Y60300D01*
X-183600Y59500D01*
X-183200Y58700D01*
X-184000Y59100D01*
X-184800Y58700D01*
X-194800D02*
X-194400Y59500D01*
X-194800Y60300D01*
X-194000Y59900D01*
X-193200Y60300D01*
X-193600Y59500D01*
X-193200Y58700D01*
X-194000Y59100D01*
X-194800Y58700D01*
X-174800Y125500D02*
X-174400Y126300D01*
X-174800Y127100D01*
X-174000Y126700D01*
X-173200Y127100D01*
X-173600Y126300D01*
X-173200Y125500D01*
X-174000Y125900D01*
X-174800Y125500D01*
X-184800D02*
X-184400Y126300D01*
X-184800Y127100D01*
X-184000Y126700D01*
X-183200Y127100D01*
X-183600Y126300D01*
X-183200Y125500D01*
X-184000Y125900D01*
X-184800Y125500D01*
X-194800D02*
X-194400Y126300D01*
X-194800Y127100D01*
X-194000Y126700D01*
X-193200Y127100D01*
X-193600Y126300D01*
X-193200Y125500D01*
X-194000Y125900D01*
X-194800Y125500D01*
X-174800Y108800D02*
X-174400Y109600D01*
X-174800Y110400D01*
X-174000Y110000D01*
X-173200Y110400D01*
X-173600Y109600D01*
X-173200Y108800D01*
X-174000Y109200D01*
X-174800Y108800D01*
X-184800D02*
X-184400Y109600D01*
X-184800Y110400D01*
X-184000Y110000D01*
X-183200Y110400D01*
X-183600Y109600D01*
X-183200Y108800D01*
X-184000Y109200D01*
X-184800Y108800D01*
X-194800D02*
X-194400Y109600D01*
X-194800Y110400D01*
X-194000Y110000D01*
X-193200Y110400D01*
X-193600Y109600D01*
X-193200Y108800D01*
X-194000Y109200D01*
X-194800Y108800D01*
X-174800Y92100D02*
X-174400Y92900D01*
X-174800Y93700D01*
X-174000Y93300D01*
X-173200Y93700D01*
X-173600Y92900D01*
X-173200Y92100D01*
X-174000Y92500D01*
X-174800Y92100D01*
X-184800D02*
X-184400Y92900D01*
X-184800Y93700D01*
X-184000Y93300D01*
X-183200Y93700D01*
X-183600Y92900D01*
X-183200Y92100D01*
X-184000Y92500D01*
X-184800Y92100D01*
X-194800D02*
X-194400Y92900D01*
X-194800Y93700D01*
X-194000Y93300D01*
X-193200Y93700D01*
X-193600Y92900D01*
X-193200Y92100D01*
X-194000Y92500D01*
X-194800Y92100D01*
X-174800Y75400D02*
X-174400Y76200D01*
X-174800Y77000D01*
X-174000Y76600D01*
X-173200Y77000D01*
X-173600Y76200D01*
X-173200Y75400D01*
X-174000Y75800D01*
X-174800Y75400D01*
X-184800D02*
X-184400Y76200D01*
X-184800Y77000D01*
X-184000Y76600D01*
X-183200Y77000D01*
X-183600Y76200D01*
X-183200Y75400D01*
X-184000Y75800D01*
X-184800Y75400D01*
X-194800D02*
X-194400Y76200D01*
X-194800Y77000D01*
X-194000Y76600D01*
X-193200Y77000D01*
X-193600Y76200D01*
X-193200Y75400D01*
X-194000Y75800D01*
X-194800Y75400D01*
X-280800Y254200D02*
Y255800D01*
X-279200D01*
Y254200D01*
X-280800D01*
X325900Y24600D02*
Y24200D01*
X326700D01*
Y24600D01*
X327100D01*
Y25400D01*
X326700D01*
Y25800D01*
X325900D01*
Y25400D01*
X325500D01*
Y24600D01*
X325900D01*
X335900D02*
Y24200D01*
X336700D01*
Y24600D01*
X337100D01*
Y25400D01*
X336700D01*
Y25800D01*
X335900D01*
Y25400D01*
X335500D01*
Y24600D01*
X335900D01*
X305900D02*
Y24200D01*
X306700D01*
Y24600D01*
X307100D01*
Y25400D01*
X306700D01*
Y25800D01*
X305900D01*
Y25400D01*
X305500D01*
Y24600D01*
X305900D01*
X325900Y14600D02*
Y14200D01*
X326700D01*
Y14600D01*
X327100D01*
Y15400D01*
X326700D01*
Y15800D01*
X325900D01*
Y15400D01*
X325500D01*
Y14600D01*
X325900D01*
X315900Y24600D02*
Y24200D01*
X316700D01*
Y24600D01*
X317100D01*
Y25400D01*
X316700D01*
Y25800D01*
X315900D01*
Y25400D01*
X315500D01*
Y24600D01*
X315900D01*
X285900D02*
Y24200D01*
X286700D01*
Y24600D01*
X287100D01*
Y25400D01*
X286700D01*
Y25800D01*
X285900D01*
Y25400D01*
X285500D01*
Y24600D01*
X285900D01*
X295900D02*
Y24200D01*
X296700D01*
Y24600D01*
X297100D01*
Y25400D01*
X296700D01*
Y25800D01*
X295900D01*
Y25400D01*
X295500D01*
Y24600D01*
X295900D01*
X275900D02*
Y24200D01*
X276700D01*
Y24600D01*
X277100D01*
Y25400D01*
X276700D01*
Y25800D01*
X275900D01*
Y25400D01*
X275500D01*
Y24600D01*
X275900D01*
X265900Y14600D02*
Y14200D01*
X266700D01*
Y14600D01*
X267100D01*
Y15400D01*
X266700D01*
Y15800D01*
X265900D01*
Y15400D01*
X265500D01*
Y14600D01*
X265900D01*
Y24600D02*
Y24200D01*
X266700D01*
Y24600D01*
X267100D01*
Y25400D01*
X266700D01*
Y25800D01*
X265900D01*
Y25400D01*
X265500D01*
Y24600D01*
X265900D01*
X335900Y14600D02*
Y14200D01*
X336700D01*
Y14600D01*
X337100D01*
Y15400D01*
X336700D01*
Y15800D01*
X335900D01*
Y15400D01*
X335500D01*
Y14600D01*
X335900D01*
X315900D02*
Y14200D01*
X316700D01*
Y14600D01*
X317100D01*
Y15400D01*
X316700D01*
Y15800D01*
X315900D01*
Y15400D01*
X315500D01*
Y14600D01*
X315900D01*
X275900D02*
Y14200D01*
X276700D01*
Y14600D01*
X277100D01*
Y15400D01*
X276700D01*
Y15800D01*
X275900D01*
Y15400D01*
X275500D01*
Y14600D01*
X275900D01*
X285900D02*
Y14200D01*
X286700D01*
Y14600D01*
X287100D01*
Y15400D01*
X286700D01*
Y15800D01*
X285900D01*
Y15400D01*
X285500D01*
Y14600D01*
X285900D01*
X255900D02*
Y14200D01*
X256700D01*
Y14600D01*
X257100D01*
Y15400D01*
X256700D01*
Y15800D01*
X255900D01*
Y15400D01*
X255500D01*
Y14600D01*
X255900D01*
X305900D02*
Y14200D01*
X306700D01*
Y14600D01*
X307100D01*
Y15400D01*
X306700D01*
Y15800D01*
X305900D01*
Y15400D01*
X305500D01*
Y14600D01*
X305900D01*
X295900D02*
Y14200D01*
X296700D01*
Y14600D01*
X297100D01*
Y15400D01*
X296700D01*
Y15800D01*
X295900D01*
Y15400D01*
X295500D01*
Y14600D01*
X295900D01*
X255900Y24600D02*
Y24200D01*
X256700D01*
Y24600D01*
X257100D01*
Y25400D01*
X256700D01*
Y25800D01*
X255900D01*
Y25400D01*
X255500D01*
Y24600D01*
X255900D01*
X245900D02*
Y24200D01*
X246700D01*
Y24600D01*
X247100D01*
Y25400D01*
X246700D01*
Y25800D01*
X245900D01*
Y25400D01*
X245500D01*
Y24600D01*
X245900D01*
X225900D02*
Y24200D01*
X226700D01*
Y24600D01*
X227100D01*
Y25400D01*
X226700D01*
Y25800D01*
X225900D01*
Y25400D01*
X225500D01*
Y24600D01*
X225900D01*
X235900D02*
Y24200D01*
X236700D01*
Y24600D01*
X237100D01*
Y25400D01*
X236700D01*
Y25800D01*
X235900D01*
Y25400D01*
X235500D01*
Y24600D01*
X235900D01*
X215900D02*
Y24200D01*
X216700D01*
Y24600D01*
X217100D01*
Y25400D01*
X216700D01*
Y25800D01*
X215900D01*
Y25400D01*
X215500D01*
Y24600D01*
X215900D01*
X245900Y14600D02*
Y14200D01*
X246700D01*
Y14600D01*
X247100D01*
Y15400D01*
X246700D01*
Y15800D01*
X245900D01*
Y15400D01*
X245500D01*
Y14600D01*
X245900D01*
X215900D02*
Y14200D01*
X216700D01*
Y14600D01*
X217100D01*
Y15400D01*
X216700D01*
Y15800D01*
X215900D01*
Y15400D01*
X215500D01*
Y14600D01*
X215900D01*
X235900D02*
Y14200D01*
X236700D01*
Y14600D01*
X237100D01*
Y15400D01*
X236700D01*
Y15800D01*
X235900D01*
Y15400D01*
X235500D01*
Y14600D01*
X235900D01*
X225900D02*
Y14200D01*
X226700D01*
Y14600D01*
X227100D01*
Y15400D01*
X226700D01*
Y15800D01*
X225900D01*
Y15400D01*
X225500D01*
Y14600D01*
X225900D01*
X135900Y24600D02*
Y24200D01*
X136700D01*
Y24600D01*
X137100D01*
Y25400D01*
X136700D01*
Y25800D01*
X135900D01*
Y25400D01*
X135500D01*
Y24600D01*
X135900D01*
X145900D02*
Y24200D01*
X146700D01*
Y24600D01*
X147100D01*
Y25400D01*
X146700D01*
Y25800D01*
X145900D01*
Y25400D01*
X145500D01*
Y24600D01*
X145900D01*
X115900D02*
Y24200D01*
X116700D01*
Y24600D01*
X117100D01*
Y25400D01*
X116700D01*
Y25800D01*
X115900D01*
Y25400D01*
X115500D01*
Y24600D01*
X115900D01*
X135900Y14600D02*
Y14200D01*
X136700D01*
Y14600D01*
X137100D01*
Y15400D01*
X136700D01*
Y15800D01*
X135900D01*
Y15400D01*
X135500D01*
Y14600D01*
X135900D01*
X125900Y24600D02*
Y24200D01*
X126700D01*
Y24600D01*
X127100D01*
Y25400D01*
X126700D01*
Y25800D01*
X125900D01*
Y25400D01*
X125500D01*
Y24600D01*
X125900D01*
X95900D02*
Y24200D01*
X96700D01*
Y24600D01*
X97100D01*
Y25400D01*
X96700D01*
Y25800D01*
X95900D01*
Y25400D01*
X95500D01*
Y24600D01*
X95900D01*
X105900D02*
Y24200D01*
X106700D01*
Y24600D01*
X107100D01*
Y25400D01*
X106700D01*
Y25800D01*
X105900D01*
Y25400D01*
X105500D01*
Y24600D01*
X105900D01*
X85900D02*
Y24200D01*
X86700D01*
Y24600D01*
X87100D01*
Y25400D01*
X86700D01*
Y25800D01*
X85900D01*
Y25400D01*
X85500D01*
Y24600D01*
X85900D01*
X75900Y14600D02*
Y14200D01*
X76700D01*
Y14600D01*
X77100D01*
Y15400D01*
X76700D01*
Y15800D01*
X75900D01*
Y15400D01*
X75500D01*
Y14600D01*
X75900D01*
Y24600D02*
Y24200D01*
X76700D01*
Y24600D01*
X77100D01*
Y25400D01*
X76700D01*
Y25800D01*
X75900D01*
Y25400D01*
X75500D01*
Y24600D01*
X75900D01*
X145900Y14600D02*
Y14200D01*
X146700D01*
Y14600D01*
X147100D01*
Y15400D01*
X146700D01*
Y15800D01*
X145900D01*
Y15400D01*
X145500D01*
Y14600D01*
X145900D01*
X125900D02*
Y14200D01*
X126700D01*
Y14600D01*
X127100D01*
Y15400D01*
X126700D01*
Y15800D01*
X125900D01*
Y15400D01*
X125500D01*
Y14600D01*
X125900D01*
X85900D02*
Y14200D01*
X86700D01*
Y14600D01*
X87100D01*
Y15400D01*
X86700D01*
Y15800D01*
X85900D01*
Y15400D01*
X85500D01*
Y14600D01*
X85900D01*
X95900D02*
Y14200D01*
X96700D01*
Y14600D01*
X97100D01*
Y15400D01*
X96700D01*
Y15800D01*
X95900D01*
Y15400D01*
X95500D01*
Y14600D01*
X95900D01*
X65900D02*
Y14200D01*
X66700D01*
Y14600D01*
X67100D01*
Y15400D01*
X66700D01*
Y15800D01*
X65900D01*
Y15400D01*
X65500D01*
Y14600D01*
X65900D01*
X115900D02*
Y14200D01*
X116700D01*
Y14600D01*
X117100D01*
Y15400D01*
X116700D01*
Y15800D01*
X115900D01*
Y15400D01*
X115500D01*
Y14600D01*
X115900D01*
X105900D02*
Y14200D01*
X106700D01*
Y14600D01*
X107100D01*
Y15400D01*
X106700D01*
Y15800D01*
X105900D01*
Y15400D01*
X105500D01*
Y14600D01*
X105900D01*
X65900Y24600D02*
Y24200D01*
X66700D01*
Y24600D01*
X67100D01*
Y25400D01*
X66700D01*
Y25800D01*
X65900D01*
Y25400D01*
X65500D01*
Y24600D01*
X65900D01*
X55900D02*
Y24200D01*
X56700D01*
Y24600D01*
X57100D01*
Y25400D01*
X56700D01*
Y25800D01*
X55900D01*
Y25400D01*
X55500D01*
Y24600D01*
X55900D01*
X35900D02*
Y24200D01*
X36700D01*
Y24600D01*
X37100D01*
Y25400D01*
X36700D01*
Y25800D01*
X35900D01*
Y25400D01*
X35500D01*
Y24600D01*
X35900D01*
X45900D02*
Y24200D01*
X46700D01*
Y24600D01*
X47100D01*
Y25400D01*
X46700D01*
Y25800D01*
X45900D01*
Y25400D01*
X45500D01*
Y24600D01*
X45900D01*
X25900D02*
Y24200D01*
X26700D01*
Y24600D01*
X27100D01*
Y25400D01*
X26700D01*
Y25800D01*
X25900D01*
Y25400D01*
X25500D01*
Y24600D01*
X25900D01*
X55900Y14600D02*
Y14200D01*
X56700D01*
Y14600D01*
X57100D01*
Y15400D01*
X56700D01*
Y15800D01*
X55900D01*
Y15400D01*
X55500D01*
Y14600D01*
X55900D01*
X25900D02*
Y14200D01*
X26700D01*
Y14600D01*
X27100D01*
Y15400D01*
X26700D01*
Y15800D01*
X25900D01*
Y15400D01*
X25500D01*
Y14600D01*
X25900D01*
X45900D02*
Y14200D01*
X46700D01*
Y14600D01*
X47100D01*
Y15400D01*
X46700D01*
Y15800D01*
X45900D01*
Y15400D01*
X45500D01*
Y14600D01*
X45900D01*
X35900D02*
Y14200D01*
X36700D01*
Y14600D01*
X37100D01*
Y15400D01*
X36700D01*
Y15800D01*
X35900D01*
Y15400D01*
X35500D01*
Y14600D01*
X35900D01*
X284157Y242200D02*
X284557D01*
X284957Y242600D01*
X285357Y242200D01*
X285757D01*
Y242600D01*
X285357Y243000D01*
X285757Y243400D01*
Y243800D01*
X285357D01*
X284957Y243400D01*
X284557Y243800D01*
X284157D01*
Y243400D01*
X284557Y243000D01*
X284157Y242600D01*
Y242200D01*
X270377D02*
X270777D01*
X271177Y242600D01*
X271577Y242200D01*
X271977D01*
Y242600D01*
X271577Y243000D01*
X271977Y243400D01*
Y243800D01*
X271577D01*
X271177Y243400D01*
X270777Y243800D01*
X270377D01*
Y243400D01*
X270777Y243000D01*
X270377Y242600D01*
Y242200D01*
X256598D02*
X256998D01*
X257398Y242600D01*
X257798Y242200D01*
X258198D01*
Y242600D01*
X257798Y243000D01*
X258198Y243400D01*
Y243800D01*
X257798D01*
X257398Y243400D01*
X256998Y243800D01*
X256598D01*
Y243400D01*
X256998Y243000D01*
X256598Y242600D01*
Y242200D01*
X215259D02*
X215659D01*
X216059Y242600D01*
X216459Y242200D01*
X216859D01*
Y242600D01*
X216459Y243000D01*
X216859Y243400D01*
Y243800D01*
X216459D01*
X216059Y243400D01*
X215659Y243800D01*
X215259D01*
Y243400D01*
X215659Y243000D01*
X215259Y242600D01*
Y242200D01*
X229039D02*
X229439D01*
X229839Y242600D01*
X230239Y242200D01*
X230639D01*
Y242600D01*
X230239Y243000D01*
X230639Y243400D01*
Y243800D01*
X230239D01*
X229839Y243400D01*
X229439Y243800D01*
X229039D01*
Y243400D01*
X229439Y243000D01*
X229039Y242600D01*
Y242200D01*
X201480D02*
X201880D01*
X202279Y242600D01*
X202679Y242200D01*
X203080D01*
Y242600D01*
X202679Y243000D01*
X203080Y243400D01*
Y243800D01*
X202679D01*
X202279Y243400D01*
X201880Y243800D01*
X201480D01*
Y243400D01*
X201880Y243000D01*
X201480Y242600D01*
Y242200D01*
X242818D02*
X243218D01*
X243618Y242600D01*
X244018Y242200D01*
X244418D01*
Y242600D01*
X244018Y243000D01*
X244418Y243400D01*
Y243800D01*
X244018D01*
X243618Y243400D01*
X243218Y243800D01*
X242818D01*
Y243400D01*
X243218Y243000D01*
X242818Y242600D01*
Y242200D01*
X173921Y242200D02*
X174320D01*
X174721Y242600D01*
X175120Y242200D01*
X175521D01*
Y242600D01*
X175120Y243000D01*
X175521Y243400D01*
Y243800D01*
X175120D01*
X174721Y243400D01*
X174320Y243800D01*
X173921D01*
Y243400D01*
X174320Y243000D01*
X173921Y242600D01*
Y242200D01*
X160141D02*
X160541D01*
X160941Y242600D01*
X161341Y242200D01*
X161741D01*
Y242600D01*
X161341Y243000D01*
X161741Y243400D01*
Y243800D01*
X161341D01*
X160941Y243400D01*
X160541Y243800D01*
X160141D01*
Y243400D01*
X160541Y243000D01*
X160141Y242600D01*
Y242200D01*
X187700Y242200D02*
X188100D01*
X188500Y242600D01*
X188900Y242200D01*
X189300D01*
Y242600D01*
X188900Y243000D01*
X189300Y243400D01*
Y243800D01*
X188900D01*
X188500Y243400D01*
X188100Y243800D01*
X187700D01*
Y243400D01*
X188100Y243000D01*
X187700Y242600D01*
Y242200D01*
X108700Y235252D02*
X109500Y236052D01*
X110300Y235252D01*
X109500Y234452D01*
X108700Y235252D01*
X88700D02*
X89500Y236052D01*
X90300Y235252D01*
X89500Y234452D01*
X88700Y235252D01*
X-117359Y241700D02*
X-116959D01*
X-116559Y242100D01*
X-116159Y241700D01*
X-115759D01*
Y242100D01*
X-116159Y242500D01*
X-115759Y242900D01*
Y243300D01*
X-116159D01*
X-116559Y242900D01*
X-116959Y243300D01*
X-117359D01*
Y242900D01*
X-116959Y242500D01*
X-117359Y242100D01*
Y241700D01*
X-103579D02*
X-103180D01*
X-102779Y242100D01*
X-102380Y241700D01*
X-101979D01*
Y242100D01*
X-102380Y242500D01*
X-101979Y242900D01*
Y243300D01*
X-102380D01*
X-102779Y242900D01*
X-103180Y243300D01*
X-103579D01*
Y242900D01*
X-103180Y242500D01*
X-103579Y242100D01*
Y241700D01*
X-76020D02*
X-75621D01*
X-75221Y242100D01*
X-74821Y241700D01*
X-74420D01*
Y242100D01*
X-74821Y242500D01*
X-74420Y242900D01*
Y243300D01*
X-74821D01*
X-75221Y242900D01*
X-75621Y243300D01*
X-76020D01*
Y242900D01*
X-75621Y242500D01*
X-76020Y242100D01*
Y241700D01*
X-48461D02*
X-48061D01*
X-47661Y242100D01*
X-47261Y241700D01*
X-46861D01*
Y242100D01*
X-47261Y242500D01*
X-46861Y242900D01*
Y243300D01*
X-47261D01*
X-47661Y242900D01*
X-48061Y243300D01*
X-48461D01*
Y242900D01*
X-48061Y242500D01*
X-48461Y242100D01*
Y241700D01*
X-20902D02*
X-20502D01*
X-20102Y242100D01*
X-19702Y241700D01*
X-19302D01*
Y242100D01*
X-19702Y242500D01*
X-19302Y242900D01*
Y243300D01*
X-19702D01*
X-20102Y242900D01*
X-20502Y243300D01*
X-20902D01*
Y242900D01*
X-20502Y242500D01*
X-20902Y242100D01*
Y241700D01*
X-34682D02*
X-34282D01*
X-33882Y242100D01*
X-33482Y241700D01*
X-33082D01*
Y242100D01*
X-33482Y242500D01*
X-33082Y242900D01*
Y243300D01*
X-33482D01*
X-33882Y242900D01*
X-34282Y243300D01*
X-34682D01*
Y242900D01*
X-34282Y242500D01*
X-34682Y242100D01*
Y241700D01*
X-62241D02*
X-61841D01*
X-61441Y242100D01*
X-61041Y241700D01*
X-60641D01*
Y242100D01*
X-61041Y242500D01*
X-60641Y242900D01*
Y243300D01*
X-61041D01*
X-61441Y242900D01*
X-61841Y243300D01*
X-62241D01*
Y242900D01*
X-61841Y242500D01*
X-62241Y242100D01*
Y241700D01*
X-89800D02*
X-89400D01*
X-89000Y242100D01*
X-88600Y241700D01*
X-88200D01*
Y242100D01*
X-88600Y242500D01*
X-88200Y242900D01*
Y243300D01*
X-88600D01*
X-89000Y242900D01*
X-89400Y243300D01*
X-89800D01*
Y242900D01*
X-89400Y242500D01*
X-89800Y242100D01*
Y241700D01*
X-240528D02*
X-240128D01*
X-239728Y242100D01*
X-239328Y241700D01*
X-238928D01*
Y242100D01*
X-239328Y242500D01*
X-238928Y242900D01*
Y243300D01*
X-239328D01*
X-239728Y242900D01*
X-240128Y243300D01*
X-240528D01*
Y242900D01*
X-240128Y242500D01*
X-240528Y242100D01*
Y241700D01*
X-226749D02*
X-226349D01*
X-225949Y242100D01*
X-225549Y241700D01*
X-225149D01*
Y242100D01*
X-225549Y242500D01*
X-225149Y242900D01*
Y243300D01*
X-225549D01*
X-225949Y242900D01*
X-226349Y243300D01*
X-226749D01*
Y242900D01*
X-226349Y242500D01*
X-226749Y242100D01*
Y241700D01*
X-199190D02*
X-198790D01*
X-198390Y242100D01*
X-197990Y241700D01*
X-197590D01*
Y242100D01*
X-197990Y242500D01*
X-197590Y242900D01*
Y243300D01*
X-197990D01*
X-198390Y242900D01*
X-198790Y243300D01*
X-199190D01*
Y242900D01*
X-198790Y242500D01*
X-199190Y242100D01*
Y241700D01*
X-171631D02*
X-171231D01*
X-170831Y242100D01*
X-170431Y241700D01*
X-170031D01*
Y242100D01*
X-170431Y242500D01*
X-170031Y242900D01*
Y243300D01*
X-170431D01*
X-170831Y242900D01*
X-171231Y243300D01*
X-171631D01*
Y242900D01*
X-171231Y242500D01*
X-171631Y242100D01*
Y241700D01*
X-144072D02*
X-143672D01*
X-143272Y242100D01*
X-142872Y241700D01*
X-142472D01*
Y242100D01*
X-142872Y242500D01*
X-142472Y242900D01*
Y243300D01*
X-142872D01*
X-143272Y242900D01*
X-143672Y243300D01*
X-144072D01*
Y242900D01*
X-143672Y242500D01*
X-144072Y242100D01*
Y241700D01*
X-157851D02*
X-157451D01*
X-157051Y242100D01*
X-156651Y241700D01*
X-156251D01*
Y242100D01*
X-156651Y242500D01*
X-156251Y242900D01*
Y243300D01*
X-156651D01*
X-157051Y242900D01*
X-157451Y243300D01*
X-157851D01*
Y242900D01*
X-157451Y242500D01*
X-157851Y242100D01*
Y241700D01*
X-185410D02*
X-185010D01*
X-184610Y242100D01*
X-184210Y241700D01*
X-183810D01*
Y242100D01*
X-184210Y242500D01*
X-183810Y242900D01*
Y243300D01*
X-184210D01*
X-184610Y242900D01*
X-185010Y243300D01*
X-185410D01*
Y242900D01*
X-185010Y242500D01*
X-185410Y242100D01*
Y241700D01*
X-212969D02*
X-212569D01*
X-212169Y242100D01*
X-211769Y241700D01*
X-211369D01*
Y242100D01*
X-211769Y242500D01*
X-211369Y242900D01*
Y243300D01*
X-211769D01*
X-212169Y242900D01*
X-212569Y243300D01*
X-212969D01*
Y242900D01*
X-212569Y242500D01*
X-212969Y242100D01*
Y241700D01*
X-268800Y193421D02*
X-268400D01*
X-268000Y193821D01*
X-267600Y193421D01*
X-267200D01*
Y193821D01*
X-267600Y194220D01*
X-267200Y194621D01*
Y195020D01*
X-267600D01*
X-268000Y194621D01*
X-268400Y195020D01*
X-268800D01*
Y194621D01*
X-268400Y194220D01*
X-268800Y193821D01*
Y193421D01*
Y220979D02*
X-268400D01*
X-268000Y221379D01*
X-267600Y220979D01*
X-267200D01*
Y221379D01*
X-267600Y221779D01*
X-267200Y222180D01*
Y222580D01*
X-267600D01*
X-268000Y222180D01*
X-268400Y222580D01*
X-268800D01*
Y222180D01*
X-268400Y221779D01*
X-268800Y221379D01*
Y220979D01*
Y207200D02*
X-268400D01*
X-268000Y207600D01*
X-267600Y207200D01*
X-267200D01*
Y207600D01*
X-267600Y208000D01*
X-267200Y208400D01*
Y208800D01*
X-267600D01*
X-268000Y208400D01*
X-268400Y208800D01*
X-268800D01*
Y208400D01*
X-268400Y208000D01*
X-268800Y207600D01*
Y207200D01*
X-64300Y30700D02*
Y32300D01*
X-62700D01*
Y30700D01*
X-64300D01*
X-63900Y31100D02*
Y31900D01*
X-63100D01*
Y31100D01*
X-63900D01*
X-74300Y30700D02*
Y32300D01*
X-72700D01*
Y30700D01*
X-74300D01*
X-73900Y31100D02*
Y31900D01*
X-73100D01*
Y31100D01*
X-73900D01*
X-103800Y30200D02*
Y31800D01*
X-102200D01*
Y30200D01*
X-103800D01*
X-103400Y30600D02*
Y31400D01*
X-102600D01*
Y30600D01*
X-103400D01*
X-113800Y30200D02*
Y31800D01*
X-112200D01*
Y30200D01*
X-113800D01*
X-113400Y30600D02*
Y31400D01*
X-112600D01*
Y30600D01*
X-113400D01*
X19200Y54200D02*
Y55800D01*
X20800D01*
Y54200D01*
X19200D01*
Y254200D02*
Y255800D01*
X20800D01*
Y254200D01*
X19200D01*
X341700D02*
Y255800D01*
X343300D01*
Y254200D01*
X341700D01*
Y54200D02*
Y55800D01*
X343300D01*
Y54200D01*
X341700D01*
X24600Y94600D02*
Y94200D01*
X25400D01*
Y94600D01*
X25800D01*
Y95400D01*
X25400D01*
Y95800D01*
X24600D01*
Y95400D01*
X24200D01*
Y94600D01*
X24600D01*
Y104600D02*
Y104200D01*
X25400D01*
Y104600D01*
X25800D01*
Y105400D01*
X25400D01*
Y105800D01*
X24600D01*
Y105400D01*
X24200D01*
Y104600D01*
X24600D01*
Y114600D02*
Y114200D01*
X25400D01*
Y114600D01*
X25800D01*
Y115400D01*
X25400D01*
Y115800D01*
X24600D01*
Y115400D01*
X24200D01*
Y114600D01*
X24600D01*
Y124600D02*
Y124200D01*
X25400D01*
Y124600D01*
X25800D01*
Y125400D01*
X25400D01*
Y125800D01*
X24600D01*
Y125400D01*
X24200D01*
Y124600D01*
X24600D01*
Y134600D02*
Y134200D01*
X25400D01*
Y134600D01*
X25800D01*
Y135400D01*
X25400D01*
Y135800D01*
X24600D01*
Y135400D01*
X24200D01*
Y134600D01*
X24600D01*
Y144600D02*
Y144200D01*
X25400D01*
Y144600D01*
X25800D01*
Y145400D01*
X25400D01*
Y145800D01*
X24600D01*
Y145400D01*
X24200D01*
Y144600D01*
X24600D01*
Y154600D02*
Y154200D01*
X25400D01*
Y154600D01*
X25800D01*
Y155400D01*
X25400D01*
Y155800D01*
X24600D01*
Y155400D01*
X24200D01*
Y154600D01*
X24600D01*
Y164600D02*
Y164200D01*
X25400D01*
Y164600D01*
X25800D01*
Y165400D01*
X25400D01*
Y165800D01*
X24600D01*
Y165400D01*
X24200D01*
Y164600D01*
X24600D01*
Y174600D02*
Y174200D01*
X25400D01*
Y174600D01*
X25800D01*
Y175400D01*
X25400D01*
Y175800D01*
X24600D01*
Y175400D01*
X24200D01*
Y174600D01*
X24600D01*
Y184600D02*
Y184200D01*
X25400D01*
Y184600D01*
X25800D01*
Y185400D01*
X25400D01*
Y185800D01*
X24600D01*
Y185400D01*
X24200D01*
Y184600D01*
X24600D01*
Y194600D02*
Y194200D01*
X25400D01*
Y194600D01*
X25800D01*
Y195400D01*
X25400D01*
Y195800D01*
X24600D01*
Y195400D01*
X24200D01*
Y194600D01*
X24600D01*
Y204600D02*
Y204200D01*
X25400D01*
Y204600D01*
X25800D01*
Y205400D01*
X25400D01*
Y205800D01*
X24600D01*
Y205400D01*
X24200D01*
Y204600D01*
X24600D01*
Y214600D02*
Y214200D01*
X25400D01*
Y214600D01*
X25800D01*
Y215400D01*
X25400D01*
Y215800D01*
X24600D01*
Y215400D01*
X24200D01*
Y214600D01*
X24600D01*
X14600Y94600D02*
Y94200D01*
X15400D01*
Y94600D01*
X15800D01*
Y95400D01*
X15400D01*
Y95800D01*
X14600D01*
Y95400D01*
X14200D01*
Y94600D01*
X14600D01*
Y104600D02*
Y104200D01*
X15400D01*
Y104600D01*
X15800D01*
Y105400D01*
X15400D01*
Y105800D01*
X14600D01*
Y105400D01*
X14200D01*
Y104600D01*
X14600D01*
Y114600D02*
Y114200D01*
X15400D01*
Y114600D01*
X15800D01*
Y115400D01*
X15400D01*
Y115800D01*
X14600D01*
Y115400D01*
X14200D01*
Y114600D01*
X14600D01*
Y124600D02*
Y124200D01*
X15400D01*
Y124600D01*
X15800D01*
Y125400D01*
X15400D01*
Y125800D01*
X14600D01*
Y125400D01*
X14200D01*
Y124600D01*
X14600D01*
Y134600D02*
Y134200D01*
X15400D01*
Y134600D01*
X15800D01*
Y135400D01*
X15400D01*
Y135800D01*
X14600D01*
Y135400D01*
X14200D01*
Y134600D01*
X14600D01*
Y144600D02*
Y144200D01*
X15400D01*
Y144600D01*
X15800D01*
Y145400D01*
X15400D01*
Y145800D01*
X14600D01*
Y145400D01*
X14200D01*
Y144600D01*
X14600D01*
Y154600D02*
Y154200D01*
X15400D01*
Y154600D01*
X15800D01*
Y155400D01*
X15400D01*
Y155800D01*
X14600D01*
Y155400D01*
X14200D01*
Y154600D01*
X14600D01*
Y164600D02*
Y164200D01*
X15400D01*
Y164600D01*
X15800D01*
Y165400D01*
X15400D01*
Y165800D01*
X14600D01*
Y165400D01*
X14200D01*
Y164600D01*
X14600D01*
Y174600D02*
Y174200D01*
X15400D01*
Y174600D01*
X15800D01*
Y175400D01*
X15400D01*
Y175800D01*
X14600D01*
Y175400D01*
X14200D01*
Y174600D01*
X14600D01*
Y184600D02*
Y184200D01*
X15400D01*
Y184600D01*
X15800D01*
Y185400D01*
X15400D01*
Y185800D01*
X14600D01*
Y185400D01*
X14200D01*
Y184600D01*
X14600D01*
Y194600D02*
Y194200D01*
X15400D01*
Y194600D01*
X15800D01*
Y195400D01*
X15400D01*
Y195800D01*
X14600D01*
Y195400D01*
X14200D01*
Y194600D01*
X14600D01*
Y204600D02*
Y204200D01*
X15400D01*
Y204600D01*
X15800D01*
Y205400D01*
X15400D01*
Y205800D01*
X14600D01*
Y205400D01*
X14200D01*
Y204600D01*
X14600D01*
Y214600D02*
Y214200D01*
X15400D01*
Y214600D01*
X15800D01*
Y215400D01*
X15400D01*
Y215800D01*
X14600D01*
Y215400D01*
X14200D01*
Y214600D01*
X14600D01*
X40007Y222625D02*
X39207Y224225D01*
X40807D01*
X40007Y222625D01*
Y223025D02*
X39607Y223825D01*
X40407D01*
X40007Y223025D01*
X-81595Y42310D02*
X-82394Y43910D01*
X-80795D01*
X-81595Y42310D01*
Y42710D02*
X-81994Y43510D01*
X-81195D01*
X-81595Y42710D01*
X33465Y212554D02*
X32665Y214154D01*
X34265D01*
X33465Y212554D01*
Y212954D02*
X33065Y213754D01*
X33865D01*
X33465Y212954D01*
X36614Y215440D02*
X35814Y217040D01*
X37414D01*
X36614Y215440D01*
Y215840D02*
X36214Y216640D01*
X37014D01*
X36614Y215840D01*
X39370Y219082D02*
X38570Y220682D01*
X40170D01*
X39370Y219082D01*
Y219482D02*
X38970Y220282D01*
X39770D01*
X39370Y219482D01*
X43406Y222428D02*
X42606Y224028D01*
X44205D01*
X43406Y222428D01*
Y222828D02*
X43005Y223628D01*
X43806D01*
X43406Y222828D01*
X47146Y224397D02*
X46346Y225997D01*
X47946D01*
X47146Y224397D01*
Y224797D02*
X46746Y225597D01*
X47546D01*
X47146Y224797D01*
X52000Y225700D02*
X51200Y227300D01*
X52800D01*
X52000Y225700D01*
Y226100D02*
X51600Y226900D01*
X52400D01*
X52000Y226100D01*
X-243500Y39160D02*
X-244300Y40760D01*
X-242700D01*
X-243500Y39160D01*
Y39560D02*
X-243900Y40360D01*
X-243100D01*
X-243500Y39560D01*
X-125500Y68660D02*
X-126300Y70259D01*
X-124700D01*
X-125500Y68660D01*
Y69059D02*
X-125900Y69859D01*
X-125100D01*
X-125500Y69059D01*
X263000Y72741D02*
X262200Y74340D01*
X263800D01*
X263000Y72741D01*
Y73141D02*
X262600Y73940D01*
X263400D01*
X263000Y73141D01*
X32500Y74660D02*
X31700Y76260D01*
X33300D01*
X32500Y74660D01*
Y75060D02*
X32100Y75860D01*
X32900D01*
X32500Y75060D01*
X101500Y53700D02*
X100700Y55300D01*
X102300D01*
X101500Y53700D01*
Y54100D02*
X101100Y54900D01*
X101900D01*
X101500Y54100D01*
X197300Y92500D02*
X196500Y94100D01*
X198100D01*
X197300Y92500D01*
Y92900D02*
X196900Y93700D01*
X197700D01*
X197300Y92900D01*
X195000Y98700D02*
X194200Y100300D01*
X195800D01*
X195000Y98700D01*
Y99100D02*
X194600Y99900D01*
X195400D01*
X195000Y99100D01*
X187500Y119700D02*
X186700Y121300D01*
X188300D01*
X187500Y119700D01*
Y120100D02*
X187100Y120900D01*
X187900D01*
X187500Y120100D01*
X186750Y114200D02*
X185950Y115800D01*
X187550D01*
X186750Y114200D01*
Y114600D02*
X186350Y115400D01*
X187150D01*
X186750Y114600D01*
X188500Y108200D02*
X187700Y109800D01*
X189300D01*
X188500Y108200D01*
Y108600D02*
X188100Y109400D01*
X188900D01*
X188500Y108600D01*
X185455Y102700D02*
X184655Y104300D01*
X186255D01*
X185455Y102700D01*
Y103100D02*
X185055Y103900D01*
X185855D01*
X185455Y103100D01*
X177000Y97200D02*
X176200Y98800D01*
X177800D01*
X177000Y97200D01*
Y97600D02*
X176600Y98400D01*
X177400D01*
X177000Y97600D01*
X178000Y65700D02*
X177200Y67300D01*
X178800D01*
X178000Y65700D01*
Y66100D02*
X177600Y66900D01*
X178400D01*
X178000Y66100D01*
X173736Y44464D02*
X172936Y46064D01*
X174536D01*
X173736Y44464D01*
Y44864D02*
X173336Y45664D01*
X174136D01*
X173736Y44864D01*
X168000Y42200D02*
X167200Y43800D01*
X168800D01*
X168000Y42200D01*
Y42600D02*
X167600Y43400D01*
X168400D01*
X168000Y42600D01*
X111000Y52700D02*
X110200Y54300D01*
X111800D01*
X111000Y52700D01*
Y53100D02*
X110600Y53900D01*
X111400D01*
X111000Y53100D01*
X162000Y56700D02*
X161200Y58300D01*
X162800D01*
X162000Y56700D01*
Y57100D02*
X161600Y57900D01*
X162400D01*
X162000Y57100D01*
X101000Y41700D02*
X100200Y43300D01*
X101800D01*
X101000Y41700D01*
Y42100D02*
X100600Y42900D01*
X101400D01*
X101000Y42100D01*
X71000Y53700D02*
X70200Y55300D01*
X71800D01*
X71000Y53700D01*
Y54100D02*
X70600Y54900D01*
X71400D01*
X71000Y54100D01*
X158791Y61200D02*
X157991Y62800D01*
X159591D01*
X158791Y61200D01*
Y61600D02*
X158391Y62400D01*
X159191D01*
X158791Y61600D01*
X-181941Y36121D02*
X-182741Y37721D01*
X-181141D01*
X-181941Y36121D01*
Y36521D02*
X-182341Y37321D01*
X-181541D01*
X-181941Y36521D01*
X0Y28200D02*
X-800Y29800D01*
X800D01*
X0Y28200D01*
Y28600D02*
X-400Y29400D01*
X400D01*
X0Y28600D01*
X314000Y90846D02*
X313200Y92446D01*
X314800D01*
X314000Y90846D01*
Y91246D02*
X313600Y92046D01*
X314400D01*
X314000Y91246D01*
X315354Y71554D02*
X314554Y73154D01*
X316154D01*
X315354Y71554D01*
Y71954D02*
X314954Y72754D01*
X315754D01*
X315354Y71954D01*
X158791Y128700D02*
X157991Y130300D01*
X159591D01*
X158791Y128700D01*
Y129100D02*
X158391Y129900D01*
X159191D01*
X158791Y129100D01*
X139500Y128700D02*
X138700Y130300D01*
X140300D01*
X139500Y128700D01*
Y129100D02*
X139100Y129900D01*
X139900D01*
X139500Y129100D01*
X-5854Y212554D02*
X-6654Y214154D01*
X-5054D01*
X-5854Y212554D01*
Y212954D02*
X-6254Y213754D01*
X-5454D01*
X-5854Y212954D01*
X-25146Y212200D02*
X-25946Y213800D01*
X-24346D01*
X-25146Y212200D01*
Y212600D02*
X-25546Y213400D01*
X-24746D01*
X-25146Y212600D01*
X-189500Y22200D02*
X-190300Y23800D01*
X-188700D01*
X-189500Y22200D01*
Y22600D02*
X-189900Y23400D01*
X-189100D01*
X-189500Y22600D01*
X-157441Y41121D02*
X-158241Y42721D01*
X-156641D01*
X-157441Y41121D01*
Y41521D02*
X-157841Y42321D01*
X-157041D01*
X-157441Y41521D01*
Y32121D02*
X-158241Y33721D01*
X-156641D01*
X-157441Y32121D01*
Y32521D02*
X-157841Y33321D01*
X-157041D01*
X-157441Y32521D01*
X6000Y82200D02*
X5200Y83800D01*
X6800D01*
X6000Y82200D01*
Y82600D02*
X5600Y83400D01*
X6400D01*
X6000Y82600D01*
X3500Y85700D02*
X2700Y87300D01*
X4300D01*
X3500Y85700D01*
Y86100D02*
X3100Y86900D01*
X3900D01*
X3500Y86100D01*
X8500Y154200D02*
X7700Y155800D01*
X9300D01*
X8500Y154200D01*
Y154600D02*
X8100Y155400D01*
X8900D01*
X8500Y154600D01*
X98500Y77200D02*
X97700Y78800D01*
X99300D01*
X98500Y77200D01*
Y77600D02*
X98100Y78400D01*
X98900D01*
X98500Y77600D01*
X96268Y88968D02*
X95468Y90568D01*
X97068D01*
X96268Y88968D01*
Y89368D02*
X95868Y90168D01*
X96668D01*
X96268Y89368D01*
X118000Y85200D02*
X117200Y86800D01*
X118800D01*
X118000Y85200D01*
Y85600D02*
X117600Y86400D01*
X118400D01*
X118000Y85600D01*
Y61700D02*
X117200Y63300D01*
X118800D01*
X118000Y61700D01*
Y62100D02*
X117600Y62900D01*
X118400D01*
X118000Y62100D01*
X115500Y82700D02*
X114700Y84300D01*
X116300D01*
X115500Y82700D01*
Y83100D02*
X115100Y83900D01*
X115900D01*
X115500Y83100D01*
Y58200D02*
X114700Y59800D01*
X116300D01*
X115500Y58200D01*
Y58600D02*
X115100Y59400D01*
X115900D01*
X115500Y58600D01*
X174500Y70200D02*
X173700Y71800D01*
X175300D01*
X174500Y70200D01*
Y70600D02*
X174100Y71400D01*
X174900D01*
X174500Y70600D01*
Y92500D02*
X173700Y94100D01*
X175300D01*
X174500Y92500D01*
Y92900D02*
X174100Y93700D01*
X174900D01*
X174500Y92900D01*
X-163000Y100484D02*
X-163800Y102084D01*
X-162200D01*
X-163000Y100484D01*
Y100883D02*
X-163400Y101683D01*
X-162600D01*
X-163000Y100883D01*
X-173500Y153700D02*
X-174300Y155300D01*
X-172700D01*
X-173500Y153700D01*
Y154100D02*
X-173900Y154900D01*
X-173100D01*
X-173500Y154100D01*
X261500Y48200D02*
X260700Y49800D01*
X262300D01*
X261500Y48200D01*
Y48600D02*
X261100Y49400D01*
X261900D01*
X261500Y48600D01*
X269000Y50700D02*
X268200Y52300D01*
X269800D01*
X269000Y50700D01*
Y51100D02*
X268600Y51900D01*
X269400D01*
X269000Y51100D01*
X65000Y230200D02*
X64200Y231800D01*
X65800D01*
X65000Y230200D01*
Y230600D02*
X64600Y231400D01*
X65400D01*
X65000Y230600D01*
X69000Y229200D02*
X68200Y230800D01*
X69800D01*
X69000Y229200D01*
Y229600D02*
X68600Y230400D01*
X69400D01*
X69000Y229600D01*
X130500Y102163D02*
X129700Y103763D01*
X131300D01*
X130500Y102163D01*
Y102563D02*
X130100Y103363D01*
X130900D01*
X130500Y102563D01*
X128000Y107558D02*
X127200Y109158D01*
X128800D01*
X128000Y107558D01*
Y107958D02*
X127600Y108758D01*
X128400D01*
X128000Y107958D01*
X125000Y118700D02*
X124200Y120300D01*
X125800D01*
X125000Y118700D01*
Y119100D02*
X124600Y119900D01*
X125400D01*
X125000Y119100D01*
X121500Y118200D02*
X120700Y119800D01*
X122300D01*
X121500Y118200D01*
Y118600D02*
X121100Y119400D01*
X121900D01*
X121500Y118600D01*
X63000Y233200D02*
X62200Y234800D01*
X63800D01*
X63000Y233200D01*
Y233600D02*
X62600Y234400D01*
X63400D01*
X63000Y233600D01*
X66500Y235700D02*
X65700Y237300D01*
X67300D01*
X66500Y235700D01*
Y236100D02*
X66100Y236900D01*
X66900D01*
X66500Y236100D01*
X111000Y143700D02*
X110200Y145300D01*
X111800D01*
X111000Y143700D01*
Y144100D02*
X110600Y144900D01*
X111400D01*
X111000Y144100D01*
X171000Y170700D02*
X170200Y172300D01*
X171800D01*
X171000Y170700D01*
Y171100D02*
X170600Y171900D01*
X171400D01*
X171000Y171100D01*
X178000Y143700D02*
X177200Y145300D01*
X178800D01*
X178000Y143700D01*
Y144100D02*
X177600Y144900D01*
X178400D01*
X178000Y144100D01*
X91000Y45700D02*
X90200Y47300D01*
X91800D01*
X91000Y45700D01*
Y46100D02*
X90600Y46900D01*
X91400D01*
X91000Y46100D01*
X165500Y81200D02*
X164700Y82800D01*
X166300D01*
X165500Y81200D01*
Y81600D02*
X165100Y82400D01*
X165900D01*
X165500Y81600D01*
Y35700D02*
X164700Y37300D01*
X166300D01*
X165500Y35700D01*
Y36100D02*
X165100Y36900D01*
X165900D01*
X165500Y36100D01*
X81000Y35200D02*
X80200Y36800D01*
X81800D01*
X81000Y35200D01*
Y35600D02*
X80600Y36400D01*
X81400D01*
X81000Y35600D01*
X102500Y163700D02*
X101700Y165300D01*
X103300D01*
X102500Y163700D01*
Y164100D02*
X102100Y164900D01*
X102900D01*
X102500Y164100D01*
X106000Y31700D02*
X105200Y33300D01*
X106800D01*
X106000Y31700D01*
Y32100D02*
X105600Y32900D01*
X106400D01*
X106000Y32100D01*
X-165500Y66700D02*
X-166300Y68300D01*
X-164700D01*
X-165500Y66700D01*
Y67100D02*
X-165900Y67900D01*
X-165100D01*
X-165500Y67100D01*
X4000Y180200D02*
X3200Y181800D01*
X4800D01*
X4000Y180200D01*
Y180600D02*
X3600Y181400D01*
X4400D01*
X4000Y180600D01*
X1925Y175200D02*
X1125Y176800D01*
X2725D01*
X1925Y175200D01*
Y175600D02*
X1525Y176400D01*
X2325D01*
X1925Y175600D01*
X-163000Y134200D02*
X-163800Y135800D01*
X-162200D01*
X-163000Y134200D01*
Y134600D02*
X-163400Y135400D01*
X-162600D01*
X-163000Y134600D01*
X-44500Y12200D02*
X-45300Y13800D01*
X-43700D01*
X-44500Y12200D01*
Y12600D02*
X-44900Y13400D01*
X-44100D01*
X-44500Y12600D01*
X-44957Y143657D02*
X-45757Y145257D01*
X-44157D01*
X-44957Y143657D01*
Y144057D02*
X-45357Y144857D01*
X-44557D01*
X-44957Y144057D01*
X-44500Y165200D02*
X-45300Y166800D01*
X-43700D01*
X-44500Y165200D01*
Y165600D02*
X-44900Y166400D01*
X-44100D01*
X-44500Y165600D01*
X-27000Y8700D02*
X-27800Y10300D01*
X-26200D01*
X-27000Y8700D01*
Y9100D02*
X-27400Y9900D01*
X-26600D01*
X-27000Y9100D01*
X1000Y6200D02*
X200Y7800D01*
X1800D01*
X1000Y6200D01*
Y6600D02*
X600Y7400D01*
X1400D01*
X1000Y6600D01*
Y169700D02*
X200Y171300D01*
X1800D01*
X1000Y169700D01*
Y170100D02*
X600Y170900D01*
X1400D01*
X1000Y170100D01*
X6000Y185200D02*
X5200Y186800D01*
X6800D01*
X6000Y185200D01*
Y185600D02*
X5600Y186400D01*
X6400D01*
X6000Y185600D01*
X3500Y209700D02*
X2700Y211300D01*
X4300D01*
X3500Y209700D01*
Y210100D02*
X3100Y210900D01*
X3900D01*
X3500Y210100D01*
Y190200D02*
X2700Y191800D01*
X4300D01*
X3500Y190200D01*
Y190600D02*
X3100Y191400D01*
X3900D01*
X3500Y190600D01*
X-34500Y185200D02*
X-35300Y186800D01*
X-33700D01*
X-34500Y185200D01*
Y185600D02*
X-34900Y186400D01*
X-34100D01*
X-34500Y185600D01*
Y210700D02*
X-35300Y212300D01*
X-33700D01*
X-34500Y210700D01*
Y211100D02*
X-34900Y211900D01*
X-34100D01*
X-34500Y211100D01*
X-38500Y190200D02*
X-39300Y191800D01*
X-37700D01*
X-38500Y190200D01*
Y190600D02*
X-38900Y191400D01*
X-38100D01*
X-38500Y190600D01*
Y207200D02*
X-39300Y208800D01*
X-37700D01*
X-38500Y207200D01*
Y207600D02*
X-38900Y208400D01*
X-38100D01*
X-38500Y207600D01*
X-42500Y195200D02*
X-43300Y196800D01*
X-41700D01*
X-42500Y195200D01*
Y195600D02*
X-42900Y196400D01*
X-42100D01*
X-42500Y195600D01*
Y204200D02*
X-43300Y205800D01*
X-41700D01*
X-42500Y204200D01*
Y204600D02*
X-42900Y205400D01*
X-42100D01*
X-42500Y204600D01*
X-236047Y143247D02*
X-236847Y144847D01*
X-235247D01*
X-236047Y143247D01*
Y143647D02*
X-236447Y144447D01*
X-235647D01*
X-236047Y143647D01*
Y86247D02*
X-236847Y87847D01*
X-235247D01*
X-236047Y86247D01*
Y86647D02*
X-236447Y87447D01*
X-235647D01*
X-236047Y86647D01*
X-229000Y118963D02*
X-229800Y120563D01*
X-228200D01*
X-229000Y118963D01*
Y119363D02*
X-229400Y120163D01*
X-228600D01*
X-229000Y119363D01*
X-229300Y92500D02*
X-230100Y94100D01*
X-228500D01*
X-229300Y92500D01*
Y92900D02*
X-229700Y93700D01*
X-228900D01*
X-229300Y92900D01*
X-242000Y76200D02*
X-242800Y77800D01*
X-241200D01*
X-242000Y76200D01*
Y76600D02*
X-242400Y77400D01*
X-241600D01*
X-242000Y76600D01*
X-248900Y126300D02*
X-249700Y127900D01*
X-248100D01*
X-248900Y126300D01*
Y126700D02*
X-249300Y127500D01*
X-248500D01*
X-248900Y126700D01*
X-216957Y51200D02*
X-217757Y52800D01*
X-216157D01*
X-216957Y51200D01*
Y51600D02*
X-217357Y52400D01*
X-216557D01*
X-216957Y51600D01*
Y68700D02*
X-217757Y70300D01*
X-216157D01*
X-216957Y68700D01*
Y69100D02*
X-217357Y69900D01*
X-216557D01*
X-216957Y69100D01*
Y86743D02*
X-217757Y88343D01*
X-216157D01*
X-216957Y86743D01*
Y87143D02*
X-217357Y87943D01*
X-216557D01*
X-216957Y87143D01*
Y103700D02*
X-217757Y105300D01*
X-216157D01*
X-216957Y103700D01*
Y104100D02*
X-217357Y104900D01*
X-216557D01*
X-216957Y104100D01*
Y120243D02*
X-217757Y121843D01*
X-216157D01*
X-216957Y120243D01*
Y120643D02*
X-217357Y121443D01*
X-216557D01*
X-216957Y120643D01*
Y137700D02*
X-217757Y139300D01*
X-216157D01*
X-216957Y137700D01*
Y138100D02*
X-217357Y138900D01*
X-216557D01*
X-216957Y138100D01*
D97*
X54300Y263500D02*
G03*
X54300Y263500I-800J0D01*
G01*
X343800Y101000D02*
G03*
X343800Y101000I-800J0D01*
G01*
X219119Y101284D02*
G03*
X219119Y101284I-800J0D01*
G01*
X230300Y95831D02*
G03*
X230300Y95831I-800J0D01*
G01*
Y106736D02*
G03*
X230300Y106736I-800J0D01*
G01*
Y117642D02*
G03*
X230300Y117642I-800J0D01*
G01*
Y128547D02*
G03*
X230300Y128547I-800J0D01*
G01*
Y139453D02*
G03*
X230300Y139453I-800J0D01*
G01*
Y150358D02*
G03*
X230300Y150358I-800J0D01*
G01*
Y161264D02*
G03*
X230300Y161264I-800J0D01*
G01*
Y172169D02*
G03*
X230300Y172169I-800J0D01*
G01*
X219119Y112189D02*
G03*
X219119Y112189I-800J0D01*
G01*
Y123094D02*
G03*
X219119Y123094I-800J0D01*
G01*
Y134000D02*
G03*
X219119Y134000I-800J0D01*
G01*
Y144905D02*
G03*
X219119Y144905I-800J0D01*
G01*
Y155811D02*
G03*
X219119Y155811I-800J0D01*
G01*
Y166717D02*
G03*
X219119Y166717I-800J0D01*
G01*
X63709Y101284D02*
G03*
X63709Y101284I-800J0D01*
G01*
X74891Y95831D02*
G03*
X74891Y95831I-800J0D01*
G01*
Y106736D02*
G03*
X74891Y106736I-800J0D01*
G01*
Y117642D02*
G03*
X74891Y117642I-800J0D01*
G01*
Y128547D02*
G03*
X74891Y128547I-800J0D01*
G01*
Y139453D02*
G03*
X74891Y139453I-800J0D01*
G01*
Y150358D02*
G03*
X74891Y150358I-800J0D01*
G01*
Y161264D02*
G03*
X74891Y161264I-800J0D01*
G01*
Y172169D02*
G03*
X74891Y172169I-800J0D01*
G01*
X63709Y112189D02*
G03*
X63709Y112189I-800J0D01*
G01*
Y123094D02*
G03*
X63709Y123094I-800J0D01*
G01*
Y134000D02*
G03*
X63709Y134000I-800J0D01*
G01*
Y144905D02*
G03*
X63709Y144905I-800J0D01*
G01*
Y155811D02*
G03*
X63709Y155811I-800J0D01*
G01*
Y166717D02*
G03*
X63709Y166717I-800J0D01*
G01*
X-91700Y101284D02*
G03*
X-91700Y101284I-800J0D01*
G01*
X-80519Y95831D02*
G03*
X-80519Y95831I-800J0D01*
G01*
Y106736D02*
G03*
X-80519Y106736I-800J0D01*
G01*
Y117642D02*
G03*
X-80519Y117642I-800J0D01*
G01*
Y128547D02*
G03*
X-80519Y128547I-800J0D01*
G01*
Y139453D02*
G03*
X-80519Y139453I-800J0D01*
G01*
Y150358D02*
G03*
X-80519Y150358I-800J0D01*
G01*
Y161264D02*
G03*
X-80519Y161264I-800J0D01*
G01*
Y172169D02*
G03*
X-80519Y172169I-800J0D01*
G01*
X-91700Y112189D02*
G03*
X-91700Y112189I-800J0D01*
G01*
Y123094D02*
G03*
X-91700Y123094I-800J0D01*
G01*
Y134000D02*
G03*
X-91700Y134000I-800J0D01*
G01*
Y144905D02*
G03*
X-91700Y144905I-800J0D01*
G01*
Y155811D02*
G03*
X-91700Y155811I-800J0D01*
G01*
Y166717D02*
G03*
X-91700Y166717I-800J0D01*
G01*
X-256019Y87047D02*
G03*
X-256019Y87047I-800J0D01*
G01*
Y97952D02*
G03*
X-256019Y97952I-800J0D01*
G01*
Y108858D02*
G03*
X-256019Y108858I-800J0D01*
G01*
Y119763D02*
G03*
X-256019Y119763I-800J0D01*
G01*
Y130669D02*
G03*
X-256019Y130669I-800J0D01*
G01*
X-267200Y92500D02*
G03*
X-267200Y92500I-800J0D01*
G01*
Y103405D02*
G03*
X-267200Y103405I-800J0D01*
G01*
Y114311D02*
G03*
X-267200Y114311I-800J0D01*
G01*
Y125216D02*
G03*
X-267200Y125216I-800J0D01*
G01*
X-4200Y95000D02*
G03*
X-4200Y95000I-800J0D01*
G01*
Y105000D02*
G03*
X-4200Y105000I-800J0D01*
G01*
X194300Y166500D02*
G03*
X194300Y166500I-800J0D01*
G01*
X-4554Y115000D02*
G03*
X-4554Y115000I-800J0D01*
G01*
Y125000D02*
G03*
X-4554Y125000I-800J0D01*
G01*
X194300Y155667D02*
G03*
X194300Y155667I-800J0D01*
G01*
X312300Y112500D02*
G03*
X312300Y112500I-800J0D01*
G01*
Y53000D02*
G03*
X312300Y53000I-800J0D01*
G01*
X194300Y144833D02*
G03*
X194300Y144833I-800J0D01*
G01*
X302467Y112500D02*
G03*
X302467Y112500I-800J0D01*
G01*
Y53000D02*
G03*
X302467Y53000I-800J0D01*
G01*
X292633Y112500D02*
G03*
X292633Y112500I-800J0D01*
G01*
Y53000D02*
G03*
X292633Y53000I-800J0D01*
G01*
X194300Y134000D02*
G03*
X194300Y134000I-800J0D01*
G01*
X282800Y112500D02*
G03*
X282800Y112500I-800J0D01*
G01*
Y53000D02*
G03*
X282800Y53000I-800J0D01*
G01*
X-3700Y155000D02*
G03*
X-3700Y155000I-800J0D01*
G01*
X337100Y5000D02*
G03*
X337100Y5000I-800J0D01*
G01*
X327100D02*
G03*
X327100Y5000I-800J0D01*
G01*
X317025D02*
G03*
X317025Y5000I-800J0D01*
G01*
X306950D02*
G03*
X306950Y5000I-800J0D01*
G01*
X296875D02*
G03*
X296875Y5000I-800J0D01*
G01*
X286800D02*
G03*
X286800Y5000I-800J0D01*
G01*
X38800Y137000D02*
G03*
X38800Y137000I-800J0D01*
G01*
Y126250D02*
G03*
X38800Y126250I-800J0D01*
G01*
X227100Y36000D02*
G03*
X227100Y36000I-800J0D01*
G01*
X38800Y115500D02*
G03*
X38800Y115500I-800J0D01*
G01*
Y104750D02*
G03*
X38800Y104750I-800J0D01*
G01*
Y94000D02*
G03*
X38800Y94000I-800J0D01*
G01*
X147100Y5000D02*
G03*
X147100Y5000I-800J0D01*
G01*
X137100D02*
G03*
X137100Y5000I-800J0D01*
G01*
X127100D02*
G03*
X127100Y5000I-800J0D01*
G01*
X117100D02*
G03*
X117100Y5000I-800J0D01*
G01*
X57100Y35000D02*
G03*
X57100Y35000I-800J0D01*
G01*
X47100D02*
G03*
X47100Y35000I-800J0D01*
G01*
X37100D02*
G03*
X37100Y35000I-800J0D01*
G01*
X27300D02*
G03*
X27300Y35000I-800J0D01*
G01*
X-117200Y166500D02*
G03*
X-117200Y166500I-800J0D01*
G01*
Y155811D02*
G03*
X-117200Y155811I-800J0D01*
G01*
Y145500D02*
G03*
X-117200Y145500I-800J0D01*
G01*
Y134000D02*
G03*
X-117200Y134000I-800J0D01*
G01*
Y112000D02*
G03*
X-117200Y112000I-800J0D01*
G01*
X-88200Y9500D02*
G03*
X-88200Y9500I-800J0D01*
G01*
X-107700D02*
G03*
X-107700Y9500I-800J0D01*
G01*
X-68200D02*
G03*
X-68200Y9500I-800J0D01*
G01*
X-213535Y209000D02*
G03*
X-213535Y209000I-800J0D01*
G01*
X-203535D02*
G03*
X-203535Y209000I-800J0D01*
G01*
X-213535Y189000D02*
G03*
X-213535Y189000I-800J0D01*
G01*
X-203535D02*
G03*
X-203535Y189000I-800J0D01*
G01*
X-193535Y209000D02*
G03*
X-193535Y209000I-800J0D01*
G01*
Y189000D02*
G03*
X-193535Y189000I-800J0D01*
G01*
X-173535D02*
G03*
X-173535Y189000I-800J0D01*
G01*
Y209000D02*
G03*
X-173535Y209000I-800J0D01*
G01*
X143520Y194000D02*
G03*
X143520Y194000I-800J0D01*
G01*
X157300D02*
G03*
X157300Y194000I-800J0D01*
G01*
D98*
X143121D02*
G03*
X143121Y194000I-400J0D01*
G01*
X156900D02*
G03*
X156900Y194000I-400J0D01*
G01*
M02*
